SplineFontDB: 3.2
FontName: MFEKSans-Regular
FullName: MFEK Sans Regular
FamilyName: MFEK Sans
Weight: Regular
Copyright: 
Version: 0.1
ItalicAngle: 0
UnderlinePosition: -200
UnderlineWidth: 100
Ascent: 1600
Descent: 400
InvalidEm: 0
LayerCount: 2
Layer: 0 0 "Back" 1
Layer: 1 0 "Fore" 0
XUID: [1021 31 -699969567 16487490]
FSType: 0
OS2Version: 0
OS2_WeightWidthSlopeOnly: 0
OS2_UseTypoMetrics: 1
CreationTime: 1460762150
ModificationTime: 1676022987
PfmFamily: 33
TTFWeight: 400
TTFWidth: 1
LineGap: 0
VLineGap: 0
OS2TypoAscent: 2500
OS2TypoAOffset: 0
OS2TypoDescent: -850
OS2TypoDOffset: 0
OS2TypoLinegap: 0
OS2WinAscent: 2500
OS2WinAOffset: 0
OS2WinDescent: 850
OS2WinDOffset: 0
HheadAscent: 2500
HheadAOffset: 0
HheadDescent: -850
HheadDOffset: 0
OS2CapHeight: 1500
OS2XHeight: 1040
OS2FamilyClass: 2053
OS2Vendor: 'it* '
OS2UnicodeRanges: 00000001.00000000.00000000.00000000
Lookup: 258 0 0 "kerning yeah boi" { "say cheese" [300,0,4] } ['kern' ('DFLT' <'dflt' > 'grek' <'dflt' > 'latn' <'dflt' > ) ]
MarkAttachClasses: 1
DEI: 91125
KernClass2: 30 23 "say cheese"
 73 A Agrave Aacute Acircumflex Atilde Adieresis Aring Amacron Abreve Aogonek
 96 D O Ograve Oacute Ocircumflex Otilde Odieresis Oslash Dcaron Dcroat Omacron Obreve Ohungarumlaut
 81 E AE Egrave Eacute Ecircumflex Edieresis Emacron Ebreve Edotaccent Eogonek Ecaron
 1 F
 39 G Gcircumflex Gbreve Gdotaccent uni0122
 104 J U Ugrave Uacute Ucircumflex Udieresis IJ Jcircumflex Utilde Umacron Ubreve Uring Uhungarumlaut Uogonek
 11 K X uni0136
 23 L Lacute uni013B Lslash
 1 P
 1 Q
 23 R Racute uni0156 Rcaron
 36 S Sacute Scircumflex Scedilla Scaron
 21 T uni0162 Tcaron Tbar
 1 V
 53 W Wcircumflex Wgrave Wacute Wdieresis uni1E86 uni1E88
 30 Y Ycircumflex Ydieresis Ygrave
 26 Z Zacute Zdotaccent Zcaron
 73 a agrave aacute acircumflex atilde adieresis aring amacron abreve aogonek

StartChar: ampersand
Encoding: 38 38 0
Width: 616
VWidth: 1920
Flags: HMW
LayerCount: 2
Back
SplineSet
464 7 m 6
 190 1036 l 6
 164 1126 149 1178 149 1243 c 4
 149 1332 209 1417 339 1417 c 4
 471 1417 534 1336 534 1230 c 4
 534 1092 421 994 278 930 c 4
 158 877 137 819 137 703 c 4
 137 663 147 602 167 535 c 6
 240 266 l 6
 269 156 281 90 330 90 c 4
 420 90 511 409 525 643 c 4
 525 646 528 647 531 647 c 6
 598 647 l 6
 602 647 603 645 603 641 c 4
 582 357 451 -16 299 -16 c 4
 197 -16 166 75 120 246 c 6
 57 480 l 6
 30 568 16 638 16 697 c 4
 16 847 112 932 244 994 c 4
 378 1058 435 1123 435 1222 c 4
 435 1296 409 1340 343 1340 c 4
 290 1340 264 1299 264 1239 c 4
 264 1183 273 1140 283 1107 c 6
 583 7 l 6
 585 4 585 2 581 2 c 6
 472 2 l 6
 468 2 466 4 464 7 c 6
EndSplineSet
Fore
SplineSet
451 57 m 2
 190 1036 l 2
 164 1126 149 1178 149 1243 c 0
 149 1332 209 1417 339 1417 c 0
 471 1417 534 1336 534 1230 c 0
 534 1092 421 994 278 930 c 0
 158 877 137 819 137 703 c 0
 137 663 147 602 167 535 c 2
 240 266 l 2
 269 156 281 90 330 90 c 0
 420 90 494 359 521 593 c 0
 527 646 541 662 564 662 c 2
 565 662 l 2
 589 662 606 645 599 591 c 0
 562 306 451 -16 299 -16 c 0
 197 -16 166 75 120 246 c 2
 57 480 l 2
 30 568 16 638 16 697 c 0
 16 847 112 932 244 994 c 0
 378 1058 435 1123 435 1222 c 0
 435 1296 409 1340 343 1340 c 0
 290 1340 264 1299 264 1239 c 0
 264 1183 273 1140 283 1107 c 2
 561 87 l 2
 575 37 564 -15 520 -15 c 2
 517 -15 l 2
 483 -15 465 6 451 57 c 2
EndSplineSet
EndChar

StartChar: period
Encoding: 46 46 1
Width: 290
VWidth: 1920
Flags: HMW
LayerCount: 2
Back
SplineSet
197 0 m 6
 94 0 l 6
 87 0 84 3 84 10 c 6
 84 219 l 6
 84 226 87 229 94 229 c 6
 197 229 l 6
 204 229 207 226 207 219 c 6
 207 10 l 6
 207 3 204 0 197 0 c 6
EndSplineSet
Fore
SplineSet
147 -15 m 6
 144 -15 l 6
 92 -15 69 23 69 90 c 6
 69 99 l 6
 69 166 92 204 144 204 c 6
 147 204 l 6
 199 204 222 166 222 99 c 6
 222 90 l 6
 222 23 199 -15 147 -15 c 6
EndSplineSet
EndChar

StartChar: zero
Encoding: 48 48 2
Width: 448
VWidth: 1920
Flags: HMW
LayerCount: 2
Fore
SplineSet
47 244 m 2
 47 1155 l 2
 47 1318 76 1417 224 1417 c 0
 372 1417 402 1318 402 1155 c 2
 402 244 l 2
 402 81 372 -18 224 -18 c 0
 76 -18 47 81 47 244 c 2
161 254 m 2
 161 136 161 64 224 64 c 0
 287 64 288 136 288 254 c 2
 288 1145 l 2
 288 1263 287 1334 224 1334 c 0
 161 1334 161 1263 161 1145 c 2
 161 254 l 2
EndSplineSet
EndChar

StartChar: one
Encoding: 49 49 3
Width: 302
VWidth: 1920
Flags: HMW
LayerCount: 2
Back
SplineSet
58 1374.24902344 m 4
 109.940429688 1376.59082031 139.987304688 1397.43554688 150.745117188 1440 c 4
 152.579101562 1447.2578125 156.3984375 1450 163 1450 c 6
 227 1450 l 6
 234 1450 237 1447 237 1440 c 6
 237 10 l 6
 237 3 234 0 227 0 c 6
 57 0 l 6
 50 0 47 3 47 10 c 6
 47 1364 l 6
 47 1370.734375 49.9912109375 1373.88769531 58 1374.24902344 c 4
EndSplineSet
Fore
SplineSet
120 1388 m 0
 130 1395 140 1398 151 1412 c 0
 158 1420 166 1432 181 1432 c 2
 183 1432 l 2
 198 1432 208 1418 208 1403 c 2
 208 48 l 2
 208 4 181 -15 154 -15 c 2
 148 -15 l 2
 121 -15 94 4 94 48 c 2
 94 1337 l 2
 94 1369 107 1379 120 1388 c 0
EndSplineSet
EndChar

StartChar: two
Encoding: 50 50 4
Width: 418
VWidth: 1920
Flags: HMW
LayerCount: 2
Back
SplineSet
80 60 m 262
 80 604.034179688 435 735.631835938 435 1033 c 262
 435 1078 l 262
 435 1188 422 1285 355 1285 c 260
 295 1285 285 1174.57601869 285 1002 c 262
 285 912 l 6
 285 905 282 902 275 902 c 6
 115 902 l 6
 108 902 105 905 105 912 c 6
 105 1002 l 262
 105 1275.74114594 132 1435 359 1435 c 260
 556 1435 615 1303 615 1073 c 262
 615 1028 l 262
 615 632.094726562 300 501 300 180 c 262
 300 170 l 261
 640 170 l 6
 647 170 650 167 650 160 c 6
 650 10 l 6
 650 3 647 0 640 0 c 6
 90 0 l 6
 83 0 80 3 80 10 c 6
 80 60 l 262
EndSplineSet
Fore
SplineSet
37 118 m 2
 37 485 264 658 264 963 c 2
 264 1141 l 2
 264 1267 261 1329 211 1329 c 0
 165 1329 158 1264 158 1143 c 2
 158 867 l 2
 158 823 143 797 109 797 c 2
 100 797 l 2
 66 797 49 823 49 867 c 2
 49 1139 l 2
 49 1318 79 1417 212 1417 c 0
 344 1417 373 1336 373 1137 c 2
 373 1004 l 2
 373 640 153 464 153 164 c 2
 153 98 l 1
 345 98 l 6
 379 98 405 86 405 52 c 6
 405 45 l 6
 405 11 379 0 345 0 c 6
 42 0 l 2
 38 0 37 1 37 5 c 2
 37 118 l 2
EndSplineSet
EndChar

StartChar: three
Encoding: 51 51 5
Width: 464
VWidth: 1920
Flags: HMW
LayerCount: 2
Back
SplineSet
90 407 m 6
 260 407 l 6
 267 407 270 404 270 397 c 6
 270 327 l 6
 270 207.036515383 301 115 440 115 c 4
 587 115 625 222 625 352 c 6
 625 447 l 6
 625 577 576.918945312 660 430 660 c 6
 350 660 l 6
 343 660 340 663 340 670 c 6
 340 800 l 6
 340 807 343 810 350 810 c 6
 410 810 l 6
 546.885742188 810 570 903 570 1023 c 6
 570 1088 l 6
 570 1198 551 1285 434 1285 c 4
 304 1285 295 1184.8148849 295 1052 c 6
 295 962 l 6
 295 955 292 952 285 952 c 6
 125 952 l 6
 118 952 115 955 115 962 c 6
 115 1052 l 6
 115 1286 192 1435 439 1435 c 4
 686 1435 765 1313 765 1083 c 6
 765 1058 l 6
 765 808 667 720 410 720 c 5
 430 770 l 5
 687 770 815 672 815 422 c 6
 815 347 l 6
 815 107 717 -35 430 -35 c 4
 188 -35 80 99 80 327 c 6
 80 397 l 6
 80 404 83 407 90 407 c 6
EndSplineSet
Fore
SplineSet
93 428 m 2
 96 428 l 2
 130 428 151 401 151 357 c 2
 151 176 l 2
 151 116 165 70 229 70 c 0
 297 70 312 122 312 187 c 2
 312 562 l 2
 312 624 291 664 221 664 c 2
 210 664 l 2
 171 664 161 683 161 707 c 2
 161 709 l 2
 161 733 171 751 210 751 c 2
 211 751 l 2
 276 751 288 794 288 852 c 2
 288 1232 l 2
 288 1288 279 1328 225 1328 c 0
 165 1328 162 1280 162 1216 c 2
 162 1007 l 2
 162 963 142 937 108 937 c 2
 105 937 l 2
 71 937 53 963 53 1007 c 2
 53 1220 l 2
 53 1337 94 1417 228 1417 c 0
 362 1417 404 1349 404 1234 c 2
 404 875 l 2
 404 745 348 700 214 700 c 1
 224 725 l 1
 358 725 427 676 427 545 c 2
 427 185 l 2
 427 59 375 -18 221 -18 c 0
 91 -18 38 55 38 173 c 2
 38 357 l 2
 38 401 59 428 93 428 c 2
EndSplineSet
EndChar

StartChar: four
Encoding: 52 52 6
Width: 461
VWidth: 1920
Flags: HMW
LayerCount: 2
Fore
SplineSet
463 416 m 2
 463 409 l 2
 463 385 447 369 393 369 c 2
 353 369 l 1
 353 55 l 2
 353 11 332 -15 298 -15 c 2
 294 -15 l 2
 260 -15 239 11 239 55 c 2
 239 369 l 1
 88 369 l 2
 44 369 23 390 23 434 c 2
 23 442 l 2
 23 466 28 485 34 508 c 2
 261 1365 l 2
 269 1396 284 1415 308 1415 c 2
 310 1415 l 2
 344 1415 353 1389 353 1355 c 2
 353 456 l 1
 393 456 l 2
 447 456 463 440 463 416 c 2
244 456 m 1
 244 1052 l 1
 98 456 l 1
 244 456 l 1
EndSplineSet
EndChar

StartChar: five
Encoding: 53 53 7
Width: 425
VWidth: 1920
Flags: HMW
LayerCount: 2
Back
SplineSet
57 364 m 6
 151 364 l 6
 154 364 156 363 156 360 c 4
 156 128 163 64 205 64 c 4
 247 64 264 166 264 326 c 6
 264 614 l 6
 264 818 262 848 231 848 c 4
 206 848 192 805 166 646 c 4
 165 641 161 640 158 640 c 6
 67 640 l 6
 63 640 62 642 63 646 c 6
 99 1395 l 6
 100 1398 101 1400 105 1400 c 6
 379 1400 l 6
 383 1400 383 1399 383 1395 c 6
 383 1357 l 6
 383 1319 367 1312 279 1312 c 6
 187 1312 l 5
 153 690 l 5
 145 690 l 5
 152 810 185 937 269 937 c 4
 345 937 378 855 378 603 c 6
 378 305 l 6
 378 77 330 -17 212 -17 c 4
 98 -17 56 51 52 359 c 4
 52 363 53 364 57 364 c 6
EndSplineSet
Fore
SplineSet
102 379 m 2
 106 379 l 2
 139 379 156 363 156 320 c 0
 156 138 163 64 205 64 c 0
 247 64 264 166 264 326 c 2
 264 614 l 2
 264 818 262 848 231 848 c 0
 206 848 199 817 175 696 c 0
 166 652 151 625 118 625 c 2
 107 625 l 2
 73 625 63 662 65 696 c 2
 97 1355 l 2
 99 1388 111 1400 145 1400 c 2
 339 1400 l 2
 373 1400 383 1392 383 1358 c 2
 383 1357 l 2
 383 1319 367 1312 279 1312 c 2
 187 1312 l 1
 153 690 l 1
 145 690 l 1
 152 810 185 937 269 937 c 0
 345 937 378 855 378 603 c 2
 378 305 l 2
 378 77 330 -17 212 -17 c 0
 98 -17 62 51 52 319 c 0
 50 363 68 379 102 379 c 2
EndSplineSet
EndChar

StartChar: six
Encoding: 54 54 8
Width: 486
VWidth: 1920
Flags: HMW
LayerCount: 2
Back
SplineSet
470 740 m 260
 370 740 310 675 310 492 c 262
 310 422 l 261
 250 522 l 261
 250 786 323 890 520 890 c 260
 757 890 819 731 819 457 c 262
 819 407 l 262
 819 129 751 -35 479 -35 c 260
 142 -35 125 167 125 527 c 262
 125 843 l 262
 125 1223 153 1435 450 1435 c 260
 727 1435 764 1265.83496094 764 1082 c 262
 764 1052 l 6
 764 1045 761 1042 754 1042 c 6
 604 1042 l 6
 597 1042 594 1045 594 1052 c 6
 594 1082 l 262
 594 1164.91113281 590 1285 460 1285 c 260
 313 1285 310 1138 310 838 c 262
 310 422 l 262
 310 232 322 115 469 115 c 260
 628 115 629 237 629 417 c 262
 629 457 l 262
 629 640 610 740 470 740 c 260
EndSplineSet
Fore
SplineSet
243 713 m 0
 196 713 169 681 169 588 c 2
 169 554 l 1
 137 602 l 1
 137 734 176 794 276 794 c 0
 397 794 430 712 430 570 c 2
 430 212 l 2
 430 66 392 -18 248 -18 c 0
 74 -18 57 84 57 272 c 2
 57 1121 l 2
 57 1320 88 1417 233 1417 c 0
 379 1417 404 1321 404 1184 c 2
 404 999 l 2
 404 955 387 929 353 929 c 2
 350 929 l 2
 316 929 300 955 300 999 c 2
 300 1182 l 2
 300 1261 298 1328 238 1328 c 0
 179 1328 169 1267 169 1118 c 2
 169 221 l 2
 169 125 174 71 242 71 c 0
 316 71 316 127 316 218 c 2
 316 571 l 2
 316 664 307 713 243 713 c 0
EndSplineSet
EndChar

StartChar: seven
Encoding: 55 55 9
Width: 374
VWidth: 1920
Flags: HMW
LayerCount: 2
Back
SplineSet
375 1395 m 6
 189 5 l 6
 187 1 185 0 181 0 c 6
 83 0 l 6
 79 0 77 2 79 5 c 6
 274 1302 l 5
 39 1302 l 6
 35 1302 35 1303 35 1307 c 6
 35 1395 l 6
 35 1399 35 1400 39 1400 c 6
 371 1400 l 6
 375 1400 377 1398 375 1395 c 6
EndSplineSet
Fore
SplineSet
367 1335 m 2
 196 55 l 2
 189 2 170 -15 136 -15 c 2
 128 -15 l 2
 94 -15 79 3 87 55 c 2
 274 1302 l 1
 79 1302 l 2
 35 1302 20 1316 20 1350 c 2
 20 1352 l 2
 20 1386 35 1400 79 1400 c 2
 311 1400 l 2
 355 1400 373 1378 367 1335 c 2
EndSplineSet
EndChar

StartChar: eight
Encoding: 56 56 10
Width: 469
VWidth: 1920
Flags: HMW
LayerCount: 2
Back
SplineSet
443 110 m 260
 572.859375 110 579 196.100585938 579 342 c 262
 579 427 l 262
 579 574.159179688 573.689453125 659.927734375 443 659.927734375 c 260
 312.310546875 659.927734375 307 574.159179688 307 427 c 262
 307 342 l 262
 307 196.100585938 313.140625 110 443 110 c 260
443 810 m 260
 513.428710938 810 529 887.231445312 529 1023 c 262
 529 1088 l 262
 529 1214.95996094 511.329101562 1290 443 1290 c 260
 374.670898438 1290 357 1214.95996094 357 1088 c 262
 357 1023 l 262
 357 887.231445312 372.571289062 810 443 810 c 260
474 760 m 261
 754.075195312 760 769 623.61328125 769 392 c 262
 769 347 l 262
 769 99.75 751.090820312 -35 443 -35 c 260
 134.909179688 -35 117 99.75 117 347 c 262
 117 392 l 262
 117 623.61328125 131.924804688 760 412 760 c 261
 414 720.282226562 l 261
 187.81640625 725.765625 167 837.047851562 167 1058 c 262
 167 1083 l 262
 167 1304.25878906 175.2265625 1435 443 1435 c 260
 710.7734375 1435 719 1304.25878906 719 1083 c 262
 719 1058 l 262
 719 837.047851562 698.18359375 725.765625 472 720.282226562 c 261
 474 760 l 261
EndSplineSet
Fore
SplineSet
234 68 m 0
 295 68 298 108 298 177 c 2
 298 556 l 2
 298 626 295 665 234 665 c 0
 173 665 170 626 170 556 c 2
 170 177 l 2
 170 108 173 68 234 68 c 0
234 752 m 0
 268 752 289 789 289 852 c 2
 289 1238 l 2
 289 1296 267 1332 234 1332 c 0
 201 1332 180 1296 180 1238 c 2
 180 852 l 2
 180 789 200 752 234 752 c 0
250 721 m 1
 399 721 412 651 412 531 c 2
 412 180 l 2
 412 52 397 -18 234 -18 c 0
 74 -18 56 52 56 180 c 2
 56 531 l 2
 56 651 73 721 219 721 c 1
 220 701 l 1
 98 704 65 763 65 879 c 2
 65 1232 l 2
 65 1349 94 1417 234 1417 c 0
 377 1417 402 1349 402 1232 c 2
 402 879 l 2
 402 763 374 704 249 701 c 1
 250 721 l 1
EndSplineSet
EndChar

StartChar: nine
Encoding: 57 57 11
Width: 469
VWidth: 1920
Flags: HMW
LayerCount: 2
Back
SplineSet
235 686 m 4
 273 686 300 718 300 811 c 6
 300 845 l 5
 332 797 l 5
 332 665 294 605 202 605 c 4
 81 605 57 688 57 830 c 6
 57 1187 l 6
 57 1333 86 1417 230 1417 c 4
 404 1417 412 1315 412 1127 c 6
 412 278 l 6
 412 79 381 -18 236 -18 c 4
 90 -18 65 78 65 215 c 6
 65 450 l 6
 65 454 66 455 70 455 c 6
 163 455 l 6
 167 455 168 454 168 450 c 6
 168 217 l 6
 168 138 170 71 231 71 c 4
 291 71 300 132 300 281 c 6
 300 1178 l 6
 300 1274 295 1328 236 1328 c 4
 171 1328 171 1272 171 1181 c 6
 171 828 l 6
 171 735 179 686 235 686 c 4
EndSplineSet
Fore
SplineSet
235 686 m 0
 273 686 300 718 300 811 c 2
 300 845 l 1
 332 797 l 1
 332 665 294 605 202 605 c 0
 81 605 57 688 57 830 c 2
 57 1187 l 2
 57 1333 86 1417 230 1417 c 0
 404 1417 412 1315 412 1127 c 2
 412 278 l 2
 412 79 381 -18 236 -18 c 0
 90 -18 65 78 65 215 c 2
 65 390 l 6
 65 444 81 470 115 470 c 2
 118 470 l 2
 152 470 168 444 168 390 c 6
 168 217 l 2
 168 138 170 71 231 71 c 0
 291 71 300 132 300 281 c 2
 300 1178 l 2
 300 1274 295 1328 236 1328 c 0
 171 1328 171 1272 171 1181 c 2
 171 828 l 2
 171 735 179 686 235 686 c 0
EndSplineSet
EndChar

StartChar: A
Encoding: 65 65 12
Width: 455
VWidth: 960
Flags: HMW
AnchorPoint: "ogonek" 375 0 basechar 0
AnchorPoint: "bottom" 222 0 basechar 0
AnchorPoint: "top" 222 1400 basechar 0
LayerCount: 2
Back
SplineSet
110 498 m 5
 325 498 l 5
 325 417 l 5
 110 417 l 5
 110 498 l 5
215 1250 m 5
 117 5 l 6
 116 2 74 -15 70 -15 c 6
 61 -15 l 6
 57 -15 17 2 18 5 c 6
 150 1395 l 6
 151 1398 152 1400 156 1400 c 6
 290 1400 l 6
 294 1400 295 1398 296 1395 c 6
 438 5 l 6
 439 2 399 -15 395 -15 c 6
 365 -15 l 6
 361 -15 319 1 318 5 c 6
 215 1250 l 5
EndSplineSet
Fore
SplineSet
110 498 m 5
 325 498 l 5
 325 417 l 5
 110 417 l 5
 110 498 l 5
215 1250 m 5
 122 55 l 6
 118 2 94 -15 70 -15 c 6
 66 -15 l 6
 42 -15 19 12 23 55 c 6
 145 1345 l 6
 149 1388 162 1415 196 1415 c 6
 250 1415 l 6
 284 1415 297 1388 301 1345 c 6
 433 55 l 6
 437 12 419 -15 385 -15 c 6
 375 -15 l 6
 341 -15 317 11 313 55 c 6
 215 1250 l 5
EndSplineSet
EndChar

StartChar: B
Encoding: 66 66 13
Width: 486
VWidth: 960
Flags: HMW
AnchorPoint: "top" 232 1400 basechar 0
AnchorPoint: "bottom" 232 0 basechar 0
LayerCount: 2
Back
SplineSet
192 748 m 5
 244 748 l 6
 289 748 311 801 311 933 c 6
 311 1133 l 6
 311 1265 290 1312 244 1312 c 6
 192 1312 l 5
 192 748 l 5
261 725 m 5
 354 725 448 673 448 478 c 6
 448 250 l 6
 448 49 381 0 262 0 c 6
 84 0 l 6
 80 0 79 1 79 5 c 6
 79 1395 l 6
 79 1399 80 1400 84 1400 c 6
 252 1400 l 6
 371 1400 427 1342 427 1156 c 6
 427 942 l 6
 427 756 344 700 251 700 c 5
 261 725 l 5
249 667 m 6
 192 667 l 5
 192 88 l 5
 249 88 l 6
 316 88 330 136 330 272 c 6
 330 477 l 6
 330 622 317 667 249 667 c 6
EndSplineSet
Fore
SplineSet
192 748 m 1
 244 748 l 2
 289 748 311 801 311 933 c 2
 311 1133 l 2
 311 1265 290 1312 244 1312 c 2
 192 1312 l 1
 192 748 l 1
261 725 m 1
 354 725 448 673 448 478 c 2
 448 250 l 2
 448 49 381 0 262 0 c 2
 134 0 l 2
 90 0 79 11 79 55 c 2
 79 1345 l 2
 79 1389 90 1400 134 1400 c 2
 252 1400 l 2
 371 1400 427 1342 427 1156 c 2
 427 942 l 2
 427 756 344 700 251 700 c 1
 261 725 l 1
249 667 m 2
 192 667 l 1
 192 88 l 1
 249 88 l 2
 316 88 330 136 330 272 c 2
 330 477 l 2
 330 622 317 667 249 667 c 2
EndSplineSet
EndChar

StartChar: C
Encoding: 67 67 14
Width: 500
VWidth: 960
Flags: HMW
AnchorPoint: "top" 252 1400 basechar 0
AnchorPoint: "bottom" 232 0 basechar 0
LayerCount: 2
Back
SplineSet
449 603 m 4
 449 522 448 429 447 332 c 4
 445 96 389 -18 238 -18 c 4
 66 -18 47 127 47 358 c 6
 47 1042 l 6
 47 1290 92 1418 244 1418 c 4
 394 1418 440 1293 442 1052 c 4
 443 995 443 924 443 866 c 4
 443 862 442 862 438 862 c 6
 351 862 l 6
 347 862 346 862 346 866 c 4
 345 1216 328 1323 255 1323 c 4
 182 1323 166 1231 166 1046 c 6
 166 349 l 6
 166 183 172 77 246 77 c 4
 322 77 350 144 351 603 c 4
 351 607 352 608 356 608 c 6
 444 608 l 6
 448 608 449 607 449 603 c 4
EndSplineSet
Fore
SplineSet
449 563 m 4
 449 482 448 429 447 332 c 4
 445 96 389 -18 238 -18 c 4
 66 -18 47 127 47 358 c 6
 47 1042 l 6
 47 1290 92 1418 244 1418 c 4
 394 1418 440 1293 442 1052 c 4
 443 995 443 964 443 906 c 4
 443 872 432 847 398 847 c 6
 391 847 l 6
 357 847 347 872 346 906 c 4
 341 1226 328 1323 255 1323 c 4
 182 1323 166 1231 166 1046 c 6
 166 349 l 6
 166 183 172 77 246 77 c 4
 322 77 351 144 351 563 c 4
 351 607 372 623 396 623 c 6
 404 623 l 6
 428 623 449 607 449 563 c 4
EndSplineSet
EndChar

StartChar: D
Encoding: 68 68 15
Width: 506
VWidth: 960
Flags: HMW
AnchorPoint: "top" 227 1400 basechar 0
AnchorPoint: "bottom" 212 0 basechar 0
LayerCount: 2
Fore
SplineSet
230 0 m 2
 134 0 l 6
 90 0 79 11 79 55 c 6
 79 1345 l 2
 79 1389 90 1400 134 1400 c 2
 230 1400 l 2
 406 1400 459 1276 459 1018 c 2
 459 374 l 2
 459 116 426 0 230 0 c 2
232 88 m 2
 316 88 341 163 341 369 c 2
 341 1022 l 2
 341 1228 316 1312 232 1312 c 2
 192 1312 l 1
 192 88 l 1
 232 88 l 2
EndSplineSet
EndChar

StartChar: E
Encoding: 69 69 16
Width: 440
VWidth: 960
Flags: HMW
AnchorPoint: "ogonek" 350 0 basechar 0
AnchorPoint: "top" 242 1400 basechar 0
AnchorPoint: "bottom" 242 0 basechar 0
LayerCount: 2
Fore
SplineSet
192 748 m 1
 278 748 l 2
 312 748 328 732 328 708 c 2
 328 707 l 2
 328 683 312 667 278 667 c 2
 192 667 l 1
 192 88 l 1
 351 88 l 2
 395 88 411 79 411 45 c 2
 411 43 l 2
 411 9 395 0 351 0 c 2
 134 0 l 2
 90 0 79 11 79 55 c 2
 79 1345 l 2
 79 1389 90 1400 134 1400 c 2
 341 1400 l 2
 385 1400 401 1384 401 1360 c 2
 401 1357 l 2
 401 1333 385 1312 341 1312 c 2
 192 1312 l 1
 192 748 l 1
EndSplineSet
EndChar

StartChar: F
Encoding: 70 70 17
Width: 395
VWidth: 960
Flags: HMW
AnchorPoint: "top" 222 1400 basechar 0
AnchorPoint: "bottom" 222 0 basechar 0
LayerCount: 2
Fore
SplineSet
192 749 m 1
 283 749 l 2
 317 749 333 734 333 710 c 2
 333 708 l 2
 333 684 317 668 283 668 c 2
 192 668 l 1
 192 55 l 2
 192 21 172 -15 138 -15 c 2
 134 -15 l 2
 100 -15 79 21 79 55 c 2
 79 1345 l 2
 79 1389 90 1400 134 1400 c 2
 320 1400 l 2
 364 1400 380 1384 380 1360 c 2
 380 1353 l 2
 380 1329 364 1312 320 1312 c 2
 192 1312 l 1
 192 749 l 1
EndSplineSet
EndChar

StartChar: G
Encoding: 71 71 18
Width: 503
VWidth: 960
Flags: HMW
AnchorPoint: "top" 257 1400 basechar 0
AnchorPoint: "bottom" 258 0 basechar 0
LayerCount: 2
Back
SplineSet
279 614 m 6
 279 682 l 6
 279 686 280 687 284 687 c 6
 447 687 l 6
 451 687 452 686 452 682 c 6
 452 5 l 6
 452 1 451 0 447 0 c 6
 393 0 l 6
 389 0 388 1 387 5 c 6
 361 228 l 5
 386 639 l 5
 376 175 385 -18 220 -18 c 4
 64 -18 47 93 47 383 c 6
 47 1018 l 6
 47 1273 74 1418 244 1418 c 4
 397 1418 431 1308 432 1120 c 4
 432 1040 432 948 434 867 c 4
 434 863 433 863 429 863 c 6
 344 863 l 6
 340 863 339 863 339 867 c 4
 335 1253 330 1333 249 1333 c 4
 169 1333 166 1216 166 1022 c 6
 166 378 l 6
 166 150 178 67 248 67 c 4
 316 67 342 183 354 637 c 5
 367 608 l 5
 284 608 l 6
 280 608 279 610 279 614 c 6
EndSplineSet
Fore
SplineSet
264 644 m 2
 264 652 l 2
 264 676 280 687 324 687 c 2
 397 687 l 2
 441 687 452 676 452 632 c 2
 452 45 l 2
 452 11 446 -15 422 -15 c 2
 418 -15 l 2
 394 -15 386 11 382 45 c 2
 361 228 l 1
 386 639 l 1
 376 175 385 -18 220 -18 c 0
 64 -18 47 93 47 383 c 2
 47 1018 l 2
 47 1273 74 1418 244 1418 c 0
 397 1418 431 1308 432 1120 c 0
 432 1040 434 978 434 897 c 0
 434 863 413 848 389 848 c 2
 384 848 l 2
 360 848 339 863 339 897 c 0
 339 1283 330 1333 249 1333 c 0
 169 1333 166 1216 166 1022 c 2
 166 378 l 2
 166 150 178 67 248 67 c 0
 316 67 342 183 354 637 c 1
 367 608 l 1
 324 608 l 2
 280 608 264 620 264 644 c 2
EndSplineSet
EndChar

StartChar: H
Encoding: 72 72 19
Width: 505
VWidth: 960
Flags: HMW
AnchorPoint: "top" 247 1400 basechar 0
AnchorPoint: "bottom" 248 0 basechar 0
LayerCount: 2
Fore
SplineSet
376 1415 m 2
 380 1415 l 2
 414 1415 435 1389 435 1345 c 2
 435 55 l 2
 435 11 414 -15 380 -15 c 2
 376 -15 l 2
 342 -15 321 11 321 55 c 2
 321 664 l 1
 184 664 l 1
 184 55 l 2
 184 11 163 -15 129 -15 c 2
 125 -15 l 2
 91 -15 70 11 70 55 c 2
 70 1345 l 18
 70 1389 91 1415 125 1415 c 10
 129 1415 l 18
 163 1415 184 1389 184 1345 c 10
 184 751 l 1
 321 751 l 1
 321 1345 l 2
 321 1389 342 1415 376 1415 c 2
EndSplineSet
EndChar

StartChar: I
Encoding: 73 73 20
Width: 280
VWidth: 960
Flags: HMW
AnchorPoint: "ogonek" 140 0 basechar 0
AnchorPoint: "top" 140 1400 basechar 0
AnchorPoint: "bottom" 140 0 basechar 0
LayerCount: 2
Fore
SplineSet
138 1415 m 10
 142 1415 l 18
 176 1415 197 1389 197 1345 c 10
 197 55 l 18
 197 11 176 -15 142 -15 c 10
 138 -15 l 18
 104 -15 83 11 83 55 c 10
 83 1345 l 18
 83 1389 104 1415 138 1415 c 10
EndSplineSet
EndChar

StartChar: J
Encoding: 74 74 21
Width: 408
VWidth: 960
Flags: HMW
AnchorPoint: "top" 264 1400 basechar 0
AnchorPoint: "bottom" 165 0 basechar 0
LayerCount: 2
Fore
SplineSet
260 1415 m 2
 269 1415 l 2
 303 1415 325 1389 325 1345 c 2
 325 269 l 2
 325 59 293 -18 164 -18 c 0
 52 -18 24 59 24 239 c 2
 24 607 l 2
 24 651 36 678 70 678 c 2
 76 678 l 2
 110 678 122 651 122 607 c 2
 122 244 l 2
 122 100 133 74 163 74 c 0
 197 74 206 96 206 254 c 2
 206 1345 l 2
 206 1389 226 1415 260 1415 c 2
EndSplineSet
EndChar

StartChar: K
Encoding: 75 75 22
Width: 463
VWidth: 960
Flags: HMW
AnchorPoint: "top" 252 1400 basechar 0
AnchorPoint: "bottom" 252 0 basechar 0
LayerCount: 2
Back
SplineSet
75 1400 m 14
 179 1400 l 22
 183 1400 184 1399 184 1395 c 14
 184 5 l 22
 184 1 183 0 179 0 c 14
 75 0 l 22
 71 0 70 1 70 5 c 14
 70 1395 l 22
 70 1399 71 1400 75 1400 c 14
199 746 m 5
 280 824 l 5
 456 5 l 6
 459 1 459 0 455 0 c 6
 338 0 l 6
 334 0 332 1 329 5 c 6
 199 746 l 5
352 1395 m 6
 355 1397 357 1400 362 1400 c 6
 446 1400 l 6
 452 1400 453 1399 449 1395 c 6
 245 660 l 5
 227 690 l 5
 168 463 l 5
 124 518 l 5
 352 1395 l 6
EndSplineSet
Fore
SplineSet
125 1415 m 10
 129 1415 l 18
 163 1415 184 1389 184 1345 c 10
 184 55 l 18
 184 11 163 -15 129 -15 c 10
 125 -15 l 18
 91 -15 70 11 70 55 c 10
 70 1345 l 18
 70 1389 91 1415 125 1415 c 10
199 746 m 1
 280 824 l 1
 445 55 l 2
 454 12 444 -15 400 -15 c 2
 398 -15 l 2
 354 -15 328 12 320 55 c 2
 199 746 l 1
339 1345 m 2
 349 1385 361 1415 396 1415 c 2
 400 1415 l 2
 436 1415 448 1387 436 1345 c 2
 245 660 l 1
 227 690 l 1
 168 463 l 1
 124 518 l 1
 339 1345 l 2
EndSplineSet
EndChar

StartChar: L
Encoding: 76 76 23
Width: 349
VWidth: 960
Flags: HMW
AnchorPoint: "top" 132 1400 basechar 0
AnchorPoint: "bottom" 212 0 basechar 0
LayerCount: 2
Fore
SplineSet
125 1415 m 2
 129 1415 l 2
 173 1415 184 1389 184 1345 c 2
 184 88 l 25
 265 88 l 2
 309 88 335 81 335 47 c 2
 335 40 l 2
 335 6 309 0 265 0 c 2
 135 0 l 2
 81 0 70 11 70 65 c 2
 70 1345 l 2
 70 1389 81 1415 125 1415 c 2
EndSplineSet
EndChar

StartChar: M
Encoding: 77 77 24
Width: 627
VWidth: 960
Flags: HMW
AnchorPoint: "top" 307 1400 basechar 0
AnchorPoint: "bottom" 307 0 basechar 0
LayerCount: 2
Back
SplineSet
156 1137 m 5
 156 5 l 6
 156 1 155 0 151 0 c 6
 74 0 l 6
 70 0 69 1 69 5 c 6
 69 1395 l 6
 69 1399 70 1415 74 1415 c 6
 211 1415 l 6
 215 1415 217 1399 218 1395 c 6
 317 396 l 5
 417 1395 l 6
 418 1399 420 1415 424 1415 c 6
 552 1415 l 6
 556 1415 558 1399 558 1395 c 6
 558 5 l 6
 558 1 556 0 552 0 c 6
 459 0 l 6
 455 0 454 1 454 5 c 6
 454 1149 l 5
 337 5 l 6
 336 1 334 0 330 0 c 6
 288 0 l 6
 284 0 282 1 281 5 c 6
 156 1137 l 5
EndSplineSet
Fore
SplineSet
156 1137 m 5
 156 55 l 6
 156 11 140 -15 116 -15 c 6
 109 -15 l 6
 85 -15 69 11 69 55 c 6
 69 1325 l 6
 69 1379 90 1415 144 1415 c 6
 151 1415 l 6
 205 1415 219 1389 224 1335 c 6
 317 396 l 5
 411 1335 l 6
 417 1398 440 1415 484 1415 c 6
 492 1415 l 6
 546 1415 558 1389 558 1325 c 6
 558 55 l 6
 558 11 541 -15 507 -15 c 6
 504 -15 l 6
 470 -15 454 11 454 55 c 6
 454 1149 l 5
 340 35 l 6
 337 3 328 -15 310 -15 c 6
 308 -15 l 6
 290 -15 282 3 278 35 c 6
 156 1137 l 5
EndSplineSet
EndChar

StartChar: N
Encoding: 78 78 25
Width: 502
VWidth: 960
Flags: HMW
AnchorPoint: "top" 267 1400 basechar 0
AnchorPoint: "bottom" 262 0 basechar 0
LayerCount: 2
Fore
SplineSet
381 1415 m 6
 389 1415 l 6
 413 1415 434 1389 434 1345 c 6
 434 55 l 6
 434 11 423 -15 399 -15 c 6
 398 -15 l 6
 374 -15 359 12 351 55 c 6
 146 1174 l 5
 166 1174 l 5
 166 55 l 6
 166 11 155 -15 121 -15 c 6
 114 -15 l 6
 80 -15 69 11 69 55 c 6
 69 1345 l 6
 69 1389 95 1415 129 1415 c 6
 134 1415 l 6
 168 1415 195 1388 202 1345 c 6
 356 443 l 5
 336 443 l 5
 336 1345 l 6
 336 1389 357 1415 381 1415 c 6
EndSplineSet
EndChar

StartChar: O
Encoding: 79 79 26
Width: 502
VWidth: 960
Flags: HMW
AnchorPoint: "top" 252 1400 basechar 0
AnchorPoint: "bottom" 252 0 basechar 0
LayerCount: 2
Fore
SplineSet
47 315 m 6
 47 1086 l 6
 47 1323 99 1418 251 1418 c 4
 404 1418 456 1322 456 1086 c 6
 456 315 l 6
 456 79 403 -18 251 -18 c 4
 99 -18 47 78 47 315 c 6
166 299 m 6
 166 114 191 64 251 64 c 4
 312 64 337 115 337 299 c 6
 337 1101 l 6
 337 1285 312 1336 251 1336 c 4
 191 1336 166 1286 166 1101 c 6
 166 299 l 6
EndSplineSet
EndChar

StartChar: P
Encoding: 80 80 27
Width: 456
VWidth: 960
Flags: HMW
AnchorPoint: "top" 222 1400 basechar 0
AnchorPoint: "bottom" 148 0 basechar 0
LayerCount: 2
Back
SplineSet
192 1312 m 5
 192 699 l 5
 216 699 l 6
 273 699 294 740 294 851 c 6
 294 1160 l 6
 294 1271 273 1312 216 1312 c 6
 192 1312 l 5
206 1400 m 6
 336 1400 408 1347 408 1145 c 6
 408 872 l 6
 408 670 332 618 206 618 c 6
 192 618 l 5
 192 5 l 6
 192 1 192 0 188 0 c 6
 84 0 l 6
 80 0 79 1 79 5 c 6
 79 1395 l 6
 79 1399 80 1400 84 1400 c 6
 206 1400 l 6
EndSplineSet
Fore
SplineSet
192 1312 m 1
 192 699 l 1
 216 699 l 2
 273 699 294 740 294 851 c 2
 294 1160 l 2
 294 1271 273 1312 216 1312 c 2
 192 1312 l 1
206 1400 m 2
 336 1400 408 1347 408 1145 c 2
 408 872 l 2
 408 670 332 618 206 618 c 2
 192 618 l 1
 192 55 l 2
 192 11 182 -15 138 -15 c 2
 134 -15 l 2
 90 -15 79 11 79 55 c 2
 79 1335 l 2
 79 1389 90 1400 144 1400 c 2
 206 1400 l 2
EndSplineSet
EndChar

StartChar: Q
Encoding: 81 81 28
Width: 608
VWidth: 960
Flags: HMW
AnchorPoint: "top" 272 1400 basechar 0
AnchorPoint: "bottom" 272 0 basechar 0
LayerCount: 2
Fore
SplineSet
590 51 m 2
 590 49 l 2
 590 15 575 -6 540 -9 c 0
 458 -17 402 46 402 179 c 1
 458 294 l 1
 458 119 425 -18 263 -18 c 0
 90 -18 64 120 64 295 c 2
 64 1105 l 2
 64 1280 94 1418 277 1418 c 0
 460 1418 491 1280 491 1105 c 2
 491 188 l 2
 491 118 515 88 549 88 c 0
 575 88 590 74 590 51 c 2
372 277 m 2
 372 1124 l 2
 372 1250 358 1336 277 1336 c 0
 196 1336 183 1250 183 1124 c 2
 183 277 l 2
 183 150 196 64 277 64 c 0
 358 64 372 150 372 277 c 2
EndSplineSet
EndChar

StartChar: R
Encoding: 82 82 29
Width: 507
VWidth: 960
Flags: HMW
AnchorPoint: "top" 237 1400 basechar 0
AnchorPoint: "bottom" 238 0 basechar 0
LayerCount: 2
Fore
SplineSet
192 1312 m 5
 192 742 l 5
 230 742 l 6
 290 742 312 784 312 895 c 6
 312 1159 l 6
 312 1269 290 1312 230 1312 c 6
 192 1312 l 5
231 1400 m 6
 368 1400 430 1327 430 1150 c 6
 430 923 l 6
 430 744 355 684 231 684 c 5
 231 714 l 5
 357 714 426 678 426 549 c 6
 426 225 l 262
 426 160 436 87 454 54 c 4
 462 40 465 28 465 21 c 6
 465 18 l 6
 465 -3 444 -15 417 -15 c 6
 412 -15 l 6
 382 -15 357 2 346 24 c 4
 319 75 312 175 312 225 c 262
 312 571 l 6
 312 629 297 661 229 661 c 6
 192 661 l 5
 192 55 l 6
 192 11 182 -15 138 -15 c 6
 134 -15 l 6
 90 -15 79 11 79 55 c 6
 79 1325 l 6
 79 1379 90 1400 154 1400 c 6
 231 1400 l 6
EndSplineSet
EndChar

StartChar: S
Encoding: 83 83 30
Width: 446
VWidth: 960
Flags: HMW
AnchorPoint: "top" 222 1400 basechar 0
AnchorPoint: "bottom" 232 0 basechar 0
LayerCount: 2
Back
SplineSet
50 524 m 6
 138 524 l 6
 139 524 143 524 143 520 c 4
 143 436 144 343 144 261 c 4
 144 101 171 72 216 72 c 4
 258 72 301 117 301 293 c 4
 301 439 233 573 181 686 c 4
 117 825 63 958 63 1160 c 4
 63 1361 124 1418 230 1418 c 4
 331 1418 388 1360 388 1150 c 6
 388 906 l 6
 388 902 385 902 382 902 c 6
 296 902 l 6
 293 902 291 903 291 906 c 4
 291 990 291 1063 291 1145 c 4
 291 1311 269 1334 234 1334 c 4
 199 1334 172 1299 172 1162 c 4
 172 999 217 875 280 744 c 4
 337 626 411 481 411 296 c 4
 411 64 339 -18 219 -18 c 4
 102 -18 46 46 46 235 c 6
 46 520 l 6
 46 524 49 524 50 524 c 6
EndSplineSet
Fore
SplineSet
90 539 m 2
 98 539 l 2
 129 539 143 514 143 470 c 0
 143 416 144 343 144 261 c 0
 144 101 171 72 216 72 c 0
 258 72 301 117 301 293 c 0
 301 439 233 573 181 686 c 0
 117 825 63 958 63 1160 c 0
 63 1361 124 1418 230 1418 c 0
 331 1418 388 1360 388 1150 c 2
 388 956 l 2
 388 912 375 887 342 887 c 2
 336 887 l 2
 303 887 291 913 291 956 c 0
 291 1020 291 1063 291 1145 c 0
 291 1311 269 1334 234 1334 c 0
 199 1334 172 1299 172 1162 c 0
 172 999 217 875 280 744 c 0
 337 626 411 481 411 296 c 0
 411 64 339 -18 219 -18 c 0
 102 -18 46 46 46 235 c 2
 46 470 l 2
 46 514 59 539 90 539 c 2
EndSplineSet
EndChar

StartChar: T
Encoding: 84 84 31
Width: 405
VWidth: 960
Flags: HMW
AnchorPoint: "top" 202 1400 basechar 0
AnchorPoint: "bottom" 162 0 basechar 0
LayerCount: 2
Fore
SplineSet
72 1400 m 2
 332 1400 l 2
 386 1400 403 1394 403 1360 c 2
 403 1353 l 2
 403 1319 386 1312 332 1312 c 2
 259 1312 l 1
 259 55 l 2
 259 11 248 -15 204 -15 c 2
 201 -15 l 2
 157 -15 146 11 146 55 c 2
 146 1312 l 1
 72 1312 l 2
 18 1312 3 1319 3 1353 c 2
 3 1360 l 2
 3 1394 18 1400 72 1400 c 2
EndSplineSet
EndChar

StartChar: U
Encoding: 85 85 32
Width: 501
VWidth: 960
Flags: HMW
AnchorPoint: "ogonek" 310 0 basechar 0
AnchorPoint: "top" 262 1400 basechar 0
AnchorPoint: "bottom" 262 0 basechar 0
LayerCount: 2
Back
SplineSet
328 219 m 6
 328 1395 l 6
 328 1399 329 1400 333 1400 c 6
 420 1400 l 6
 424 1400 426 1399 426 1395 c 6
 426 246 l 6
 426 86 413 -18 260 -18 c 4
 122 -18 76 55 76 250 c 6
 76 1395 l 6
 76 1399 76 1400 80 1400 c 6
 189 1400 l 6
 193 1400 194 1399 194 1395 c 6
 194 232 l 6
 194 104 214 64 264 64 c 4
 318 64 328 113 328 219 c 6
EndSplineSet
Fore
SplineSet
328 219 m 2
 328 1345 l 2
 328 1389 339 1415 373 1415 c 2
 380 1415 l 2
 414 1415 426 1389 426 1345 c 2
 426 246 l 2
 426 86 413 -18 260 -18 c 0
 122 -18 76 55 76 250 c 2
 76 1345 l 2
 76 1389 86 1415 130 1415 c 2
 139 1415 l 2
 183 1415 194 1389 194 1345 c 2
 194 232 l 2
 194 104 214 64 264 64 c 0
 318 64 328 113 328 219 c 2
EndSplineSet
EndChar

StartChar: V
Encoding: 86 86 33
Width: 454
VWidth: 960
Flags: HMW
AnchorPoint: "top" 227 1400 basechar 0
AnchorPoint: "bottom" 228 0 basechar 0
LayerCount: 2
Fore
SplineSet
236 150 m 1
 329 1345 l 2
 333 1398 357 1415 381 1415 c 2
 385 1415 l 2
 409 1415 432 1388 428 1345 c 2
 306 55 l 2
 302 12 289 -15 255 -15 c 2
 201 -15 l 2
 167 -15 154 12 150 55 c 2
 18 1345 l 2
 14 1388 32 1415 66 1415 c 2
 76 1415 l 2
 110 1415 134 1389 138 1345 c 2
 236 150 l 1
EndSplineSet
EndChar

StartChar: W
Encoding: 87 87 34
Width: 714
VWidth: 960
InSpiro: 1
Flags: HMW
AnchorPoint: "top" 372 1400 basechar 0
AnchorPoint: "bottom" 372 0 basechar 0
LayerCount: 2
Back
SplineSet
230 180 m 5
 327 1395 l 6
 328 1398 329 1400 333 1400 c 6
 424 1400 l 6
 428 1400 429 1398 430 1395 c 6
 520 171 l 5
 615 1395 l 6
 616 1398 618 1400 622 1400 c 6
 705 1400 l 6
 709 1400 709 1398 708 1395 c 6
 583 5 l 6
 582 1 580 0 576 0 c 6
 444 0 l 6
 441 0 438 1 437 5 c 6
 364 1036 l 5
 283 5 l 6
 282 1 280 0 276 0 c 6
 146 0 l 6
 142 0 140 1 139 5 c 6
 18 1395 l 6
 17 1398 18 1400 22 1400 c 6
 128 1400 l 6
 132 1400 134 1398 135 1395 c 6
 230 180 l 5
EndSplineSet
Fore
SplineSet
230 180 m 1
 323 1345 l 2
 326 1388 339 1415 373 1415 c 2
 384 1415 l 2
 418 1415 431 1388 434 1345 c 2
 520 171 l 1
 611 1345 l 2
 614 1388 628 1415 662 1415 c 2
 665 1415 l 2
 699 1415 708 1388 704 1345 c 2
 587 55 l 2
 583 11 560 -15 516 -15 c 2
 504 -15 l 2
 461 -15 436 11 433 55 c 2
 364 1036 l 1
 287 55 l 2
 284 11 260 -15 216 -15 c 2
 206 -15 l 2
 162 -15 139 11 135 55 c 2
 22 1345 l 2
 18 1388 38 1415 72 1415 c 2
 78 1415 l 2
 112 1415 136 1388 139 1345 c 2
 230 180 l 1
EndSplineSet
EndChar

StartChar: X
Encoding: 88 88 35
Width: 462
VWidth: 960
Flags: HMW
AnchorPoint: "top" 237 1400 basechar 0
AnchorPoint: "bottom" 238 0 basechar 0
LayerCount: 2
Fore
SplineSet
361 1415 m 2
 362 1415 l 2
 406 1415 421 1388 413 1345 c 2
 294 715 l 1
 428 65 l 2
 437 22 417 -15 373 -15 c 2
 371 -15 l 2
 327 -15 306 21 300 65 c 2
 230 602 l 1
 148 65 l 2
 141 22 120 -15 86 -15 c 6
 79 -15 l 6
 45 -15 25 22 35 65 c 2
 176 693 l 1
 50 1335 l 2
 42 1378 65 1415 109 1415 c 2
 110 1415 l 2
 154 1415 171 1379 176 1335 c 2
 238 802 l 1
 302 1345 l 2
 307 1389 317 1415 361 1415 c 2
EndSplineSet
EndChar

StartChar: Y
Encoding: 89 89 36
Width: 465
VWidth: 960
Flags: HMW
AnchorPoint: "top" 232 1400 basechar 0
AnchorPoint: "bottom" 232 0 basechar 0
LayerCount: 2
Back
SplineSet
352 1400 m 6
 444 1400 l 6
 448 1400 448 1399 446 1395 c 6
 290 625 l 5
 290 5 l 6
 290 1 288 0 284 0 c 6
 181 0 l 6
 177 0 176 1 176 5 c 6
 176 625 l 5
 20 1395 l 6
 18 1399 18 1400 22 1400 c 6
 138 1400 l 6
 142 1400 144 1399 146 1395 c 6
 245 717 l 5
 344 1395 l 6
 346 1399 348 1400 352 1400 c 6
EndSplineSet
Fore
SplineSet
393 1415 m 2
 395 1415 l 2
 429 1415 445 1388 436 1345 c 2
 290 625 l 1
 290 55 l 2
 290 11 278 -15 234 -15 c 6
 231 -15 l 6
 187 -15 176 11 176 55 c 2
 176 625 l 1
 30 1345 l 2
 21 1388 51 1415 85 1415 c 2
 86 1415 l 2
 130 1415 147 1388 153 1345 c 2
 245 717 l 1
 337 1345 l 2
 343 1388 359 1415 393 1415 c 2
EndSplineSet
EndChar

StartChar: Z
Encoding: 90 90 37
Width: 403
VWidth: 960
Flags: HMW
AnchorPoint: "top" 217 1400 basechar 0
AnchorPoint: "bottom" 218 0 basechar 0
LayerCount: 2
Back
SplineSet
-15 5 m 6
 258 1312 l 5
 48 1312 l 6
 44 1312 43 1314 43 1318 c 6
 43 1395 l 6
 43 1399 44 1400 48 1400 c 6
 386 1400 l 6
 390 1400 390 1399 387 1395 c 6
 116 88 l 5
 367 88 l 6
 371 88 372 86 372 82 c 6
 372 5 l 6
 372 1 371 0 367 0 c 6
 -13 0 l 6
 -17 0 -18 1 -15 5 c 6
EndSplineSet
Fore
SplineSet
6 105 m 2
 258 1312 l 1
 118 1312 l 2
 54 1312 28 1319 28 1353 c 2
 28 1360 l 2
 28 1394 54 1400 118 1400 c 2
 286 1400 l 2
 360 1400 381 1367 366 1295 c 2
 116 88 l 1
 317 88 l 2
 361 88 387 81 387 47 c 2
 387 40 l 2
 387 6 361 0 317 0 c 2
 87 0 l 2
 3 0 -7 43 6 105 c 2
EndSplineSet
EndChar

StartChar: a
Encoding: 97 97 38
Width: 378
VWidth: 960
Flags: HMW
AnchorPoint: "ogonek" 320 0 basechar 0
AnchorPoint: "top" 207 1050 basechar 0
AnchorPoint: "bottom" 203 0 basechar 0
LayerCount: 2
Back
SplineSet
131 248 m 4
 131 112 150 79 178 79 c 4
 208 79 232 165 232 265 c 5
 254 225 l 5
 254 97 219 -18 136 -18 c 4
 62 -18 18 41 18 242 c 4
 18 460 75 525 162 610 c 4
 195 641 232 699 232 743 c 5
 252 663 l 5
 251 632 210 568 191 539 c 4
 150 479 131 417 131 248 c 4
232 105 m 2
 232 862 l 2
 232 940 231 991 196 991 c 0
 160 991 148 919 145 715 c 0
 145 712 143 710 140 710 c 2
 49 710 l 2
 45 710 44 712 44 715 c 0
 47 970 90 1067 210 1067 c 0
 314 1067 341 988 341 831 c 2
 341 104 l 2
 341 57 352 25 370 4 c 0
 372 2 371 0 368 0 c 2
 267 0 l 2
 263 0 261 1 259 3 c 0
 241 24 232 57 232 105 c 2
EndSplineSet
Fore
SplineSet
131 248 m 4
 131 112 150 79 178 79 c 4
 208 79 232 165 232 265 c 5
 254 225 l 5
 254 97 219 -18 136 -18 c 4
 62 -18 18 41 18 242 c 4
 18 460 75 525 162 610 c 4
 195 641 232 699 232 743 c 5
 252 663 l 5
 251 632 210 568 191 539 c 4
 150 479 131 417 131 248 c 4
232 121 m 258
 232 862 l 2
 232 940 231 991 196 991 c 0
 160 991 151 929 146 765 c 0
 145 722 127 695 94 695 c 2
 93 695 l 2
 59 695 41 722 44 765 c 0
 59 980 90 1067 210 1067 c 0
 314 1067 341 988 341 831 c 2
 341 120 l 258
 341 78 347 54 356 35 c 0
 375 -7 339 -15 312 -15 c 2
 310 -15 l 2
 285 -15 259 -3 246 34 c 0
 239 54 232 67 232 121 c 258
EndSplineSet
EndChar

StartChar: b
Encoding: 98 98 39
Width: 441
VWidth: 960
Flags: HMW
LayerCount: 2
Fore
SplineSet
106 1465 m 2
 110 1465 l 2
 154 1465 165 1439 165 1395 c 2
 165 97 l 257
 132 29 l 2
 116 -5 105 -23 80 -23 c 2
 79 -23 l 2
 64 -23 51 -15 51 12 c 2
 51 1395 l 2
 51 1439 62 1465 106 1465 c 2
139 845 m 1
 139 990 181 1067 267 1067 c 0
 357 1067 399 997 399 827 c 2
 399 224 l 2
 399 64 348 -18 252 -18 c 0
 160 -18 114 54 114 182 c 1
 165 195 l 1
 165 94 182 64 223 64 c 0
 268 64 286 112 286 211 c 2
 286 838 l 2
 286 937 268 984 223 984 c 0
 173 984 165 945 165 846 c 1
 139 845 l 1
EndSplineSet
EndChar

StartChar: c
Encoding: 99 99 40
Width: 373
VWidth: 960
Flags: HMW
AnchorPoint: "bottom" 198 0 basechar 0
AnchorPoint: "top" 195 1050 basechar 0
LayerCount: 2
Back
SplineSet
349 390 m 4
 349 320 348 269 346 202 c 4
 342 54 301 -18 194 -18 c 4
 81 -18 38 50 38 224 c 6
 38 827 l 6
 38 984 73 1067 197 1067 c 4
 307 1067 341 994 343 851 c 4
 344 784 345 733 345 661 c 4
 345 659 345 657 341 657 c 6
 271 657 l 6
 267 657 265 658 265 660 c 4
 265 733 262 778 261 843 c 4
 260 942 244 982 204 982 c 4
 162 982 152 938 152 832 c 6
 152 218 l 6
 152 116 167 76 210 76 c 4
 249 76 265 113 268 209 c 4
 270 275 269 317 271 390 c 4
 271 392 272 394 276 394 c 6
 344 394 l 6
 348 394 349 392 349 390 c 4
EndSplineSet
Fore
SplineSet
349 340 m 0
 349 310 348 269 346 202 c 0
 342 54 301 -18 194 -18 c 0
 81 -18 38 50 38 224 c 2
 38 827 l 2
 38 984 73 1067 197 1067 c 0
 307 1067 342 994 343 851 c 0
 344 744 345 783 345 711 c 0
 345 669 340 642 306 642 c 2
 305 642 l 2
 271 642 265 668 265 710 c 0
 265 743 262 778 261 843 c 0
 260 942 244 982 204 982 c 0
 162 982 152 938 152 832 c 2
 152 218 l 2
 152 116 167 76 210 76 c 0
 249 76 265 113 268 209 c 0
 270 275 270 307 271 340 c 0
 272 392 285 409 309 409 c 2
 311 409 l 2
 335 409 349 392 349 340 c 0
EndSplineSet
EndChar

StartChar: d
Encoding: 100 100 41
Width: 441
VWidth: 960
Flags: HMW
LayerCount: 2
Fore
SplineSet
302 203 m 1
 302 58 259 -18 178 -18 c 0
 91 -18 42 54 42 224 c 2
 42 827 l 2
 42 997 91 1067 178 1067 c 0
 259 1067 302 991 302 846 c 1
 275 846 l 1
 275 945 272 984 218 984 c 0
 168 984 155 937 155 838 c 2
 155 211 l 2
 155 112 168 64 218 64 c 0
 272 64 275 105 275 204 c 1
 302 203 l 1
390 1395 m 2
 390 55 l 2
 390 11 378 -15 344 -15 c 2
 343 -15 l 2
 309 -15 283 11 283 55 c 2
 283 110 l 1
 275 126 l 1
 275 1395 l 2
 275 1439 297 1465 331 1465 c 2
 334 1465 l 2
 368 1465 390 1439 390 1395 c 2
EndSplineSet
EndChar

StartChar: e
Encoding: 101 101 42
Width: 407
VWidth: 960
Flags: HMW
AnchorPoint: "ogonek" 232 30 basechar 0
AnchorPoint: "bottom" 204 0 basechar 0
AnchorPoint: "top" 205 1050 basechar 0
LayerCount: 2
Fore
SplineSet
368 360 m 4
 368 324 364 273 362 210 c 4
 356 35 298 -18 200 -18 c 4
 60 -18 38 69 38 230 c 6
 38 821 l 6
 38 977 72 1067 208 1067 c 4
 340 1067 368 971 371 850 c 4
 374 717 375 705 375 565 c 4
 375 513 354 491 300 491 c 6
 109 491 l 5
 109 554 l 5
 264 554 l 5
 262 933 262 994 205 994 c 4
 160 994 151 940 151 841 c 6
 151 209 l 6
 151 103 160 57 204 57 c 4
 253 57 256 117 266 362 c 4
 268 404 273 430 317 430 c 6
 321 430 l 6
 365 430 368 403 368 360 c 4
EndSplineSet
EndChar

StartChar: f
Encoding: 102 102 43
Width: 273
VWidth: 960
Flags: HMW
LayerCount: 2
Back
SplineSet
234 974 m 6
 48 974 l 6
 44 974 43 975 43 979 c 6
 43 1045 l 6
 43 1049 44 1050 48 1050 c 6
 234 1050 l 6
 238 1050 239 1049 239 1045 c 6
 239 979 l 6
 239 975 238 974 234 974 c 6
79 1334 m 6
 79 1440 103 1477 233 1461 c 4
 238 1460 239 1459 239 1455 c 6
 239 1391 l 6
 239 1388 237 1385 231 1387 c 4
 197 1395 191 1378 191 1318 c 6
 191 5 l 6
 191 1 189 0 185 0 c 6
 84 0 l 6
 80 0 79 1 79 5 c 6
 79 1334 l 6
EndSplineSet
Fore
SplineSet
194 974 m 2
 88 974 l 2
 44 974 28 985 28 1009 c 2
 28 1015 l 2
 28 1039 44 1050 88 1050 c 2
 194 1050 l 2
 238 1050 254 1039 254 1015 c 2
 254 1009 l 2
 254 985 238 974 194 974 c 2
79 1334 m 6
 79 1440 106 1469 203 1464 c 4
 238 1462 254 1450 254 1426 c 6
 254 1425 l 6
 254 1392 237 1386 221 1388 c 4
 199 1391 191 1378 191 1318 c 6
 191 55 l 6
 191 11 179 -15 135 -15 c 6
 134 -15 l 6
 90 -15 79 11 79 55 c 6
 79 1334 l 6
EndSplineSet
EndChar

StartChar: g
Encoding: 103 103 44
Width: 376
VWidth: 960
Flags: HMW
AnchorPoint: "top" 135 1075 basechar 0
LayerCount: 2
Fore
SplineSet
383 1225 m 4
 383 1088 285 1017 214 1017 c 5
 198 1036 l 1
 246 1036 267 1075 277 1206 c 0
 280 1249 290 1275 333 1275 c 2
 337 1275 l 6
 378 1275 383 1249 383 1225 c 4
250 82 m 2
 337 82 382 39 382 -114 c 0
 382 -308 304 -360 211 -360 c 2
 168 -360 l 2
 71 -360 3 -304 3 -150 c 0
 3 -17 73 41 161 41 c 1
 182 24 l 1
 138 23 102 -32 102 -120 c 0
 102 -235 132 -282 194 -282 c 2
 198 -282 l 2
 254 -282 283 -241 283 -118 c 0
 283 -22 268 0 228 0 c 2
 193 0 l 2
 115 0 58 43 58 132 c 0
 58 210 111 285 209 285 c 1
 199 256 l 1
 169 256 147 217 147 162 c 0
 147 103 175 82 223 82 c 2
 250 82 l 2
228 446 m 2
 228 860 l 2
 228 937 227 996 193 996 c 0
 152 996 149 934 149 860 c 2
 149 446 l 2
 149 372 152 310 193 310 c 0
 227 310 228 368 228 446 c 2
335 469 m 2
 335 342 306 237 189 237 c 0
 71 237 42 342 42 469 c 2
 42 842 l 2
 42 969 71 1067 189 1067 c 0
 306 1067 335 969 335 842 c 2
 335 469 l 2
EndSplineSet
EndChar

StartChar: h
Encoding: 104 104 45
Width: 426
VWidth: 960
Flags: HMW
AnchorPoint: "bottom" 205 0 basechar 0
AnchorPoint: "top" 311 1050 basechar 0
LayerCount: 2
Fore
SplineSet
116 1465 m 2
 119 1465 l 2
 163 1465 175 1439 175 1395 c 2
 175 55 l 2
 175 11 162 -15 119 -15 c 2
 116 -15 l 2
 72 -15 60 11 60 55 c 2
 60 1395 l 2
 60 1439 72 1465 116 1465 c 2
158 877 m 1
 158 988 179 1067 264 1067 c 0
 342 1067 372 1008 372 901 c 2
 372 55 l 2
 372 11 362 -15 318 -15 c 2
 313 -15 l 2
 269 -15 259 11 259 55 c 2
 259 898 l 2
 259 957 251 990 219 990 c 0
 183 990 175 933 175 828 c 1
 158 877 l 1
EndSplineSet
EndChar

StartChar: i
Encoding: 105 105 46
Width: 233
VWidth: 960
Flags: HMW
AnchorPoint: "bottom" 113 0 basechar 0
AnchorPoint: "ogonek" 113 0 basechar 0
LayerCount: 2
Back
SplineSet
159 1436 m 6
 159 1209 l 6
 159 1205 158 1204 154 1204 c 6
 79 1204 l 6
 75 1204 74 1205 74 1209 c 6
 74 1436 l 6
 74 1440 75 1441 79 1441 c 6
 154 1441 l 6
 158 1441 159 1440 159 1436 c 6
174 1045 m 6
 174 5 l 6
 174 1 173 0 169 0 c 6
 65 0 l 6
 61 0 60 1 60 5 c 6
 60 1045 l 6
 60 1049 61 1050 65 1050 c 6
 169 1050 l 6
 173 1050 174 1049 174 1045 c 6
EndSplineSet
Fore
SplineSet
174 1346 m 2
 174 1299 l 2
 174 1235 153 1204 119 1204 c 2
 114 1204 l 2
 80 1204 59 1235 59 1299 c 2
 59 1346 l 2
 59 1410 80 1441 114 1441 c 2
 119 1441 l 2
 153 1441 174 1410 174 1346 c 2
174 995 m 6
 174 55 l 6
 174 11 163 -15 119 -15 c 6
 115 -15 l 6
 71 -15 60 11 60 55 c 6
 60 995 l 6
 60 1039 71 1065 115 1065 c 6
 119 1065 l 6
 163 1065 174 1039 174 995 c 6
EndSplineSet
EndChar

StartChar: j
Encoding: 106 106 47
Width: 233
VWidth: 960
Flags: HMW
LayerCount: 2
Back
SplineSet
159 1436 m 2
 159 1209 l 2
 159 1205 158 1204 154 1204 c 2
 79 1204 l 2
 75 1204 74 1205 74 1209 c 2
 74 1436 l 2
 74 1440 75 1441 79 1441 c 2
 154 1441 l 2
 158 1441 159 1440 159 1436 c 2
174 -65 m 6
 174 -178 158 -221 -1 -198 c 4
 -5 -197 -6 -196 -6 -192 c 6
 -6 -128 l 6
 -6 -125 -5 -123 -1 -124 c 4
 53 -133 60 -116 60 -52 c 6
 60 1045 l 6
 60 1049 61 1050 65 1050 c 6
 169 1050 l 6
 173 1050 174 1049 174 1045 c 6
 174 -65 l 6
EndSplineSet
Fore
SplineSet
174 1346 m 2
 174 1299 l 2
 174 1235 153 1204 119 1204 c 2
 114 1204 l 2
 80 1204 59 1235 59 1299 c 2
 59 1346 l 2
 59 1410 80 1441 114 1441 c 2
 119 1441 l 2
 153 1441 174 1410 174 1346 c 2
174 -74 m 6
 174 -180 147 -209 50 -204 c 4
 15 -202 -21 -190 -21 -166 c 6
 -21 -165 l 6
 -21 -132 -4 -121 22 -125 c 4
 44 -129 60 -118 60 -58 c 6
 60 995 l 6
 60 1039 73 1065 117 1065 c 6
 118 1065 l 6
 162 1065 174 1039 174 995 c 6
 174 -74 l 6
EndSplineSet
EndChar

StartChar: k
Encoding: 107 107 48
Width: 416
VWidth: 960
Flags: HMW
LayerCount: 2
Back
SplineSet
65 1450 m 6
 169 1450 l 6
 173 1450 174 1449 174 1445 c 6
 174 5 l 6
 174 1 172 0 169 0 c 6
 65 0 l 6
 61 0 60 1 60 5 c 6
 60 1445 l 6
 60 1449 61 1450 65 1450 c 6
132 417 m 5
 297 1045 l 6
 298 1049 301 1050 305 1050 c 6
 403 1050 l 6
 407 1050 409 1050 407 1045 c 6
 163 352 l 5
 132 417 l 5
210 595 m 5
 268 718 l 5
 423 5 l 6
 424 1 424 0 421 0 c 6
 308 0 l 6
 303 0 301 1 300 5 c 6
 210 595 l 5
EndSplineSet
Fore
SplineSet
115 1465 m 6
 119 1465 l 6
 163 1465 174 1439 174 1395 c 6
 174 55 l 6
 174 11 162 -15 119 -15 c 6
 115 -15 l 6
 71 -15 60 11 60 55 c 6
 60 1395 l 6
 60 1439 71 1465 115 1465 c 6
132 417 m 5
 284 995 l 6
 295 1036 301 1065 345 1065 c 6
 348 1065 l 6
 392 1065 403 1036 389 995 c 6
 163 352 l 5
 132 417 l 5
210 595 m 5
 268 718 l 5
 412 55 l 6
 421 13 405 -15 362 -15 c 6
 359 -15 l 6
 314 -15 299 12 292 55 c 6
 210 595 l 5
EndSplineSet
EndChar

StartChar: l
Encoding: 108 108 49
Width: 233
VWidth: 960
Flags: HMW
LayerCount: 2
Fore
SplineSet
115 1465 m 2
 119 1465 l 2
 163 1465 174 1439 174 1395 c 2
 174 55 l 2
 174 11 162 -15 119 -15 c 2
 115 -15 l 2
 71 -15 60 11 60 55 c 2
 60 1395 l 2
 60 1439 71 1465 115 1465 c 2
EndSplineSet
EndChar

StartChar: m
Encoding: 109 109 50
Width: 564
VWidth: 960
Flags: HMW
LayerCount: 2
Back
SplineSet
312 877 m 5
 312 988 336 1067 422 1067 c 4
 500 1067 518 1008 518 901 c 6
 518 5 l 6
 518 1 516 0 512 0 c 6
 410 0 l 6
 406 0 405 1 405 5 c 6
 405 901 l 6
 405 957 397 990 374 990 c 4
 351 990 338 936 338 831 c 5
 312 877 l 5
56 1050 m 6
 154 1050 l 6
 158 1050 159 1049 159 1045 c 6
 159 941 l 5
 164 927 l 5
 164 5 l 6
 164 1 163 0 159 0 c 6
 56 0 l 6
 52 0 51 1 51 5 c 6
 51 1045 l 6
 51 1049 52 1050 56 1050 c 6
148 877 m 5
 148 988 165 1067 245 1067 c 4
 334 1067 338 1008 338 901 c 6
 338 5 l 6
 338 1 337 0 333 0 c 6
 236 0 l 6
 232 0 231 1 231 5 c 6
 231 901 l 6
 231 957 221 990 199 990 c 4
 176 990 164 936 164 831 c 5
 148 877 l 5
EndSplineSet
Fore
SplineSet
312 877 m 1
 312 988 336 1067 422 1067 c 0
 500 1067 518 1008 518 901 c 2
 518 55 l 2
 518 11 506 -15 462 -15 c 6
 460 -15 l 6
 416 -15 405 11 405 55 c 2
 405 901 l 2
 405 957 397 990 374 990 c 0
 351 990 338 936 338 831 c 1
 312 877 l 1
101 1065 m 2
 109 1065 l 2
 153 1065 159 1039 159 995 c 2
 159 941 l 1
 164 927 l 1
 164 55 l 2
 164 11 153 -15 109 -15 c 6
 106 -15 l 6
 62 -15 51 11 51 55 c 2
 51 995 l 2
 51 1039 57 1065 101 1065 c 2
148 877 m 1
 148 988 165 1067 245 1067 c 0
 334 1067 338 1008 338 901 c 2
 338 55 l 2
 338 11 322 -15 288 -15 c 6
 281 -15 l 6
 247 -15 231 11 231 55 c 2
 231 901 l 2
 231 957 221 990 199 990 c 0
 176 990 164 936 164 831 c 1
 148 877 l 1
EndSplineSet
EndChar

StartChar: n
Encoding: 110 110 51
Width: 409
VWidth: 960
Flags: HMW
AnchorPoint: "bottom" 205 0 basechar 0
AnchorPoint: "top" 205 1050 basechar 0
LayerCount: 2
Back
SplineSet
57 1050 m 6
 156 1050 l 6
 160 1050 160 1049 160 1045 c 6
 160 934 l 5
 166 921 l 5
 166 5 l 6
 166 1 164 0 160 0 c 6
 57 0 l 6
 53 0 51 1 51 5 c 6
 51 1045 l 6
 51 1049 53 1050 57 1050 c 6
149 877 m 5
 149 988 170 1067 255 1067 c 4
 333 1067 363 1008 363 901 c 6
 363 5 l 6
 363 1 363 0 359 0 c 6
 254 0 l 6
 250 0 250 1 250 5 c 6
 250 898 l 6
 250 957 242 990 210 990 c 4
 174 990 166 933 166 828 c 5
 149 877 l 5
EndSplineSet
Fore
SplineSet
102 1065 m 6
 111 1065 l 6
 155 1065 160 1039 160 995 c 6
 160 934 l 5
 166 921 l 5
 166 55 l 6
 166 11 154 -15 110 -15 c 6
 107 -15 l 6
 63 -15 51 11 51 55 c 6
 51 995 l 6
 51 1039 58 1065 102 1065 c 6
149 877 m 5
 149 988 170 1067 255 1067 c 4
 333 1067 363 1008 363 901 c 6
 363 55 l 6
 363 11 353 -15 309 -15 c 6
 304 -15 l 6
 260 -15 250 11 250 55 c 6
 250 898 l 6
 250 957 242 990 210 990 c 4
 174 990 166 933 166 828 c 5
 149 877 l 5
EndSplineSet
EndChar

StartChar: o
Encoding: 111 111 52
Width: 418
VWidth: 960
Flags: HMW
AnchorPoint: "top" 207 1050 basechar 0
AnchorPoint: "bottom" 207 0 basechar 0
LayerCount: 2
Fore
SplineSet
38 230 m 6
 38 821 l 6
 38 972 73 1067 209 1067 c 4
 345 1067 381 972 381 821 c 6
 381 230 l 6
 381 79 345 -18 209 -18 c 4
 73 -18 38 79 38 230 c 6
153 209 m 6
 153 118 159 57 209 57 c 4
 259 57 264 118 264 209 c 6
 264 841 l 6
 264 932 259 994 209 994 c 4
 159 994 153 932 153 841 c 6
 153 209 l 6
EndSplineSet
EndChar

StartChar: p
Encoding: 112 112 53
Width: 441
VWidth: 960
Flags: HMW
LayerCount: 2
Fore
SplineSet
139 847 m 1
 139 992 182 1068 263 1068 c 0
 350 1068 399 996 399 826 c 2
 399 223 l 2
 399 53 350 -17 263 -17 c 0
 182 -17 139 59 139 204 c 1
 166 204 l 1
 166 105 169 66 223 66 c 0
 273 66 286 113 286 212 c 2
 286 839 l 2
 286 938 273 986 223 986 c 0
 169 986 166 945 166 846 c 1
 139 847 l 1
51 -305 m 2
 51 995 l 2
 51 1039 63 1065 97 1065 c 2
 98 1065 l 2
 132 1065 158 1039 158 995 c 2
 158 940 l 1
 166 924 l 1
 166 -305 l 2
 166 -349 144 -375 110 -375 c 2
 107 -375 l 2
 73 -375 51 -349 51 -305 c 2
EndSplineSet
EndChar

StartChar: q
Encoding: 113 113 54
Width: 441
VWidth: 960
Flags: HMW
LayerCount: 2
Fore
SplineSet
335 -375 m 6
 331 -375 l 6
 287 -375 276 -349 276 -305 c 6
 276 953 l 257
 309 1021 l 2
 325 1055 336 1073 361 1073 c 2
 362 1073 l 2
 377 1073 390 1065 390 1038 c 2
 390 -305 l 6
 390 -349 379 -375 335 -375 c 6
302 205 m 1
 302 60 260 -17 174 -17 c 0
 84 -17 42 53 42 223 c 2
 42 826 l 2
 42 986 93 1068 189 1068 c 0
 281 1068 327 996 327 868 c 1
 276 855 l 1
 276 956 259 986 218 986 c 0
 173 986 155 938 155 839 c 2
 155 212 l 2
 155 113 173 66 218 66 c 0
 268 66 276 105 276 204 c 1
 302 205 l 1
EndSplineSet
EndChar

StartChar: r
Encoding: 114 114 55
Width: 297
VWidth: 960
Flags: HMW
AnchorPoint: "top" 203 1050 basechar 0
AnchorPoint: "bottom" 127 0 basechar 0
LayerCount: 2
Back
SplineSet
65 1050 m 6
 160 1050 l 6
 164 1050 165 1049 165 1045 c 6
 165 769 l 5
 174 764 l 5
 174 5 l 6
 174 1 173 0 169 0 c 6
 65 0 l 6
 61 0 60 1 60 5 c 6
 60 1045 l 6
 60 1049 61 1050 65 1050 c 6
152 728 m 5
 152 896 163 1070 271 1063 c 4
 277 1063 279 1061 279 1057 c 6
 279 948 l 6
 279 945 277 943 270 943 c 4
 194 943 174 836 174 681 c 5
 152 728 l 5
EndSplineSet
Fore
SplineSet
110 1065 m 2
 115 1065 l 2
 159 1065 165 1039 165 995 c 2
 165 769 l 1
 174 764 l 1
 174 55 l 2
 174 11 163 -15 119 -15 c 2
 115 -15 l 2
 71 -15 60 11 60 55 c 2
 60 995 l 2
 60 1039 66 1065 110 1065 c 2
152 728 m 1
 152 926 177 1063 255 1063 c 0
 282 1063 294 1044 294 1010 c 2
 294 1006 l 2
 294 963 276 947 240 937 c 0
 204 927 174 836 174 681 c 1
 152 728 l 1
EndSplineSet
EndChar

StartChar: s
Encoding: 115 115 56
Width: 368
VWidth: 960
Flags: HMW
AnchorPoint: "top" 180 1050 basechar 0
AnchorPoint: "bottom" 194 0 basechar 0
LayerCount: 2
Back
SplineSet
32 399 m 6
 110 399 l 6
 114 399 116 398 116 394 c 4
 116 340 116 301 117 228 c 4
 119 106 131 70 174 70 c 4
 209 70 230 123 230 219 c 4
 230 433 42 548 42 842 c 4
 42 1024 104 1067 190 1067 c 4
 279 1067 323 998 325 846 c 4
 326 789 327 740 327 666 c 4
 327 662 327 661 323 661 c 6
 246 661 l 6
 242 661 240 663 240 667 c 4
 240 728 239 766 239 827 c 4
 238 942 229 982 192 982 c 4
 165 982 145 952 145 840 c 4
 145 586 337 472 337 228 c 4
 337 72 296 -18 190 -18 c 4
 86 -18 35 39 30 200 c 4
 28 283 28 343 28 395 c 4
 28 399 28 399 32 399 c 6
EndSplineSet
Fore
SplineSet
70 414 m 2
 73 414 l 2
 107 414 116 388 116 344 c 0
 116 290 116 321 117 228 c 4
 118 106 131 70 174 70 c 0
 209 70 230 123 230 219 c 0
 230 433 42 548 42 842 c 0
 42 1024 104 1067 190 1067 c 0
 279 1067 323 998 325 846 c 0
 326 789 327 750 327 716 c 0
 327 672 317 646 283 646 c 2
 281 646 l 2
 247 646 240 673 240 717 c 0
 240 748 239 796 239 827 c 0
 238 942 229 982 192 982 c 0
 165 982 145 952 145 840 c 0
 145 586 337 472 337 228 c 0
 337 72 296 -18 190 -18 c 0
 86 -18 35 39 30 200 c 0
 28 283 28 313 28 345 c 4
 28 389 36 414 70 414 c 2
EndSplineSet
EndChar

StartChar: t
Encoding: 116 116 57
Width: 287
VWidth: 960
Flags: HMW
AnchorPoint: "bottom" 167 0 basechar 0
LayerCount: 2
Back
SplineSet
245 974 m 6
 47 974 l 6
 43 974 42 975 42 979 c 6
 42 1045 l 6
 42 1049 43 1050 47 1050 c 6
 245 1050 l 6
 249 1050 250 1049 250 1045 c 6
 250 979 l 6
 250 975 249 974 245 974 c 6
252 72 m 6
 252 5 l 6
 252 1 252 0 248 -1 c 4
 113 -21 83 22 83 132 c 6
 83 1235 l 6
 83 1239 84 1240 88 1240 c 6
 189 1240 l 6
 193 1240 194 1239 194 1235 c 6
 194 145 l 6
 194 82 208 67 248 76 c 4
 251 77 252 75 252 72 c 6
EndSplineSet
Fore
SplineSet
205 974 m 2
 87 974 l 2
 43 974 27 985 27 1009 c 2
 27 1015 l 2
 27 1039 43 1050 87 1050 c 2
 205 1050 l 2
 249 1050 265 1039 265 1015 c 2
 265 1009 l 2
 265 985 249 974 205 974 c 2
267 42 m 2
 267 40 l 2
 267 6 252 -3 198 -5 c 0
 117 -8 83 22 83 132 c 2
 83 1185 l 2
 83 1229 94 1255 138 1255 c 2
 139 1255 l 2
 183 1255 194 1229 194 1185 c 2
 194 145 l 2
 194 82 209 74 228 74 c 0
 250 74 267 75 267 42 c 2
EndSplineSet
EndChar

StartChar: u
Encoding: 117 117 58
Width: 409
VWidth: 960
Flags: HMW
AnchorPoint: "ogonek" 294 0 basechar 0
AnchorPoint: "bottom" 201 0 basechar 0
AnchorPoint: "top" 201 1050 basechar 0
LayerCount: 2
Fore
SplineSet
307 -15 m 6
 298 -15 l 6
 254 -15 249 11 249 55 c 6
 249 116 l 5
 243 129 l 5
 243 995 l 6
 243 1039 255 1065 299 1065 c 6
 302 1065 l 6
 346 1065 358 1039 358 995 c 6
 358 55 l 6
 358 11 351 -15 307 -15 c 6
260 173 m 1
 260 62 239 -17 154 -17 c 0
 76 -17 46 42 46 149 c 2
 46 995 l 2
 46 1039 56 1065 100 1065 c 2
 105 1065 l 2
 149 1065 159 1039 159 995 c 2
 159 152 l 2
 159 93 167 60 199 60 c 0
 235 60 243 117 243 222 c 1
 260 173 l 1
EndSplineSet
EndChar

StartChar: v
Encoding: 118 118 59
Width: 383
VWidth: 960
Flags: HMW
LayerCount: 2
Back
SplineSet
202 240 m 5
 274 1045 l 6
 275 1049 277 1050 281 1050 c 6
 366 1050 l 6
 370 1050 371 1049 369 1045 c 6
 253 5 l 6
 251 1 250 0 246 0 c 6
 133 0 l 6
 129 0 128 1 126 5 c 6
 12 1045 l 6
 11 1049 11 1050 15 1050 c 6
 121 1050 l 6
 125 1050 127 1049 128 1045 c 6
 202 240 l 5
EndSplineSet
Fore
SplineSet
202 240 m 1
 270 995 l 2
 274 1039 276 1065 320 1065 c 2
 323 1065 l 2
 357 1065 369 1039 364 995 c 2
 258 55 l 2
 253 11 235 -15 191 -15 c 2
 188 -15 l 2
 144 -15 126 11 121 55 c 2
 17 995 l 2
 12 1039 26 1065 70 1065 c 2
 76 1065 l 2
 120 1065 129 1039 133 995 c 2
 202 240 l 1
EndSplineSet
EndChar

StartChar: w
Encoding: 119 119 60
Width: 582
VWidth: 960
Flags: HMW
LayerCount: 2
Back
SplineSet
420 262 m 5
 489 1045 l 6
 490 1049 492 1050 495 1050 c 6
 565 1050 l 6
 569 1050 570 1048 569 1045 c 6
 466 5 l 6
 465 2 464 0 460 0 c 6
 361 0 l 6
 358 0 355 1 354 5 c 6
 292 752 l 5
 229 5 l 6
 228 1 227 0 223 0 c 6
 127 0 l 6
 124 0 122 1 121 5 c 6
 18 1045 l 6
 17 1049 17 1050 21 1050 c 6
 124 1050 l 6
 127 1050 129 1049 130 1045 c 6
 188 263 l 5
 252 1045 l 6
 253 1049 254 1050 258 1050 c 6
 343 1050 l 6
 346 1050 348 1049 349 1045 c 6
 420 262 l 5
EndSplineSet
Fore
SplineSet
420 262 m 1
 485 995 l 2
 489 1039 497 1065 530 1065 c 2
 532 1065 l 2
 566 1065 568 1038 564 995 c 2
 471 55 l 2
 467 12 457 -15 413 -15 c 2
 411 -15 l 2
 368 -15 354 11 350 55 c 2
 292 752 l 1
 233 55 l 2
 229 11 222 -15 178 -15 c 2
 172 -15 l 2
 129 -15 120 11 116 55 c 2
 23 995 l 2
 19 1039 42 1065 76 1065 c 2
 79 1065 l 2
 112 1065 131 1039 134 995 c 2
 188 263 l 1
 248 995 l 2
 252 1039 264 1065 298 1065 c 2
 303 1065 l 2
 336 1065 349 1039 353 995 c 2
 420 262 l 1
EndSplineSet
EndChar

StartChar: x
Encoding: 120 120 61
Width: 336
VWidth: 960
Flags: HMW
LayerCount: 2
Back
SplineSet
106 0 m 6
 1 0 l 6
 -3 0 -3 1 -0 5 c 6
 111 534 l 5
 9 1045 l 6
 6 1049 6 1050 10 1050 c 6
 130 1050 l 6
 134 1050 136 1049 138 1045 c 6
 176 622 l 5
 212 1045 l 6
 214 1049 216 1050 220 1050 c 6
 326 1050 l 6
 330 1050 330 1049 327 1045 c 6
 224 542 l 5
 336 5 l 6
 339 1 338 0 334 0 c 6
 217 0 l 6
 213 0 211 1 209 5 c 6
 161 454 l 5
 116 5 l 6
 114 1 110 0 106 0 c 6
EndSplineSet
Fore
SplineSet
61 -15 m 6
 56 -15 l 6
 12 -15 2 12 11 55 c 2
 111 534 l 1
 19 995 l 2
 10 1038 34 1065 78 1065 c 2
 79 1065 l 2
 123 1065 138 1039 142 995 c 2
 176 622 l 1
 208 995 l 2
 212 1039 222 1065 266 1065 c 2
 268 1065 l 2
 312 1065 326 1038 317 995 c 2
 224 542 l 1
 326 55 l 2
 335 12 313 -15 269 -15 c 2
 267 -15 l 2
 223 -15 209 11 204 55 c 2
 161 454 l 1
 121 55 l 2
 117 11 105 -15 61 -15 c 6
EndSplineSet
EndChar

StartChar: y
Encoding: 121 121 62
Width: 393
VWidth: 960
Flags: HMW
AnchorPoint: "top" 223 1050 basechar 0
LayerCount: 2
Back
SplineSet
216 275 m 5
 289 1045 l 6
 290 1048 291 1050 295 1050 c 6
 375 1050 l 6
 379 1050 379 1048 378 1045 c 6
 249 -65 l 6
 232 -213 123 -227 10 -198 c 4
 4 -197 2 -196 2 -192 c 6
 2 -110 l 6
 2 -107 4 -106 8 -107 c 4
 81 -132 152 -136 169 -48 c 5
 38 1045 l 6
 37 1048 36 1050 40 1050 c 6
 146 1050 l 6
 150 1050 151 1048 152 1045 c 6
 216 275 l 5
EndSplineSet
Fore
SplineSet
216 275 m 1
 284 995 l 2
 288 1038 296 1065 330 1065 c 2
 331 1065 l 2
 365 1065 377 1038 372 995 c 2
 249 -65 l 2
 232 -213 123 -217 60 -208 c 0
 14 -202 -13 -189 -13 -155 c 2
 -13 -153 l 2
 -13 -120 14 -117 58 -120 c 0
 85 -122 152 -136 169 -48 c 1
 44 995 l 2
 39 1038 51 1065 95 1065 c 2
 97 1065 l 2
 141 1065 152 1038 156 995 c 2
 216 275 l 1
EndSplineSet
EndChar

StartChar: z
Encoding: 122 122 63
Width: 351
VWidth: 960
Flags: HMW
AnchorPoint: "top" 194 1050 basechar 0
LayerCount: 2
Back
SplineSet
9 5 m 6
 212 962 l 5
 45 962 l 6
 41 962 40 964 40 968 c 6
 40 1045 l 6
 40 1049 41 1050 45 1050 c 6
 340 1050 l 6
 344 1050 345 1049 342 1045 c 6
 142 88 l 5
 328 88 l 6
 332 88 333 86 333 82 c 6
 333 5 l 6
 333 2 332 0 328 0 c 6
 10 0 l 6
 6 0 6 1 9 5 c 6
EndSplineSet
Fore
SplineSet
24 75 m 6
 212 962 l 1
 95 962 l 2
 51 962 25 969 25 1003 c 2
 25 1010 l 2
 25 1044 51 1050 95 1050 c 2
 270 1050 l 2
 334 1050 340 1037 327 975 c 2
 142 88 l 1
 278 88 l 2
 322 88 348 81 348 47 c 2
 348 40 l 2
 348 7 322 0 278 0 c 2
 80 0 l 2
 16 0 11 13 24 75 c 6
EndSplineSet
EndChar

StartChar: comma
Encoding: 44 44 65
Width: 290
VWidth: 1920
Flags: HMW
LayerCount: 2
Fore
SplineSet
82 -222 m 6
 80 -222 l 6
 72 -222 64 -210 69 -193 c 6
 130 0 l 5
 129 0 l 6
 80 0 69 41 69 90 c 6
 69 99 l 6
 69 166 92 204 144 204 c 6
 147 204 l 6
 199 204 222 166 222 99 c 6
 222 87 l 6
 222 50 212 18 188 -30 c 6
 101 -202 l 6
 93 -219 86 -222 82 -222 c 6
EndSplineSet
EndChar

StartChar: exclam
Encoding: 33 33 67
Width: 290
VWidth: 1920
Flags: HMW
LayerCount: 2
Back
SplineSet
80 950 m 6
 80 1380 l 6
 80 1437 108 1465 145 1465 c 6
 146 1465 l 6
 183 1465 211 1437 211 1380 c 6
 211 950 l 6
 211 943 211 937 210 930 c 6
 173 449 l 6
 172 442 154 439 147 439 c 6
 144 439 l 6
 137 439 119 442 118 449 c 6
 81 930 l 6
 80 937 80 943 80 950 c 6
EndSplineSet
Fore
SplineSet
147 -15 m 6
 144 -15 l 6
 92 -15 69 23 69 90 c 6
 69 99 l 6
 69 166 92 204 144 204 c 6
 147 204 l 6
 199 204 222 166 222 99 c 6
 222 90 l 6
 222 23 199 -15 147 -15 c 6
80 950 m 6
 80 1380 l 6
 80 1437 108 1465 145 1465 c 6
 146 1465 l 6
 183 1465 211 1437 211 1380 c 6
 211 950 l 6
 211 943 211 937 210 930 c 6
 175 479 l 6
 171 432 159 424 147 424 c 6
 144 424 l 6
 132 424 120 432 116 479 c 6
 81 930 l 6
 80 937 80 943 80 950 c 6
EndSplineSet
EndChar

StartChar: quotesingle
Encoding: 39 39 70
Width: 285
VWidth: 1920
Flags: HMW
LayerCount: 2
Fore
SplineSet
143 908 m 2
 141 908 l 2
 127 908 119 921 118 938 c 2
 99 1184 l 2
 98 1201 96 1227 96 1244 c 2
 96 1360 l 2
 96 1397 104 1435 141 1435 c 2
 144 1435 l 2
 181 1435 189 1397 189 1360 c 2
 189 1244 l 2
 189 1227 187 1201 186 1184 c 2
 166 938 l 2
 165 921 157 908 143 908 c 2
EndSplineSet
EndChar

StartChar: question
Encoding: 63 63 71
Width: 421
VWidth: 1920
Flags: HMW
LayerCount: 2
Back
SplineSet
259 0 m 6
 156 0 l 6
 149 0 146 3 146 10 c 6
 146 219 l 6
 146 226 149 229 156 229 c 6
 259 229 l 6
 266 229 269 226 269 219 c 6
 269 10 l 6
 269 3 266 0 259 0 c 6
221 404 m 6
 164 404 l 6
 160 404 158 405 158 408 c 4
 137 580 253 607 253 969 c 6
 253 1226 l 6
 253 1290 247 1378 203 1378 c 4
 157 1378 154 1288 154 1218 c 6
 154 957 l 6
 154 953 154 952 150 952 c 6
 52 952 l 6
 48 952 46 953 46 957 c 6
 46 1222 l 6
 46 1338 77 1467 210 1467 c 4
 329 1467 376 1347 376 1233 c 6
 376 986 l 6
 376 682 258 614 227 408 c 4
 227 405 224 404 221 404 c 6
EndSplineSet
Fore
SplineSet
209 -15 m 6
 206 -15 l 6
 154 -15 131 23 131 90 c 6
 131 99 l 6
 131 166 154 204 206 204 c 6
 209 204 l 6
 261 204 284 166 284 99 c 6
 284 90 l 6
 284 23 261 -15 209 -15 c 6
196 389 m 6
 189 389 l 6
 170 389 156 405 156 438 c 4
 156 611 253 607 253 969 c 6
 253 1226 l 6
 253 1290 247 1378 203 1378 c 4
 157 1378 154 1288 154 1218 c 6
 154 1007 l 6
 154 963 136 937 102 937 c 6
 100 937 l 6
 66 937 46 963 46 1007 c 6
 46 1222 l 6
 46 1338 77 1467 210 1467 c 4
 329 1467 376 1347 376 1233 c 6
 376 986 l 6
 376 682 276 646 232 438 c 4
 225 406 215 389 196 389 c 6
EndSplineSet
EndChar

StartChar: parenleft
Encoding: 40 40 72
Width: 299
VWidth: 2048
Flags: HMW
LayerCount: 2
Back
SplineSet
32 1220 m 6
 32 1422 104 1582 253 1610 c 4
 257 1611 258 1610 258 1606 c 6
 258 1562 l 6
 258 1559 256 1557 253 1555 c 4
 187 1525 138 1427 138 1227 c 6
 138 19 l 6
 138 -181 187 -279 253 -309 c 4
 256 -311 258 -313 258 -316 c 6
 258 -360 l 6
 258 -364 257 -365 253 -364 c 4
 104 -336 32 -176 32 26 c 6
 32 1220 l 6
EndSplineSet
Fore
SplineSet
32 1220 m 6
 32 1422 102 1574 243 1607 c 4
 266 1612 273 1600 273 1586 c 6
 273 1582 l 6
 273 1571 265 1564 243 1550 c 4
 178 1509 138 1427 138 1227 c 6
 138 19 l 6
 138 -181 178 -263 243 -304 c 4
 265 -318 273 -325 273 -336 c 6
 273 -340 l 6
 273 -354 266 -366 243 -361 c 4
 102 -328 32 -176 32 26 c 6
 32 1220 l 6
EndSplineSet
EndChar

StartChar: parenright
Encoding: 41 41 73
Width: 298
VWidth: 2048
Flags: HMW
LayerCount: 2
Fore
SplineSet
267 26 m 2
 267 -176 197 -328 56 -361 c 0
 33 -366 26 -354 26 -340 c 2
 26 -336 l 2
 26 -325 34 -318 56 -304 c 0
 121 -263 161 -181 161 19 c 2
 161 1227 l 2
 161 1427 121 1509 56 1550 c 0
 34 1564 26 1571 26 1582 c 2
 26 1586 l 2
 26 1600 33 1612 56 1607 c 0
 197 1574 267 1422 267 1220 c 2
 267 26 l 2
EndSplineSet
EndChar

StartChar: asterisk
Encoding: 42 42 74
Width: 518
VWidth: 2048
Flags: HMW
LayerCount: 2
Back
SplineSet
272.870117188 1020 m 261
 202.870117188 1020 l 261
 153.870117188 1370 l 6
 152.833007812 1376.66699219 152.817382812 1383.33300781 153.870117188 1390 c 6
 161.870117188 1440 l 6
 162.961914062 1446.82519531 165.870117188 1450 172.870117188 1450 c 6
 302.870117188 1450 l 6
 309.870117188 1450 312.778320312 1446.82519531 313.870117188 1440 c 6
 321.870117188 1390 l 6
 322.907226562 1383.33300781 322.922851562 1376.66699219 321.870117188 1370 c 6
 272.870117188 1020 l 261
EndSplineSet
Fore
SplineSet
265 1192 m 257
 253 1229 l 257
 402 1302 l 2
 425 1313 438 1320 447 1323 c 2
 448 1323 l 2
 467 1329 490 1319 499 1292 c 2
 500 1286 l 2
 509 1259 497 1237 478 1231 c 2
 477 1231 l 2
 463 1227 454 1226 429 1221 c 2
 265 1192 l 257
243 1200 m 257
 274 1223 l 257
 390 1103 l 2
 408 1084 417 1075 423 1067 c 2
 424 1066 l 2
 436 1050 432 1025 409 1008 c 2
 405 1005 l 2
 382 988 357 993 345 1009 c 2
 345 1010 l 2
 336 1022 333 1030 321 1053 c 2
 243 1200 l 257
243 1223 m 257
 275 1200 l 257
 196 1053 l 2
 184 1030 178 1018 172 1010 c 2
 172 1009 l 2
 160 993 135 988 112 1005 c 2
 108 1008 l 2
 85 1025 82 1050 94 1066 c 2
 94 1066 l 2
 103 1078 110 1084 128 1103 c 2
 243 1223 l 257
265 1229 m 257
 253 1192 l 257
 89 1221 l 2
 64 1226 49 1228 40 1231 c 2
 40 1231 l 2
 21 1237 8 1259 17 1286 c 2
 19 1292 l 2
 28 1319 51 1329 70 1323 c 2
 70 1323 l 2
 84 1319 92 1313 115 1302 c 2
 265 1229 l 257
278 1211 m 257
 240 1211 l 257
 216 1376 l 2
 213 1401 210 1416 210 1425 c 2
 210 1426 l 2
 210 1446 227 1464 256 1464 c 2
 262 1464 l 2
 291 1464 307 1446 307 1426 c 2
 307 1425 l 2
 307 1410 304 1401 301 1376 c 2
 278 1211 l 257
EndSplineSet
EndChar

StartChar: at
Encoding: 64 64 75
Width: 790
VWidth: 1920
Flags: HMW
LayerCount: 2
Back
SplineSet
492 199 m 5
 492 54 450 -17 365 -17 c 4
 287 -17 229 41 229 211 c 6
 229 838 l 6
 229 998 284 1067 364 1067 c 4
 454 1067 500 996 500 851 c 5
 446 841 l 5
 446 939 434 988 389 988 c 4
 347 988 340 949 340 851 c 6
 340 199 l 6
 340 101 347 62 389 62 c 4
 434 62 446 111 446 209 c 5
 492 199 l 5
572 -324 m 4
 538 -354 478 -377 398 -377 c 4
 127 -377 50 -191 50 49 c 6
 50 990 l 6
 50 1245 156 1417 403 1417 c 4
 675 1417 741 1230 741 1016 c 6
 741 235 l 6
 741 55 697 -17 588 -17 c 4
 498 -17 446 55 446 165 c 6
 446 961 l 5
 523 1061 l 6
 525 1064 528 1067 532 1067 c 6
 552 1067 l 6
 556 1067 558 1065 558 1061 c 6
 558 191 l 6
 558 94 566 59 600 59 c 4
 633 59 651 117 651 235 c 6
 651 1016 l 6
 651 1204 595 1347 403 1347 c 4
 222 1347 145 1206 145 996 c 6
 145 45 l 6
 145 -145 187 -307 398 -307 c 4
 454 -307 510 -287 546 -259 c 4
 550 -256 552 -257 553 -261 c 6
 574 -315 l 6
 575 -319 575 -321 572 -324 c 4
EndSplineSet
Fore
SplineSet
492 199 m 1
 492 54 450 -17 365 -17 c 0
 287 -17 229 41 229 211 c 2
 229 838 l 2
 229 998 284 1067 364 1067 c 0
 454 1067 500 996 500 851 c 1
 446 841 l 1
 446 939 434 988 389 988 c 0
 347 988 340 949 340 851 c 2
 340 199 l 2
 340 101 347 62 389 62 c 0
 434 62 446 111 446 209 c 1
 492 199 l 1
552 -337 m 0
 513 -359 478 -377 398 -377 c 0
 127 -377 50 -191 50 49 c 2
 50 990 l 2
 50 1245 156 1417 403 1417 c 0
 675 1417 741 1230 741 1016 c 2
 741 235 l 2
 741 55 697 -17 588 -17 c 0
 498 -17 446 55 446 165 c 2
 446 961 l 1
 503 1041 l 2
 515 1057 522 1067 536 1067 c 2
 537 1067 l 2
 551 1067 558 1055 558 1021 c 2
 558 191 l 2
 558 94 566 59 600 59 c 0
 633 59 651 117 651 235 c 2
 651 1016 l 2
 651 1204 595 1347 403 1347 c 0
 222 1347 145 1206 145 996 c 2
 145 45 l 2
 145 -145 187 -307 398 -307 c 0
 454 -307 486 -294 526 -272 c 0
 550 -259 567 -267 573 -279 c 2
 575 -283 l 2
 585 -303 575 -324 552 -337 c 0
EndSplineSet
EndChar

StartChar: dollar
Encoding: 36 36 76
Width: 455
VWidth: 1920
Flags: HMW
LayerCount: 2
Back
SplineSet
50 520 m 6
 139 520 l 6
 140 520 144 519 144 515 c 6
 144 266 l 6
 145 102 170 70 222 70 c 4
 267 70 312 118 312 331 c 4
 312 493 262 602 207 678 c 4
 129 784 63 890 63 1126 c 4
 63 1358 124 1420 232 1420 c 4
 335 1420 393 1364 393 1146 c 6
 393 914 l 6
 393 910 391 910 388 910 c 6
 302 910 l 6
 299 910 297 910 297 914 c 6
 297 1144 l 6
 297 1309 273 1338 233 1338 c 4
 195 1338 166 1297 166 1124 c 4
 166 955 220 832 273 766 c 4
 350 669 419 559 419 336 c 4
 419 62 346 -20 221 -20 c 4
 102 -20 45 48 45 245 c 6
 45 515 l 6
 45 519 49 520 50 520 c 6
216 1590 m 6
 246 1590 l 6
 250 1590 251 1588 251 1584 c 6
 251 -184 l 6
 251 -188 250 -190 246 -190 c 6
 216 -190 l 6
 212 -190 211 -188 211 -184 c 6
 211 1584 l 6
 211 1588 212 1590 216 1590 c 6
EndSplineSet
Fore
SplineSet
90 535 m 2
 99 535 l 2
 130 535 144 509 144 465 c 2
 144 266 l 2
 145 102 170 70 222 70 c 0
 267 70 312 118 312 331 c 0
 312 493 262 602 207 678 c 0
 129 784 63 890 63 1126 c 0
 63 1358 124 1420 232 1420 c 0
 335 1420 393 1364 393 1146 c 2
 393 974 l 2
 393 920 381 895 348 895 c 2
 342 895 l 2
 309 895 297 920 297 974 c 2
 297 1144 l 2
 297 1309 273 1338 233 1338 c 0
 195 1338 166 1297 166 1124 c 0
 166 955 220 832 273 766 c 0
 350 669 419 559 419 336 c 0
 419 62 346 -20 221 -20 c 0
 102 -20 45 48 45 245 c 2
 45 465 l 2
 45 509 59 535 90 535 c 2
230 1600 m 2
 232 1600 l 2
 246 1600 251 1588 251 1574 c 2
 251 -174 l 2
 251 -188 246 -200 232 -200 c 2
 230 -200 l 2
 216 -200 211 -188 211 -174 c 2
 211 1574 l 2
 211 1588 216 1600 230 1600 c 2
EndSplineSet
EndChar

StartChar: numbersign
Encoding: 35 35 77
Width: 573
VWidth: 1920
Flags: HMW
LayerCount: 2
Fore
SplineSet
86 514 m 6
 448 514 l 6
 492 514 517 508 517 484 c 6
 517 477 l 6
 517 453 492 447 448 447 c 6
 86 447 l 6
 42 447 16 453 16 477 c 6
 16 484 l 6
 16 508 42 514 86 514 c 6
126 1028 m 6
 488 1028 l 6
 532 1028 557 1022 557 998 c 6
 557 991 l 6
 557 967 532 961 488 961 c 6
 126 961 l 6
 82 961 56 967 56 991 c 6
 56 998 l 6
 56 1022 82 1028 126 1028 c 6
450 1415 m 6
 454 1415 l 6
 489 1415 497 1388 491 1335 c 6
 342 65 l 6
 336 12 324 -15 289 -15 c 6
 285 -15 l 6
 250 -15 242 12 248 65 c 6
 397 1335 l 6
 403 1388 415 1415 450 1415 c 6
274 1415 m 6
 278 1415 l 6
 312 1415 321 1388 315 1335 c 6
 166 65 l 6
 160 12 147 -15 113 -15 c 6
 109 -15 l 6
 75 -15 66 12 72 65 c 6
 221 1335 l 6
 227 1388 240 1415 274 1415 c 6
EndSplineSet
EndChar

StartChar: slash
Encoding: 47 47 78
Width: 441
VWidth: 2048
Flags: HMW
LayerCount: 2
Fore
SplineSet
415 1355 m 2
 122 -55 l 2
 115 -88 101 -115 67 -115 c 2
 66 -115 l 2
 32 -115 22 -88 29 -55 c 2
 322 1355 l 2
 329 1388 344 1415 377 1415 c 2
 378 1415 l 2
 412 1415 422 1388 415 1355 c 2
EndSplineSet
EndChar

StartChar: percent
Encoding: 37 37 79
Width: 752
VWidth: 2048
Flags: HMW
LayerCount: 2
Fore
SplineSet
47 981 m 6
 47 1226 l 6
 47 1352 95 1418 198 1418 c 4
 301 1418 356 1352 356 1226 c 6
 356 981 l 6
 356 855 301 788 198 788 c 4
 95 788 47 855 47 981 c 6
146 970 m 6
 146 888 156 860 198 860 c 4
 240 860 255 888 255 970 c 6
 255 1237 l 6
 255 1319 240 1346 198 1346 c 4
 156 1346 146 1319 146 1237 c 6
 146 970 l 6
396 174 m 6
 396 420 l 6
 396 546 446 612 549 612 c 4
 652 612 705 546 705 420 c 6
 705 174 l 6
 705 48 652 -18 549 -18 c 4
 446 -18 396 48 396 174 c 6
496 164 m 6
 496 82 507 54 549 54 c 4
 591 54 606 82 606 164 c 6
 606 431 l 6
 606 513 591 540 549 540 c 4
 507 540 496 513 496 431 c 6
 496 164 l 6
669 1335 m 6
 168 45 l 6
 150 -3 138 -15 114 -15 c 6
 111 -15 l 6
 87 -15 63 17 82 65 c 6
 584 1355 l 6
 599 1394 614 1415 638 1415 c 6
 640 1415 l 6
 664 1415 684 1374 669 1335 c 6
EndSplineSet
EndChar

StartChar: hyphen
Encoding: 45 45 80
Width: 329
VWidth: 1920
Flags: HMW
LayerCount: 2
Fore
SplineSet
8 608 m 14
 8 617 l 22
 8 638 27 657 65 657 c 14
 265 657 l 22
 303 657 322 638 322 617 c 14
 322 608 l 22
 322 587 303 568 265 568 c 14
 65 568 l 22
 27 568 8 587 8 608 c 14
EndSplineSet
EndChar

StartChar: underscore
Encoding: 95 95 81
Width: 450
VWidth: 1920
Flags: HMW
LayerCount: 2
Fore
SplineSet
-12 -50 m 10
 -12 -40 l 18
 -12 -19 7 0 45 0 c 10
 423 0 l 18
 461 0 480 -19 480 -40 c 10
 480 -50 l 18
 480 -71 461 -90 423 -90 c 10
 45 -90 l 18
 7 -90 -12 -71 -12 -50 c 10
EndSplineSet
EndChar

StartChar: plus
Encoding: 43 43 82
Width: 560
VWidth: 1920
Flags: HMW
LayerCount: 2
Fore
SplineSet
-8 683 m 14
 -8 691 l 22
 -8 712 11 731 49 731 c 14
 511 731 l 22
 549 731 568 712 568 691 c 14
 568 683 l 22
 568 662 549 643 511 643 c 14
 49 643 l 22
 11 643 -8 662 -8 683 c 14
277 988 m 14
 283 988 l 22
 304 988 323 969 323 931 c 14
 323 429 l 22
 323 391 304 372 283 372 c 14
 277 372 l 22
 256 372 237 391 237 429 c 14
 237 931 l 22
 237 969 256 988 277 988 c 14
EndSplineSet
EndChar

StartChar: equal
Encoding: 61 61 83
Width: 537
VWidth: 1920
Flags: HMW
LayerCount: 2
Fore
SplineSet
2 398 m 10
 2 406 l 18
 2 427 21 446 59 446 c 10
 481 446 l 18
 519 446 538 427 538 406 c 10
 538 398 l 18
 538 377 519 358 481 358 c 10
 59 358 l 18
 21 358 2 377 2 398 c 10
2 589 m 10
 2 597 l 18
 2 618 21 637 59 637 c 10
 481 637 l 18
 519 637 538 618 538 597 c 10
 538 589 l 18
 538 568 519 549 481 549 c 10
 59 549 l 18
 21 549 2 568 2 589 c 10
EndSplineSet
EndChar

StartChar: less
Encoding: 60 60 84
Width: 491
VWidth: 1920
Flags: HMW
LayerCount: 2
Fore
SplineSet
387 367 m 6
 71 551 l 6
 46 566 37 576 37 597 c 6
 37 603 l 6
 37 624 46 634 71 649 c 6
 387 833 l 6
 421 853 450 824 450 797 c 6
 450 791 l 6
 450 764 422 751 387 731 c 6
 145 600 l 261
 387 469 l 6
 422 449 450 436 450 409 c 6
 450 403 l 6
 450 376 421 347 387 367 c 6
EndSplineSet
EndChar

StartChar: greater
Encoding: 62 62 85
Width: 491
VWidth: 1920
Flags: HMW
LayerCount: 2
Fore
SplineSet
104 833 m 2
 420 649 l 2
 445 634 454 624 454 603 c 2
 454 597 l 2
 454 576 445 566 420 551 c 2
 104 367 l 2
 70 347 41 376 41 403 c 2
 41 409 l 2
 41 436 69 449 104 469 c 2
 346 600 l 257
 104 731 l 2
 69 751 41 764 41 791 c 2
 41 797 l 2
 41 824 70 853 104 833 c 2
EndSplineSet
EndChar

StartChar: backslash
Encoding: 92 92 86
Width: 440
VWidth: 2048
Flags: HMW
LayerCount: 2
Fore
SplineSet
406 -25 m 2
 417 -77 405 -100 371 -100 c 2
 370 -100 l 2
 336 -100 324 -77 313 -25 c 2
 28 1345 l 2
 19 1387 45 1400 69 1400 c 2
 70 1400 l 2
 93 1400 112 1387 121 1345 c 2
 406 -25 l 2
EndSplineSet
EndChar

StartChar: bracketleft
Encoding: 91 91 87
Width: 288
VWidth: 1920
Flags: HMW
LayerCount: 2
Back
SplineSet
143 1519 m 5
 143 -279 l 5
 258 -279 l 6
 262 -279 263 -280 263 -284 c 6
 263 -355 l 6
 263 -359 262 -360 258 -360 c 6
 40 -360 l 6
 36 -360 35 -359 35 -355 c 6
 35 1595 l 6
 35 1599 36 1600 40 1600 c 6
 258 1600 l 6
 262 1600 263 1599 263 1595 c 6
 263 1524 l 6
 263 1520 262 1519 258 1519 c 6
 143 1519 l 5
EndSplineSet
Fore
SplineSet
143 1519 m 1
 143 -279 l 1
 208 -279 l 2
 252 -279 278 -285 278 -319 c 2
 278 -320 l 2
 278 -354 252 -360 208 -360 c 2
 100 -360 l 2
 56 -360 35 -339 35 -295 c 2
 35 1535 l 2
 35 1579 56 1600 100 1600 c 2
 208 1600 l 2
 252 1600 278 1594 278 1560 c 2
 278 1559 l 2
 278 1525 252 1519 208 1519 c 2
 143 1519 l 1
EndSplineSet
EndChar

StartChar: braceleft
Encoding: 123 123 88
Width: 300
VWidth: 2048
Flags: HMW
LayerCount: 2
Back
SplineSet
78 1439 m 6
 78 1553 101 1599 244 1600 c 4
 248 1600 250 1599 250 1595 c 6
 250 1551 l 6
 250 1547 248 1546 244 1546 c 4
 194 1544 178 1517 178 1430 c 6
 178 788 l 6
 178 696 160 644 82 620 c 5
 160 596 178 544 178 452 c 6
 178 -190 l 6
 178 -276 196 -303 244 -306 c 4
 249 -306 250 -307 250 -311 c 6
 250 -355 l 6
 250 -359 248 -360 244 -360 c 4
 102 -358 78 -313 78 -199 c 6
 78 452 l 6
 78 536 59 567 11 583 c 4
 7 585 5 586 5 590 c 6
 5 650 l 6
 5 654 6 656 10 657 c 4
 60 673 78 704 78 788 c 6
 78 1439 l 6
EndSplineSet
Fore
SplineSet
78 1439 m 6
 78 1553 111 1600 224 1600 c 4
 258 1600 265 1586 265 1572 c 6
 265 1568 l 6
 265 1549 248 1542 224 1542 c 4
 194 1542 178 1517 178 1430 c 6
 178 788 l 6
 178 696 160 644 82 620 c 5
 160 596 178 544 178 452 c 6
 178 -190 l 6
 178 -277 194 -302 224 -302 c 4
 248 -302 265 -309 265 -328 c 6
 265 -332 l 6
 265 -346 258 -360 224 -360 c 4
 111 -360 78 -313 78 -199 c 6
 78 452 l 6
 78 536 60 558 31 573 c 4
 7 585 -10 595 -10 619 c 6
 -10 621 l 6
 -10 645 6 655 30 667 c 4
 60 682 78 704 78 788 c 6
 78 1439 l 6
EndSplineSet
EndChar

StartChar: bracketright
Encoding: 93 93 89
Width: 288
VWidth: 1920
Flags: HMW
LayerCount: 2
Back
SplineSet
290 -210 m 261
 290 1450 l 261
 60 1450 l 6
 53 1450 50 1453 50 1460 c 6
 50 1590 l 6
 50 1597 53 1600 60 1600 c 6
 470 1600 l 6
 477 1600 480 1597 480 1590 c 6
 480 -350 l 6
 480 -357 477 -360 470 -360 c 6
 60 -360 l 6
 53 -360 50 -357 50 -350 c 6
 50 -220 l 6
 50 -213 53 -210 60 -210 c 6
 290 -210 l 261
EndSplineSet
Fore
SplineSet
145 -279 m 1
 145 1519 l 1
 80 1519 l 2
 36 1519 10 1525 10 1559 c 2
 10 1560 l 2
 10 1594 36 1600 80 1600 c 2
 188 1600 l 2
 232 1600 253 1579 253 1535 c 2
 253 -295 l 2
 253 -339 232 -360 188 -360 c 2
 80 -360 l 2
 36 -360 10 -354 10 -320 c 2
 10 -319 l 2
 10 -285 36 -279 80 -279 c 2
 145 -279 l 1
EndSplineSet
EndChar

StartChar: braceright
Encoding: 125 125 90
Width: 300
VWidth: 2048
Flags: HMW
LayerCount: 2
Fore
SplineSet
222 -199 m 2
 222 -313 189 -360 76 -360 c 0
 42 -360 35 -346 35 -332 c 2
 35 -328 l 2
 35 -309 52 -302 76 -302 c 0
 106 -302 122 -277 122 -190 c 2
 122 452 l 2
 122 544 140 596 218 620 c 1
 140 644 122 696 122 788 c 2
 122 1430 l 2
 122 1517 106 1542 76 1542 c 0
 52 1542 35 1549 35 1568 c 2
 35 1572 l 2
 35 1586 42 1600 76 1600 c 0
 189 1600 222 1553 222 1439 c 2
 222 788 l 2
 222 704 240 682 269 667 c 0
 293 655 310 645 310 621 c 2
 310 619 l 2
 310 595 294 585 270 573 c 0
 240 558 222 536 222 452 c 2
 222 -199 l 2
EndSplineSet
EndChar

StartChar: bar
Encoding: 124 124 91
Width: 312
VWidth: 1920
Flags: HMW
LayerCount: 2
Fore
SplineSet
156 1615 m 14
 157 1615 l 22
 184 1615 196 1587 196 1540 c 14
 196 -300 l 22
 196 -357 184 -375 157 -375 c 14
 156 -375 l 22
 129 -375 117 -357 117 -300 c 14
 117 1540 l 22
 117 1587 129 1615 156 1615 c 14
EndSplineSet
EndChar

StartChar: asciitilde
Encoding: 126 126 92
Width: 664
VWidth: 2048
Flags: HMW
LayerCount: 2
Fore
SplineSet
210 623 m 0
 166 623 146 589 141 564 c 0
 133 522 122 505 89 505 c 2
 87 505 l 2
 63 505 43 532 51 574 c 0
 61 628 119 711 210 711 c 0
 333 711 381 587 454 587 c 0
 498 587 518 621 524 646 c 0
 534 689 551 706 574 706 c 2
 575 706 l 2
 609 706 624 679 614 636 c 0
 599 572 545 500 454 500 c 0
 331 500 283 623 210 623 c 0
EndSplineSet
EndChar

StartChar: asciicircum
Encoding: 94 94 93
Width: 389
VWidth: 1920
Flags: HMW
LayerCount: 2
Fore
SplineSet
194 1271 m 1
 104 780 l 2
 96 735 86 715 59 715 c 6
 56 715 l 6
 29 715 19 735 29 780 c 2
 155 1360 l 2
 161 1389 173 1410 190 1410 c 2
 197 1410 l 2
 214 1410 227 1389 233 1360 c 2
 358 780 l 2
 368 735 362 715 331 715 c 2
 328 715 l 6
 299 715 291 735 283 780 c 2
 194 1271 l 1
EndSplineSet
EndChar

StartChar: figuredash
Encoding: 8210 8210 108
Width: 575
VWidth: 2048
Flags: HMW
LayerCount: 2
Fore
SplineSet
5 608 m 10
 5 618 l 18
 5 639 24 658 62 658 c 10
 513 658 l 18
 551 658 570 639 570 618 c 10
 570 608 l 18
 570 587 551 568 513 568 c 10
 62 568 l 18
 24 568 5 587 5 608 c 10
EndSplineSet
EndChar

StartChar: endash
Encoding: 8211 8211 109
Width: 550
VWidth: 2048
Flags: HMW
LayerCount: 2
Fore
SplineSet
5 608 m 10
 5 618 l 18
 5 639 24 658 62 658 c 10
 488 658 l 18
 526 658 545 639 545 618 c 10
 545 608 l 18
 545 587 526 568 488 568 c 10
 62 568 l 18
 24 568 5 587 5 608 c 10
EndSplineSet
EndChar

StartChar: emdash
Encoding: 8212 8212 110
Width: 1100
VWidth: 2048
Flags: HMW
LayerCount: 2
Fore
SplineSet
5 608 m 10
 5 618 l 18
 5 639 24 658 62 658 c 10
 1038 658 l 18
 1076 658 1095 639 1095 618 c 10
 1095 608 l 18
 1095 587 1076 568 1038 568 c 10
 62 568 l 18
 24 568 5 587 5 608 c 10
EndSplineSet
EndChar

StartChar: uni2015
Encoding: 8213 8213 111
Width: 1180
VWidth: 2048
Flags: HMW
LayerCount: 2
Fore
SplineSet
20 572 m 10
 20 652 l 18
 20 656 21 658 25 658 c 10
 1155 658 l 18
 1159 658 1160 656 1160 652 c 10
 1160 572 l 18
 1160 568 1159 568 1155 568 c 10
 25 568 l 18
 21 568 20 568 20 572 c 10
EndSplineSet
EndChar

StartChar: quoteleft
Encoding: 8216 8216 114
Width: 303
VWidth: 1920
Flags: HMW
LayerCount: 2
Fore
SplineSet
221 1456 m 6
 223 1456 l 6
 231 1456 239 1444 234 1427 c 6
 173 1234 l 5
 174 1234 l 6
 223 1234 234 1193 234 1144 c 6
 234 1135 l 6
 234 1068 211 1030 159 1030 c 6
 156 1030 l 6
 104 1030 81 1068 81 1135 c 6
 81 1147 l 6
 81 1184 91 1216 115 1264 c 6
 202 1436 l 6
 210 1453 217 1456 221 1456 c 6
EndSplineSet
EndChar

StartChar: quotereversed
Encoding: 8219 8219 117
Width: 303
VWidth: 1920
Flags: HMW
LayerCount: 2
Fore
SplineSet
221 967 m 2
 217 967 210 970 202 987 c 2
 115 1159 l 2
 91 1207 81 1239 81 1276 c 2
 81 1288 l 2
 81 1355 104 1393 156 1393 c 2
 159 1393 l 2
 211 1393 234 1355 234 1288 c 2
 234 1279 l 2
 234 1230 223 1189 174 1189 c 2
 173 1189 l 1
 234 996 l 2
 239 979 231 967 223 967 c 2
 221 967 l 2
EndSplineSet
EndChar

StartChar: bullet
Encoding: 8226 8226 120
Width: 351
VWidth: 2048
Flags: HMW
LayerCount: 2
Fore
SplineSet
69 731 m 2
 69 760 l 2
 69 824 119 857 173 857 c 0
 227 857 282 824 282 760 c 2
 282 731 l 2
 282 667 227 633 173 633 c 0
 119 633 69 667 69 731 c 2
EndSplineSet
EndChar

StartChar: dagger
Encoding: 8224 8224 124
Width: 458
VWidth: 1920
Flags: HMW
LayerCount: 2
Fore
SplineSet
18 1006 m 14
 18 1010 l 22
 18 1044 44 1050 88 1050 c 14
 371 1050 l 22
 415 1050 441 1044 441 1010 c 14
 441 1006 l 22
 441 972 415 967 371 967 c 14
 88 967 l 22
 44 967 18 972 18 1006 c 14
228 1415 m 14
 231 1415 l 22
 275 1415 286 1389 286 1345 c 14
 286 55 l 22
 286 11 275 -15 231 -15 c 14
 228 -15 l 22
 184 -15 172 11 172 55 c 14
 172 1345 l 22
 172 1389 184 1415 228 1415 c 14
EndSplineSet
EndChar

StartChar: daggerdbl
Encoding: 8225 8225 125
Width: 458
VWidth: 1920
Flags: HMW
LayerCount: 2
Fore
SplineSet
18 39 m 14
 18 43 l 22
 18 77 44 83 88 83 c 14
 371 83 l 22
 415 83 441 77 441 43 c 14
 441 39 l 22
 441 5 415 0 371 0 c 14
 88 0 l 22
 44 0 18 5 18 39 c 14
18 1006 m 14
 18 1010 l 22
 18 1044 44 1050 88 1050 c 14
 371 1050 l 22
 415 1050 441 1044 441 1010 c 14
 441 1006 l 22
 441 972 415 967 371 967 c 14
 88 967 l 22
 44 967 18 972 18 1006 c 14
228 1415 m 14
 231 1415 l 22
 275 1415 286 1389 286 1345 c 14
 286 -305 l 22
 286 -349 275 -375 231 -375 c 14
 228 -375 l 22
 184 -375 172 -349 172 -305 c 14
 172 1345 l 22
 172 1389 184 1415 228 1415 c 14
EndSplineSet
EndChar

StartChar: perthousand
Encoding: 8240 8240 126
Width: 1138
VWidth: 2048
Flags: HMW
LayerCount: 2
Fore
SplineSet
782 174 m 6
 782 420 l 6
 782 546 832 612 935 612 c 4
 1038 612 1091 546 1091 420 c 6
 1091 174 l 6
 1091 48 1038 -18 935 -18 c 4
 832 -18 782 48 782 174 c 6
882 164 m 6
 882 82 893 54 935 54 c 4
 977 54 992 82 992 164 c 6
 992 431 l 6
 992 513 977 540 935 540 c 4
 893 540 882 513 882 431 c 6
 882 164 l 6
47 981 m 6
 47 1226 l 6
 47 1352 95 1418 198 1418 c 4
 301 1418 356 1352 356 1226 c 6
 356 981 l 6
 356 855 301 788 198 788 c 4
 95 788 47 855 47 981 c 6
146 970 m 6
 146 888 156 860 198 860 c 4
 240 860 255 888 255 970 c 6
 255 1237 l 6
 255 1319 240 1346 198 1346 c 4
 156 1346 146 1319 146 1237 c 6
 146 970 l 6
396 174 m 6
 396 420 l 6
 396 546 446 612 549 612 c 4
 652 612 705 546 705 420 c 6
 705 174 l 6
 705 48 652 -18 549 -18 c 4
 446 -18 396 48 396 174 c 6
496 164 m 6
 496 82 507 54 549 54 c 4
 591 54 606 82 606 164 c 6
 606 431 l 6
 606 513 591 540 549 540 c 4
 507 540 496 513 496 431 c 6
 496 164 l 6
669 1335 m 6
 168 45 l 6
 150 -3 138 -15 114 -15 c 6
 111 -15 l 6
 87 -15 63 17 82 65 c 6
 584 1355 l 6
 599 1394 614 1415 638 1415 c 6
 640 1415 l 6
 664 1415 684 1374 669 1335 c 6
EndSplineSet
EndChar

StartChar: uni2031
Encoding: 8241 8241 127
Width: 1522
VWidth: 2048
Flags: HMW
LayerCount: 2
Fore
SplineSet
1166 174 m 6
 1166 420 l 6
 1166 546 1216 612 1319 612 c 4
 1422 612 1475 546 1475 420 c 6
 1475 174 l 6
 1475 48 1422 -18 1319 -18 c 4
 1216 -18 1166 48 1166 174 c 6
1266 164 m 6
 1266 82 1277 54 1319 54 c 4
 1361 54 1376 82 1376 164 c 6
 1376 431 l 6
 1376 513 1361 540 1319 540 c 4
 1277 540 1266 513 1266 431 c 6
 1266 164 l 6
782 174 m 2
 782 420 l 2
 782 546 832 612 935 612 c 0
 1038 612 1091 546 1091 420 c 2
 1091 174 l 2
 1091 48 1038 -18 935 -18 c 0
 832 -18 782 48 782 174 c 2
882 164 m 2
 882 82 893 54 935 54 c 0
 977 54 992 82 992 164 c 2
 992 431 l 2
 992 513 977 540 935 540 c 0
 893 540 882 513 882 431 c 2
 882 164 l 2
47 981 m 2
 47 1226 l 2
 47 1352 95 1418 198 1418 c 0
 301 1418 356 1352 356 1226 c 2
 356 981 l 2
 356 855 301 788 198 788 c 0
 95 788 47 855 47 981 c 2
146 970 m 2
 146 888 156 860 198 860 c 0
 240 860 255 888 255 970 c 2
 255 1237 l 2
 255 1319 240 1346 198 1346 c 0
 156 1346 146 1319 146 1237 c 2
 146 970 l 2
396 174 m 2
 396 420 l 2
 396 546 446 612 549 612 c 0
 652 612 705 546 705 420 c 2
 705 174 l 2
 705 48 652 -18 549 -18 c 0
 446 -18 396 48 396 174 c 2
496 164 m 2
 496 82 507 54 549 54 c 0
 591 54 606 82 606 164 c 2
 606 431 l 2
 606 513 591 540 549 540 c 0
 507 540 496 513 496 431 c 2
 496 164 l 2
669 1335 m 2
 168 45 l 2
 150 -3 138 -15 114 -15 c 2
 111 -15 l 2
 87 -15 63 17 82 65 c 2
 584 1355 l 2
 599 1394 614 1415 638 1415 c 2
 640 1415 l 2
 664 1415 684 1374 669 1335 c 2
EndSplineSet
EndChar

StartChar: fraction
Encoding: 8260 8260 128
Width: 510
VWidth: 1920
Flags: HMW
LayerCount: 2
Fore
SplineSet
430 1290 m 2
 432 1289 l 2
 452 1279 459 1261 446 1218 c 10
 134 199 l 18
 121 156 94 146 74 156 c 10
 72 157 l 18
 52 167 53 188 66 231 c 10
 377 1250 l 18
 390 1293 410 1300 430 1290 c 2
EndSplineSet
EndChar

StartChar: uni2074
Encoding: 8308 8308 129
Width: 279
VWidth: 1920
Flags: HMW
LayerCount: 2
Fore
SplineSet
277 874 m 2
 277 873 l 2
 277 839 260 828 228 828 c 2
 221 828 l 1
 221 686 l 2
 221 642 206 615 179 615 c 2
 178 615 l 2
 151 615 136 642 136 686 c 2
 136 828 l 1
 68 828 l 2
 26 828 14 839 14 883 c 2
 14 898 l 2
 14 922 16 937 26 980 c 2
 128 1414 l 2
 138 1455 149 1485 181 1485 c 2
 184 1485 l 2
 216 1485 221 1458 221 1414 c 2
 221 920 l 1
 228 920 l 2
 260 920 277 908 277 874 c 2
138 920 m 1
 138 1226 l 1
 70 920 l 1
 138 920 l 1
EndSplineSet
EndChar

StartChar: uni2073
Encoding: 8307 8307 130
Width: 311
VWidth: 1920
Flags: HMW
LayerCount: 2
Fore
SplineSet
67 893 m 2
 72 893 l 2
 94 893 114 876 114 832 c 2
 114 821 l 2
 114 771 122 694 152 694 c 0
 184 694 197 778 197 834 c 2
 197 905 l 2
 197 968 188 1027 147 1027 c 2
 138 1027 l 2
 116 1027 105 1034 105 1068 c 2
 105 1070 l 2
 105 1104 116 1110 138 1110 c 2
 141 1110 l 2
 179 1110 183 1174 183 1231 c 2
 183 1288 l 2
 183 1333 178 1406 150 1406 c 0
 126 1406 120 1334 120 1269 c 2
 120 1257 l 2
 120 1213 111 1186 79 1186 c 2
 77 1186 l 2
 45 1186 37 1213 37 1257 c 2
 37 1271 l 2
 37 1402 68 1490 152 1490 c 0
 236 1490 270 1416 270 1287 c 2
 270 1254 l 2
 270 1110 224 1060 143 1060 c 1
 149 1089 l 1
 230 1089 283 1033 283 889 c 2
 283 832 l 2
 283 693 242 610 147 610 c 0
 66 610 28 688 28 819 c 2
 28 832 l 2
 28 876 45 893 67 893 c 2
EndSplineSet
EndChar

StartChar: uni2072
Encoding: 8306 8306 131
Width: 264
VWidth: 1920
Flags: HMW
LayerCount: 2
Fore
SplineSet
15 688 m 2
 15 1009 165 1077 165 1250 c 2
 165 1290 l 2
 165 1344 161 1396 136 1396 c 0
 108 1396 105 1328 105 1250 c 2
 105 1217 l 2
 105 1173 89 1156 67 1156 c 2
 60 1156 l 2
 38 1156 23 1173 23 1217 c 2
 23 1248 l 2
 23 1404 57 1497 140 1497 c 0
 217 1497 248 1420 248 1287 c 2
 248 1252 l 2
 248 1013 109 984 109 746 c 2
 109 740 l 1
 197 740 l 6
 239 740 265 723 265 689 c 6
 265 688 l 6
 265 654 239 637 197 637 c 6
 18 637 l 2
 16 637 15 639 15 643 c 2
 15 688 l 2
EndSplineSet
EndChar

StartChar: uni2070
Encoding: 8304 8304 132
Width: 341
VWidth: 1920
Flags: HMW
LayerCount: 2
Fore
SplineSet
47 905 m 2
 47 1196 l 2
 47 1379 72 1490 171 1490 c 0
 270 1490 295 1379 295 1196 c 2
 295 905 l 2
 295 721 270 610 171 610 c 0
 72 610 47 721 47 905 c 2
133 916 m 2
 133 780 134 705 171 705 c 0
 208 705 209 780 209 916 c 2
 209 1185 l 2
 209 1321 208 1395 171 1395 c 0
 134 1395 133 1321 133 1185 c 2
 133 916 l 2
EndSplineSet
EndChar

StartChar: uni2075
Encoding: 8309 8309 133
Width: 333
VWidth: 1920
Flags: HMW
LayerCount: 2
Fore
SplineSet
85 859 m 2
 89 859 l 2
 111 859 127 832 129 788 c 0
 131 730 139 685 166 685 c 0
 203 685 210 763 210 861 c 2
 210 945 l 2
 210 1039 207 1120 175 1120 c 0
 159 1120 151 1082 148 1063 c 0
 143 1029 126 1008 96 1008 c 2
 95 1008 l 2
 73 1008 56 1028 58 1063 c 2
 82 1407 l 2
 85 1451 98 1463 140 1463 c 2
 225 1463 l 2
 267 1463 278 1452 278 1428 c 2
 278 1427 l 2
 278 1386 269 1379 216 1379 c 2
 157 1379 l 1
 128 1066 l 1
 118 1066 l 1
 133 1144 143 1212 202 1212 c 0
 268 1212 296 1120 296 931 c 2
 296 876 l 2
 296 690 260 603 165 603 c 0
 83 603 60 688 50 788 c 0
 45 832 63 859 85 859 c 2
EndSplineSet
EndChar

StartChar: uni2076
Encoding: 8310 8310 134
Width: 326
VWidth: 1920
Flags: HMW
LayerCount: 2
Fore
SplineSet
162 1086 m 0
 138 1086 124 1050 124 964 c 2
 124 890 l 1
 104 945 l 1
 104 1076 133 1174 183 1174 c 0
 248 1174 280 1100 280 961 c 2
 280 811 l 2
 280 676 244 611 157 611 c 0
 64 611 48 698 48 879 c 2
 48 1210 l 2
 48 1398 71 1490 163 1490 c 0
 243 1490 264 1393 264 1284 c 2
 264 1280 l 2
 264 1246 248 1229 226 1229 c 2
 222 1229 l 2
 200 1229 184 1246 184 1300 c 2
 184 1317 l 2
 184 1366 183 1398 160 1398 c 0
 129 1398 124 1343 124 1189 c 2
 124 838 l 2
 124 748 126 702 159 702 c 0
 187 702 194 752 194 836 c 2
 194 944 l 2
 194 1030 188 1086 162 1086 c 0
EndSplineSet
EndChar

StartChar: uni2077
Encoding: 8311 8311 135
Width: 228
VWidth: 1920
Flags: HMW
LayerCount: 2
Fore
SplineSet
210 1394 m 2
 132 686 l 2
 127 642 115 615 83 615 c 2
 76 615 l 2
 44 615 35 642 40 686 c 2
 120 1369 l 1
 66 1369 l 2
 24 1369 -2 1381 -2 1415 c 2
 -2 1424 l 2
 -2 1458 24 1470 66 1470 c 2
 145 1470 l 2
 197 1470 216 1447 210 1394 c 2
EndSplineSet
EndChar

StartChar: uni2078
Encoding: 8312 8312 136
Width: 296
VWidth: 1920
Flags: HMW
LayerCount: 2
Fore
SplineSet
146 679 m 0
 169 679 180 699 180 736 c 2
 180 968 l 2
 180 1005 169 1026 146 1026 c 0
 123 1026 116 1005 116 968 c 2
 116 736 l 2
 116 699 123 679 146 679 c 0
146 1096 m 0
 165 1096 176 1109 176 1142 c 2
 176 1374 l 2
 176 1405 165 1421 146 1421 c 0
 132 1421 121 1405 121 1374 c 2
 121 1142 l 2
 121 1109 131 1096 146 1096 c 0
156 1068 m 1
 237 1068 266 1026 266 954 c 2
 266 729 l 2
 266 653 244 611 146 611 c 0
 50 611 30 653 30 729 c 2
 30 954 l 2
 30 1026 58 1068 137 1068 c 1
 138 1056 l 1
 63 1058 35 1093 35 1163 c 2
 35 1378 l 2
 35 1448 71 1489 146 1489 c 0
 223 1489 261 1448 261 1378 c 2
 261 1163 l 2
 261 1093 232 1058 155 1056 c 1
 156 1068 l 1
EndSplineSet
EndChar

StartChar: uni2079
Encoding: 8313 8313 137
Width: 272
VWidth: 1920
Flags: HMW
LayerCount: 2
Fore
SplineSet
137 1014 m 0
 161 1014 175 1050 175 1136 c 2
 175 1210 l 1
 194 1155 l 1
 194 1024 165 926 115 926 c 0
 50 926 19 1000 19 1139 c 2
 19 1289 l 2
 19 1424 55 1489 142 1489 c 0
 235 1489 251 1402 251 1221 c 2
 251 890 l 2
 251 702 227 610 127 610 c 0
 39 610 16 707 16 816 c 2
 16 820 l 2
 16 854 32 871 54 871 c 2
 58 871 l 2
 90 871 96 844 96 800 c 2
 96 783 l 2
 96 734 98 702 130 702 c 0
 170 702 175 757 175 911 c 2
 175 1262 l 2
 175 1352 173 1398 140 1398 c 0
 112 1398 105 1348 105 1264 c 2
 105 1156 l 2
 105 1070 111 1014 137 1014 c 0
EndSplineSet
EndChar

StartChar: uni00B9
Encoding: 185 185 138
Width: 258
VWidth: 1920
Flags: HMW
LayerCount: 2
Fore
SplineSet
107 1469 m 0
 115 1474 120 1478 129 1491 c 0
 133 1497 137 1507 149 1507 c 2
 150 1507 l 2
 162 1507 172 1495 172 1471 c 2
 172 696 l 2
 172 652 165 625 133 625 c 2
 125 625 l 2
 93 625 86 652 86 696 c 2
 86 1416 l 2
 86 1450 91 1460 107 1469 c 0
EndSplineSet
EndChar

StartChar: cent
Encoding: 162 162 154
Width: 373
VWidth: 1920
Flags: HMW
LayerCount: 2
Fore
SplineSet
203 1255 m 2
 205 1255 l 2
 219 1255 224 1239 224 1225 c 2
 224 -175 l 2
 224 -189 219 -205 205 -205 c 2
 203 -205 l 2
 189 -205 184 -189 184 -175 c 2
 184 1225 l 2
 184 1239 189 1255 203 1255 c 2
EndSplineSet
Refer: 40 99 N 1 0 0 1 0 0 2
EndChar

StartChar: uni203D
Encoding: 8253 8253 157
Width: 534
VWidth: 1920
Flags: HMW
LayerCount: 2
Fore
SplineSet
198 935 m 2
 198 1135 l 2
 198 1182 216 1210 253 1210 c 2
 260 1210 l 2
 297 1210 315 1182 315 1135 c 2
 315 935 l 2
 315 928 315 922 314 915 c 2
 284 441 l 2
 283 434 272 416 265 416 c 2
 263 416 l 2
 241 416 232 434 229 481 c 2
 198 915 l 2
 197 922 198 928 198 935 c 2
244 -15 m 2
 241 -15 l 2
 189 -15 166 23 166 90 c 2
 166 99 l 2
 166 166 189 204 241 204 c 2
 244 204 l 2
 296 204 319 166 319 99 c 2
 319 90 l 2
 319 23 296 -15 244 -15 c 2
266 416 m 2
 264 416 l 2
 260 416 246 433 246 436 c 0
 225 611 366 626 366 982 c 2
 366 1185 l 2
 366 1244 341 1334 261 1334 c 0
 178 1334 154 1240 154 1176 c 2
 154 986 l 2
 154 942 139 916 105 916 c 2
 97 916 l 2
 63 916 46 942 46 986 c 2
 46 1166 l 2
 46 1294 99 1423 268 1423 c 0
 418 1423 488 1305 488 1181 c 2
 488 1004 l 2
 488 690 318 645 298 476 c 0
 293 433 284 416 266 416 c 2
EndSplineSet
EndChar

StartChar: ordfeminine
Encoding: 170 170 159
Width: 372
VWidth: 1920
Flags: HMW
LayerCount: 2
Fore
SplineSet
116 841 m 0
 116 745 128 693 160 693 c 0
 199 693 220 810 220 946 c 1
 242 893 l 1
 242 753 220 609 134 609 c 0
 62 609 32 698 32 836 c 0
 32 992 82 1053 160 1101 c 0
 198 1124 220 1162 220 1238 c 1
 239 1152 l 1
 239 1095 231 1074 186 1042 c 0
 150 1016 116 959 116 841 c 0
220 842 m 2
 220 1262 l 2
 220 1339 218 1409 183 1409 c 0
 147 1409 141 1358 141 1266 c 0
 141 1230 127 1203 98 1203 c 2
 92 1203 l 2
 63 1203 56 1230 60 1266 c 0
 72 1382 74 1489 185 1489 c 0
 295 1489 312 1395 312 1190 c 2
 312 842 l 2
 312 773 314 743 324 701 c 0
 335 656 328 629 294 629 c 6
 290 629 l 6
 256 629 238 656 231 700 c 0
 224 744 220 772 220 842 c 2
EndSplineSet
EndChar

StartChar: exclamdown
Encoding: 161 161 160
Width: 290
VWidth: 1920
Flags: HMW
LayerCount: 2
Fore
SplineSet
144 1065 m 2
 147 1065 l 2
 199 1065 222 1027 222 960 c 2
 222 951 l 2
 222 884 199 846 147 846 c 2
 144 846 l 2
 92 846 69 884 69 951 c 2
 69 960 l 2
 69 1027 92 1065 144 1065 c 2
211 100 m 2
 211 -330 l 2
 211 -387 183 -415 146 -415 c 2
 145 -415 l 2
 108 -415 80 -387 80 -330 c 2
 80 100 l 2
 80 107 80 113 81 120 c 2
 116 571 l 2
 120 618 132 626 144 626 c 2
 147 626 l 2
 159 626 171 618 175 571 c 2
 210 120 l 2
 211 113 211 107 211 100 c 2
EndSplineSet
EndChar

StartChar: AE
Encoding: 198 198 161
Width: 749
VWidth: 1920
Flags: HMW
LayerCount: 2
Fore
SplineSet
166 498 m 1
 424 498 l 1
 424 417 l 1
 166 417 l 1
 166 498 l 1
442 1400 m 1
 122 80 l 2
 109 26 98 -15 61 -15 c 2
 60 -15 l 2
 23 -15 15 28 28 80 c 2
 350 1340 l 2
 361 1383 377 1400 424 1400 c 2
 442 1400 l 1
EndSplineSet
Refer: 16 69 N 1 0 0 1 309 0 2
EndChar

StartChar: questiondown
Encoding: 191 191 162
Width: 421
VWidth: 1920
Flags: HMW
LayerCount: 2
Fore
SplineSet
213 1065 m 2
 216 1065 l 2
 268 1065 291 1027 291 960 c 2
 291 951 l 2
 291 884 268 846 216 846 c 2
 213 846 l 2
 161 846 138 884 138 951 c 2
 138 960 l 2
 138 1027 161 1065 213 1065 c 2
226 661 m 2
 233 661 l 2
 252 661 266 645 266 612 c 0
 266 439 169 443 169 81 c 2
 169 -176 l 2
 169 -240 175 -328 219 -328 c 0
 265 -328 268 -238 268 -168 c 2
 268 43 l 2
 268 87 286 113 320 113 c 2
 322 113 l 2
 356 113 376 87 376 43 c 2
 376 -172 l 2
 376 -288 345 -417 212 -417 c 0
 93 -417 46 -297 46 -183 c 2
 46 64 l 2
 46 368 146 404 190 612 c 0
 197 644 207 661 226 661 c 2
EndSplineSet
EndChar

StartChar: yen
Encoding: 165 165 163
Width: 465
VWidth: 1920
Flags: HMW
LayerCount: 2
Fore
SplineSet
19 500 m 10
 19 502 l 18
 19 526 34 532 78 532 c 10
 387 532 l 18
 431 532 447 526 447 502 c 10
 447 500 l 18
 447 476 431 470 387 470 c 10
 78 470 l 18
 34 470 19 476 19 500 c 10
19 636 m 10
 19 638 l 18
 19 662 34 667 78 667 c 10
 387 667 l 18
 431 667 447 662 447 638 c 10
 447 636 l 18
 447 612 431 605 387 605 c 10
 78 605 l 18
 34 605 19 612 19 636 c 10
EndSplineSet
Refer: 36 89 N 1 0 0 1 0 0 2
EndChar

StartChar: gravecomb
Encoding: 768 768 164
Width: 0
Flags: HMW
AnchorPoint: "top" -611 1000 mark 0
LayerCount: 2
Fore
SplineSet
-584 1089 m 6
 -585 1089 l 6
 -609 1089 -623 1110 -646 1154 c 6
 -743 1340 l 6
 -766 1384 -733 1415 -699 1415 c 6
 -696 1415 l 6
 -662 1415 -635 1393 -620 1340 c 6
 -566 1154 l 6
 -553 1110 -560 1089 -584 1089 c 6
EndSplineSet
EndChar

StartChar: acutecomb
Encoding: 769 769 165
Width: 0
Flags: HMW
AnchorPoint: "top" -548 1000 mark 0
LayerCount: 2
Fore
SplineSet
-527 1089 m 6
 -551 1089 -558 1110 -545 1154 c 6
 -491 1340 l 6
 -476 1393 -449 1415 -415 1415 c 6
 -412 1415 l 6
 -378 1415 -345 1384 -368 1340 c 6
 -465 1154 l 6
 -488 1110 -502 1089 -526 1089 c 6
 -527 1089 l 6
EndSplineSet
EndChar

StartChar: uni0302
Encoding: 770 770 166
Width: 0
VWidth: 1920
Flags: HMW
AnchorPoint: "top" -557 1000 mark 0
LayerCount: 2
Fore
SplineSet
-558 1288 m 5
 -608 1160 l 6
 -624 1120 -637 1085 -661 1085 c 6
 -664 1085 l 6
 -688 1085 -703 1109 -686 1160 c 6
 -627 1340 l 6
 -613 1384 -593 1415 -559 1415 c 6
 -556 1415 l 6
 -522 1415 -502 1384 -487 1340 c 6
 -425 1160 l 6
 -408 1109 -420 1085 -446 1085 c 6
 -449 1085 l 6
 -474 1085 -488 1121 -504 1160 c 6
 -558 1288 l 5
EndSplineSet
EndChar

StartChar: tildecomb
Encoding: 771 771 167
Width: 0
Flags: HMW
AnchorPoint: "top" -572 1000 mark 0
LayerCount: 2
Fore
SplineSet
-634 1238 m 0
 -654 1238 -659 1221 -659 1192 c 0
 -659 1146 -671 1128 -689 1128 c 2
 -696 1128 l 2
 -715 1128 -729 1146 -723 1192 c 0
 -713 1269 -686 1310 -632 1310 c 0
 -556 1310 -535 1188 -496 1188 c 0
 -476 1188 -470 1216 -470 1244 c 0
 -470 1291 -458 1309 -440 1309 c 2
 -434 1309 l 2
 -415 1309 -401 1291 -407 1244 c 0
 -417 1167 -444 1128 -498 1128 c 0
 -574 1128 -595 1238 -634 1238 c 0
EndSplineSet
EndChar

StartChar: uni0304
Encoding: 772 772 168
Width: 0
VWidth: 1920
Flags: HMW
AnchorPoint: "top" -560 1000 mark 0
LayerCount: 2
Fore
SplineSet
-710 1248 m 10
 -710 1249 l 18
 -710 1270 -691 1285 -653 1285 c 10
 -467 1285 l 18
 -429 1285 -410 1270 -410 1249 c 10
 -410 1248 l 18
 -410 1227 -429 1212 -467 1212 c 10
 -653 1212 l 18
 -691 1212 -710 1227 -710 1248 c 10
EndSplineSet
EndChar

StartChar: uni0306
Encoding: 774 774 169
Width: 0
VWidth: 1920
Flags: HMW
AnchorPoint: "top" -560 1000 mark 0
LayerCount: 2
Fore
SplineSet
-560 1301 m 4
 -518 1301 -487 1324 -481 1354 c 4
 -476 1378 -463 1395 -439 1395 c 6
 -437 1395 l 6
 -413 1395 -401 1379 -404 1352 c 4
 -412 1283 -454 1223 -560 1223 c 4
 -666 1223 -709 1284 -716 1354 c 4
 -718 1378 -707 1395 -683 1395 c 6
 -681 1395 l 6
 -657 1395 -644 1379 -639 1353 c 4
 -633 1322 -601 1301 -560 1301 c 4
EndSplineSet
EndChar

StartChar: uni0307
Encoding: 775 775 170
Width: 0
Flags: HMW
AnchorPoint: "top" -549 1148 mark 0
LayerCount: 2
Fore
SplineSet
-548 1213 m 6
 -552 1213 l 6
 -587 1213 -612 1242 -612 1273 c 6
 -612 1277 l 6
 -612 1308 -587 1337 -552 1337 c 6
 -548 1337 l 6
 -513 1337 -488 1308 -488 1277 c 6
 -488 1273 l 6
 -488 1242 -513 1213 -548 1213 c 6
EndSplineSet
EndChar

StartChar: uni0308
Encoding: 776 776 171
Width: 0
Flags: HMW
AnchorPoint: "top" -548 1000 mark 0
LayerCount: 2
Fore
SplineSet
-634 1117 m 2
 -638 1117 l 2
 -673 1117 -698 1146 -698 1177 c 2
 -698 1181 l 2
 -698 1212 -673 1241 -638 1241 c 2
 -634 1241 l 2
 -599 1241 -574 1212 -574 1181 c 2
 -574 1177 l 2
 -574 1146 -599 1117 -634 1117 c 2
-454 1117 m 2
 -458 1117 l 2
 -493 1117 -518 1146 -518 1177 c 2
 -518 1181 l 2
 -518 1212 -493 1241 -458 1241 c 2
 -454 1241 l 2
 -419 1241 -394 1212 -394 1181 c 2
 -394 1177 l 2
 -394 1146 -419 1117 -454 1117 c 2
EndSplineSet
EndChar

StartChar: uni030A
Encoding: 778 778 172
Width: 0
Flags: HMW
AnchorPoint: "top" -554 1000 mark 0
LayerCount: 2
Fore
SplineSet
-458 1214 m 4
 -458 1162 -502 1120 -554 1120 c 4
 -607 1120 -652 1161 -652 1214 c 4
 -652 1265 -607 1310 -554 1310 c 4
 -501 1310 -458 1268 -458 1214 c 4
-504 1214 m 4
 -504 1242 -527 1262 -554 1262 c 4
 -581 1262 -604 1239 -604 1214 c 4
 -604 1187 -581 1166 -554 1166 c 4
 -528 1166 -504 1189 -504 1214 c 4
EndSplineSet
EndChar

StartChar: uni030B
Encoding: 779 779 173
Width: 0
Flags: HMW
AnchorPoint: "top" -542 1000 mark 0
LayerCount: 2
Fore
SplineSet
-460 1089 m 2
 -484 1089 -491 1110 -478 1154 c 2
 -424 1340 l 2
 -409 1393 -382 1415 -348 1415 c 2
 -345 1415 l 2
 -311 1415 -278 1384 -301 1340 c 2
 -398 1154 l 2
 -421 1110 -435 1089 -459 1089 c 2
 -460 1089 l 2
-637 1089 m 2
 -661 1089 -668 1110 -655 1154 c 2
 -601 1340 l 2
 -586 1393 -559 1415 -525 1415 c 2
 -522 1415 l 2
 -488 1415 -455 1384 -478 1340 c 2
 -575 1154 l 2
 -598 1110 -612 1089 -636 1089 c 2
 -637 1089 l 2
EndSplineSet
EndChar

StartChar: uni030C
Encoding: 780 780 174
Width: 0
Flags: HMW
AnchorPoint: "top" -554 1000 mark 0
LayerCount: 2
Fore
SplineSet
-554 1233 m 1
 -504 1361 l 2
 -488 1401 -475 1436 -451 1436 c 2
 -448 1436 l 2
 -424 1436 -409 1412 -426 1361 c 2
 -485 1181 l 2
 -499 1137 -519 1106 -553 1106 c 2
 -556 1106 l 2
 -590 1106 -610 1137 -625 1181 c 2
 -687 1361 l 2
 -704 1412 -692 1436 -666 1436 c 2
 -663 1436 l 2
 -638 1436 -624 1400 -608 1361 c 2
 -554 1233 l 1
EndSplineSet
EndChar

StartChar: uni030F
Encoding: 783 783 175
Width: 0
Flags: HMW
AnchorPoint: "top" -571 1000 mark 0
LayerCount: 2
Fore
SplineSet
-641 1089 m 2
 -642 1089 l 2
 -666 1089 -680 1110 -703 1154 c 2
 -800 1340 l 2
 -823 1384 -790 1415 -756 1415 c 2
 -753 1415 l 2
 -719 1415 -692 1393 -677 1340 c 2
 -623 1154 l 2
 -610 1110 -617 1089 -641 1089 c 2
-464 1089 m 2
 -465 1089 l 2
 -489 1089 -503 1110 -526 1154 c 2
 -623 1340 l 2
 -646 1384 -613 1415 -579 1415 c 2
 -576 1415 l 2
 -542 1415 -515 1393 -500 1340 c 2
 -446 1154 l 2
 -433 1110 -440 1089 -464 1089 c 2
EndSplineSet
EndChar

StartChar: uni0311
Encoding: 785 785 176
Width: 0
Flags: HMW
AnchorPoint: "top" -604 1152 mark 0
LayerCount: 2
Fore
SplineSet
-604 1309 m 0
 -646 1309 -677 1286 -683 1256 c 0
 -688 1232 -701 1215 -725 1215 c 2
 -727 1215 l 2
 -751 1215 -763 1231 -760 1258 c 0
 -752 1327 -710 1387 -604 1387 c 0
 -498 1387 -455 1326 -448 1256 c 0
 -446 1232 -457 1215 -481 1215 c 2
 -483 1215 l 2
 -507 1215 -520 1231 -525 1257 c 0
 -531 1288 -563 1309 -604 1309 c 0
EndSplineSet
EndChar

StartChar: dotbelowcomb
Encoding: 803 803 177
Width: 0
Flags: HMW
AnchorPoint: "bottom" -551 0 mark 0
LayerCount: 2
Fore
SplineSet
-548 -314 m 2
 -552 -314 l 2
 -587 -314 -612 -285 -612 -254 c 2
 -612 -250 l 2
 -612 -219 -587 -190 -552 -190 c 2
 -548 -190 l 2
 -513 -190 -488 -219 -488 -250 c 2
 -488 -254 l 2
 -488 -285 -513 -314 -548 -314 c 2
EndSplineSet
EndChar

StartChar: uni0326
Encoding: 806 806 178
Width: 0
Flags: HMW
AnchorPoint: "bottom" -561 0 mark 0
LayerCount: 2
Fore
SplineSet
-628 -485 m 2
 -628 -485 l 2
 -638 -485 -644 -478 -632 -456 c 2
 -582 -360 l 257
 -588 -360 l 2
 -616 -360 -639 -330 -639 -297 c 2
 -639 -291 l 2
 -639 -253 -612 -223 -568 -223 c 2
 -563 -223 l 2
 -519 -223 -491 -253 -491 -291 c 2
 -491 -297 l 2
 -491 -324 -507 -353 -528 -377 c 2
 -562 -417 l 2
 -608 -470 -618 -485 -628 -485 c 2
EndSplineSet
EndChar

StartChar: uni0327
Encoding: 807 807 179
Width: 1200
Flags: HMW
AnchorPoint: "bottom" -511 0 mark 0
LayerCount: 2
Fore
SplineSet
-610 -501 m 0
 -654 -501 -682 -490 -700 -479 c 0
 -717 -468 -726 -455 -717 -433 c 2
 -715 -428 l 2
 -709 -414 -693 -403 -668 -415 c 0
 -650 -423 -638 -426 -612 -426 c 0
 -568 -426 -538 -416 -538 -330 c 0
 -538 -248 -582 -234 -620 -232 c 0
 -647 -231 -654 -227 -657 -219 c 2
 -658 -216 l 2
 -661 -208 -656 -199 -654 -195 c 2
 -521 34 l 1
 -437 34 l 1
 -574 -193 l 1
 -566 -191 -558 -188 -550 -188 c 0
 -507 -188 -453 -211 -453 -330 c 0
 -453 -467 -530 -501 -610 -501 c 0
EndSplineSet
EndChar

StartChar: uni0328
Encoding: 808 808 180
Width: 1200
Flags: HMW
AnchorPoint: "ogonek" -551 0 mark 0
LayerCount: 2
Fore
SplineSet
-518 -348 m 6
 -518 -351 l 6
 -518 -375 -534 -393 -568 -393 c 2
 -578 -393 l 2
 -671 -393 -738 -333 -738 -220 c 0
 -738 -97 -662 -45 -547 38 c 1
 -517 0 l 1
 -604 -68 -650 -105 -650 -196 c 0
 -650 -268 -615 -302 -573 -302 c 2
 -568 -302 l 2
 -534 -302 -518 -324 -518 -348 c 6
EndSplineSet
EndChar

StartChar: uni0312
Encoding: 786 786 181
Width: 0
Flags: HMW
AnchorPoint: "top" -604 950 mark 0
LayerCount: 2
Fore
SplineSet
-525 1462 m 2
 -523 1462 l 2
 -515 1462 -507 1450 -512 1433 c 2
 -573 1240 l 1
 -572 1240 l 2
 -523 1240 -512 1199 -512 1150 c 2
 -512 1141 l 2
 -512 1074 -535 1036 -587 1036 c 2
 -590 1036 l 2
 -642 1036 -665 1074 -665 1141 c 2
 -665 1153 l 2
 -665 1190 -655 1222 -631 1270 c 2
 -544 1442 l 2
 -536 1459 -529 1462 -525 1462 c 2
EndSplineSet
EndChar

StartChar: sterling
Encoding: 163 163 182
Width: 487
VWidth: 1920
Flags: HMW
LayerCount: 2
Fore
SplineSet
44 687 m 10
 44 688 l 18
 44 712 60 722 104 722 c 10
 296 722 l 18
 340 722 356 712 356 688 c 10
 356 687 l 18
 356 663 340 653 296 653 c 10
 104 653 l 18
 60 653 44 663 44 687 c 10
41 90 m 0
 99 153 163 369 163 604 c 0
 163 803 69 907 69 1100 c 0
 69 1306 101 1417 248 1417 c 0
 398 1417 424 1279 428 1017 c 0
 429 973 412 948 378 948 c 2
 374 948 l 2
 341 948 325 973 324 1017 c 0
 320 1210 324 1334 253 1334 c 0
 183 1334 178 1272 178 1105 c 0
 178 945 262 819 262 606 c 0
 262 382 197 142 137 90 c 1
 386 90 l 2
 430 90 456 79 456 45 c 2
 456 44 l 2
 456 10 430 0 386 0 c 2
 84 0 l 2
 40 0 24 9 24 43 c 2
 24 44 l 2
 24 66 30 78 41 90 c 0
EndSplineSet
EndChar

StartChar: currency
Encoding: 164 164 183
Width: 1045
Flags: HMW
LayerCount: 2
Fore
SplineSet
753 946 m 10
 755 943 l 18
 769 926 772 903 749 880 c 10
 689 819 l 18
 687 817 684 817 682 819 c 10
 629 871 l 18
 627 873 627 877 629 879 c 10
 689 939 l 18
 712 962 739 963 753 946 c 10
353 596 m 10
 406 544 l 18
 408 542 408 538 406 536 c 10
 346 476 l 18
 330 460 300 454 283 469 c 10
 279 472 l 18
 262 487 270 519 286 535 c 10
 346 596 l 18
 348 598 351 598 353 596 c 10
279 943 m 10
 283 947 l 18
 299 963 324 962 354 932 c 10
 406 879 l 18
 408 877 408 873 406 871 c 10
 353 819 l 18
 351 817 348 817 346 819 c 10
 294 873 l 18
 264 904 263 927 279 943 c 10
629 544 m 10
 677 592 l 18
 679 594 687 598 689 596 c 10
 742 542 l 18
 772 511 774 485 756 472 c 10
 753 469 l 18
 735 456 712 453 682 483 c 10
 629 536 l 18
 627 538 627 542 629 544 c 10
273 709 m 0
 273 843 385 954 519 954 c 0
 653 954 763 843 763 709 c 0
 763 575 653 464 519 464 c 0
 385 464 273 575 273 709 c 0
366 709 m 0
 366 621 431 552 519 552 c 0
 607 552 671 621 671 709 c 0
 671 797 607 866 519 866 c 0
 431 866 366 797 366 709 c 0
EndSplineSet
EndChar

StartChar: brokenbar
Encoding: 166 166 184
Width: 395
VWidth: 1920
Flags: HMW
LayerCount: 2
Fore
SplineSet
197 445 m 10
 199 445 l 18
 226 445 244 417 244 370 c 10
 244 -300 l 18
 244 -357 224 -375 198 -375 c 10
 197 -375 l 18
 170 -375 152 -357 152 -300 c 10
 152 370 l 18
 152 417 170 445 197 445 c 10
197 1615 m 10
 199 1615 l 18
 226 1615 244 1587 244 1540 c 10
 244 870 l 18
 244 813 224 795 198 795 c 10
 197 795 l 18
 170 795 152 813 152 870 c 10
 152 1540 l 18
 152 1587 170 1615 197 1615 c 10
EndSplineSet
EndChar

StartChar: section
Encoding: 167 167 185
Width: 561
VWidth: 1920
Flags: HMW
LayerCount: 2
Back
SplineSet
256 853 m 5
 188 853 144 745 144 627 c 4
 144 473 173 390 264 286 c 4
 377 157 446 77 446 -84 c 4
 446 -272 380 -397 263 -397 c 4
 145 -397 94 -266 87 -54 c 4
 87 -48 88 -45 92 -45 c 6
 168 -45 l 6
 172 -45 173 -48 173 -55 c 4
 180 -185 196 -311 261 -311 c 4
 319 -311 347 -238 347 -107 c 4
 347 25 300 78 222 165 c 4
 88 316 46 449 46 592 c 4
 46 803 130 907 262 907 c 5
 256 853 l 5
304 183 m 5
 372 183 417 290 417 408 c 4
 417 519 388 645 297 749 c 4
 184 878 115 959 115 1120 c 4
 115 1308 181 1433 298 1433 c 4
 416 1433 467 1302 474 1090 c 4
 474 1084 473 1081 469 1081 c 6
 393 1081 l 6
 389 1081 388 1084 388 1091 c 4
 381 1230 365 1346 300 1346 c 4
 242 1346 214 1257 214 1143 c 4
 214 1011 261 958 339 871 c 4
 473 720 515 596 515 444 c 4
 515 233 431 129 299 129 c 5
 304 183 l 5
EndSplineSet
Fore
SplineSet
256 853 m 1
 188 853 144 745 144 627 c 0
 144 473 173 390 264 286 c 0
 377 157 446 77 446 -84 c 0
 446 -272 380 -397 263 -397 c 0
 145 -397 106 -276 87 -94 c 0
 83 -58 101 -30 130 -30 c 2
 132 -30 l 2
 161 -30 169 -58 173 -95 c 0
 183 -195 196 -311 261 -311 c 0
 319 -311 347 -238 347 -107 c 0
 347 25 300 78 222 165 c 0
 88 316 46 449 46 592 c 0
 46 803 130 907 262 907 c 1
 256 853 l 1
304 183 m 1
 372 183 417 290 417 408 c 0
 417 519 388 645 297 749 c 0
 184 878 115 959 115 1120 c 0
 115 1308 181 1433 298 1433 c 0
 416 1433 461 1302 472 1130 c 0
 475 1084 456 1066 432 1066 c 2
 431 1066 l 2
 407 1066 390 1084 386 1131 c 0
 376 1240 365 1346 300 1346 c 0
 242 1346 214 1257 214 1143 c 0
 214 1011 261 958 339 871 c 0
 473 720 515 596 515 444 c 0
 515 233 431 129 299 129 c 1
 304 183 l 1
EndSplineSet
EndChar

StartChar: copyright
Encoding: 169 169 186
Width: 844
Flags: HMW
LayerCount: 2
Fore
SplineSet
537 589 m 0
 537 359 537 240 410 240 c 0
 307 240 296 327 296 466 c 2
 296 876 l 2
 296 1025 323 1102 414 1102 c 0
 533 1102 533 974 533 795 c 4
 533 775 526 759 506 759 c 2
 502 759 l 2
 482 759 475 775 475 795 c 0
 472 987 465 1045 421 1045 c 0
 377 1045 367 990 367 879 c 2
 367 461 l 2
 367 361 371 297 415 297 c 0
 461 297 478 338 478 589 c 0
 478 615 491 625 505 625 c 2
 510 625 l 2
 524 625 537 615 537 589 c 0
769 668 m 0
 769 284 735 -28 421 -28 c 0
 107 -28 75 284 75 668 c 0
 75 1052 107 1366 421 1366 c 0
 735 1366 769 1052 769 668 c 0
723 668 m 0
 723 1006 709 1320 421 1320 c 0
 133 1320 121 1006 121 668 c 0
 121 330 133 18 421 18 c 0
 709 18 723 330 723 668 c 0
EndSplineSet
EndChar

StartChar: registered
Encoding: 174 174 188
Width: 844
Flags: HMW
LayerCount: 2
Fore
SplineSet
386 1065 m 1
 386 723 l 1
 409 723 l 2
 445 723 458 748 458 815 c 2
 458 973 l 2
 458 1039 445 1065 409 1065 c 2
 386 1065 l 1
409 1118 m 2
 491 1118 529 1074 529 968 c 2
 529 831 l 2
 529 724 483 688 409 688 c 1
 409 706 l 1
 485 706 526 684 526 607 c 2
 526 413 l 258
 526 374 532 330 543 310 c 0
 548 301 550 294 550 290 c 2
 550 288 l 2
 550 276 537 269 521 269 c 2
 518 269 l 2
 500 269 485 279 478 292 c 0
 462 322 458 383 458 413 c 258
 458 620 l 2
 458 655 449 674 408 674 c 2
 386 674 l 1
 386 311 l 2
 386 285 380 269 354 269 c 2
 351 269 l 2
 325 269 318 285 318 311 c 2
 318 1073 l 2
 318 1105 325 1118 363 1118 c 2
 409 1118 l 2
769 668 m 0
 769 284 735 -28 421 -28 c 0
 107 -28 75 284 75 668 c 0
 75 1052 107 1366 421 1366 c 0
 735 1366 769 1052 769 668 c 0
723 668 m 0
 723 1006 709 1320 421 1320 c 0
 133 1320 121 1006 121 668 c 0
 121 330 133 18 421 18 c 0
 709 18 723 330 723 668 c 0
EndSplineSet
EndChar

StartChar: dotlessi
Encoding: 305 305 279
Width: 233
VWidth: 960
Flags: HMW
AnchorPoint: "top" 117 1050 basechar 0
LayerCount: 2
Fore
SplineSet
174 995 m 6
 174 55 l 6
 174 11 163 -15 119 -15 c 6
 115 -15 l 6
 71 -15 60 11 60 55 c 6
 60 995 l 6
 60 1039 71 1065 115 1065 c 6
 119 1065 l 6
 163 1065 174 1039 174 995 c 6
EndSplineSet
EndChar

StartChar: uni0237
Encoding: 567 567 291
Width: 233
VWidth: 960
Flags: HMW
AnchorPoint: "top" 116 1050 basechar 0
LayerCount: 2
Fore
SplineSet
174 -74 m 6
 174 -180 147 -209 50 -204 c 4
 15 -202 -21 -190 -21 -166 c 6
 -21 -165 l 6
 -21 -132 -4 -121 22 -125 c 4
 44 -129 60 -118 60 -58 c 6
 60 995 l 6
 60 1039 73 1065 117 1065 c 6
 118 1065 l 6
 162 1065 174 1039 174 995 c 6
 174 -74 l 6
EndSplineSet
EndChar

StartChar: kgreenlandic
Encoding: 312 312 298
Width: 416
VWidth: 960
Flags: HMW
LayerCount: 2
Fore
SplineSet
115 1065 m 6
 119 1065 l 6
 163 1065 174 1039 174 995 c 6
 174 55 l 2
 174 11 162 -15 119 -15 c 2
 115 -15 l 2
 71 -15 60 11 60 55 c 2
 60 995 l 6
 60 1039 71 1065 115 1065 c 6
132 417 m 1
 284 995 l 2
 295 1036 301 1065 345 1065 c 2
 348 1065 l 2
 392 1065 403 1036 389 995 c 2
 163 352 l 1
 132 417 l 1
210 595 m 1
 268 718 l 1
 412 55 l 2
 421 13 405 -15 362 -15 c 2
 359 -15 l 2
 314 -15 299 12 292 55 c 2
 210 595 l 1
EndSplineSet
EndChar

StartChar: grave
Encoding: 96 96 339
Width: 320
VWidth: 0
Flags: HMW
LayerCount: 2
Fore
SplineSet
215 1089 m 6
 214 1089 l 6
 190 1089 176 1110 153 1154 c 6
 56 1340 l 6
 33 1384 66 1415 100 1415 c 6
 103 1415 l 6
 137 1415 164 1393 179 1340 c 6
 233 1154 l 6
 246 1110 239 1089 215 1089 c 6
EndSplineSet
EndChar

StartChar: longs
Encoding: 383 383 352
Width: 273
VWidth: 960
Flags: HMW
LayerCount: 2
Fore
SplineSet
79 1334 m 2
 79 1440 106 1469 203 1464 c 0
 238 1462 254 1450 254 1426 c 2
 254 1425 l 2
 254 1392 237 1386 221 1388 c 0
 199 1391 191 1378 191 1318 c 2
 191 55 l 2
 191 11 179 -15 135 -15 c 2
 134 -15 l 2
 90 -15 79 11 79 55 c 2
 79 1334 l 2
EndSplineSet
EndChar

StartChar: uni0259
Encoding: 601 601 359
Width: 407
VWidth: 1800
Flags: HMW
LayerCount: 2
Fore
SplineSet
39 690 m 0
 39 1048 112 1068 207 1068 c 4
 347 1068 369 981 369 820 c 2
 369 229 l 2
 369 73 335 -17 199 -17 c 0
 67 -17 39 79 36 200 c 0
 33 333 32 345 32 485 c 0
 32 537 53 559 107 559 c 2
 298 559 l 1
 298 496 l 1
 143 496 l 1
 145 117 145 56 202 56 c 0
 247 56 256 110 256 209 c 2
 256 841 l 2
 256 947 247 993 203 993 c 0
 154 993 151 933 141 688 c 0
 139 646 134 620 90 620 c 2
 86 620 l 2
 42 620 39 647 39 690 c 0
EndSplineSet
EndChar

StartChar: logicalnot
Encoding: 172 172 373
Width: 596
VWidth: 2048
Flags: HMW
LayerCount: 2
Fore
SplineSet
56 659 m 2
 56 667 l 2
 56 704 82 712 126 712 c 2
 452 712 l 6
 516 712 527 699 527 632 c 6
 527 391 l 2
 527 344 516 317 487 317 c 2
 481 317 l 2
 452 317 441 344 441 391 c 2
 441 614 l 1
 126 614 l 2
 82 614 56 622 56 659 c 2
EndSplineSet
EndChar

StartChar: acute
Encoding: 180 180 374
Width: 319
Flags: HMW
LayerCount: 2
Fore
SplineSet
105 1089 m 2
 81 1089 74 1110 87 1154 c 2
 141 1340 l 2
 156 1393 183 1415 217 1415 c 2
 220 1415 l 2
 254 1415 287 1384 264 1340 c 2
 167 1154 l 2
 144 1110 130 1089 106 1089 c 2
 105 1089 l 2
EndSplineSet
EndChar

StartChar: degree
Encoding: 176 176 376
Width: 446
VWidth: 2048
Flags: HMW
LayerCount: 2
Fore
SplineSet
47 1235 m 2
 47 1252 l 2
 47 1351 129 1417 221 1417 c 0
 313 1417 399 1351 399 1252 c 2
 399 1235 l 2
 399 1136 313 1069 221 1069 c 0
 129 1069 47 1136 47 1235 c 2
137 1230 m 2
 137 1173 176 1141 221 1141 c 0
 266 1141 309 1173 309 1230 c 2
 309 1256 l 2
 309 1313 266 1344 221 1344 c 0
 176 1344 137 1313 137 1256 c 2
 137 1230 l 2
EndSplineSet
EndChar

StartChar: plusminus
Encoding: 177 177 377
Width: 575
Flags: HMW
LayerCount: 2
Fore
SplineSet
35 557 m 14
 35 560 l 22
 35 594 62 603 96 603 c 14
 480 603 l 22
 514 603 541 595 541 561 c 14
 541 556 l 22
 541 522 514 513 480 513 c 14
 96 513 l 22
 62 513 35 523 35 557 c 14
35 939 m 10
 35 944 l 18
 35 978 62 985 96 985 c 10
 480 985 l 18
 514 985 541 976 541 942 c 10
 541 940 l 18
 541 906 514 896 480 896 c 10
 96 896 l 18
 62 896 35 905 35 939 c 10
285 1180 m 10
 291 1180 l 18
 325 1180 332 1153 332 1109 c 10
 332 749 l 18
 332 715 325 690 291 690 c 10
 285 690 l 18
 251 690 244 715 244 749 c 10
 244 1109 l 18
 244 1153 251 1180 285 1180 c 10
EndSplineSet
EndChar

StartChar: ae
Encoding: 230 230 379
Width: 597
VWidth: 960
Flags: HMW
LayerCount: 2
Back
SplineSet
131 248 m 4
 131 112 150 79 178 79 c 4
 208 79 232 165 232 265 c 5
 282 225 l 5
 282 97 241 -18 154 -18 c 4
 75 -18 18 41 18 242 c 4
 18 460 75 525 162 610 c 4
 195 641 232 699 232 743 c 5
 252 663 l 5
 251 632 210 568 191 539 c 4
 150 479 131 417 131 248 c 4
232 195 m 13
 232 862 l 6
 232 940 231 991 196 991 c 4
 160 991 148 919 145 715 c 4
 145 712 143 710 140 710 c 6
 49 710 l 6
 45 710 44 712 44 715 c 4
 47 970 89 1067 207 1067 c 4
 308 1067 306 988 306 831 c 6
 306 194 l 21
 232 195 l 13
560 410 m 4
 552 77 543 -18 399 -18 c 4
 285 -18 264 69 264 230 c 6
 264 821 l 6
 264 977 288 1067 411 1067 c 4
 534 1067 558 969 561 843 c 4
 564 716 564 630 564 495 c 4
 564 493 564 491 560 491 c 6
 299 491 l 5
 299 554 l 5
 454 554 l 5
 452 933 452 994 395 994 c 4
 350 994 341 940 341 841 c 6
 341 209 l 6
 341 103 350 57 394 57 c 4
 443 57 451 117 456 412 c 4
 456 414 458 415 462 415 c 6
 556 415 l 6
 560 415 560 413 560 410 c 4
EndSplineSet
Fore
SplineSet
131 248 m 0
 131 112 150 79 178 79 c 0
 208 79 232 165 232 265 c 1
 282 225 l 1
 282 97 241 -18 154 -18 c 0
 75 -18 18 41 18 242 c 0
 18 460 75 525 162 610 c 0
 195 641 232 699 232 743 c 1
 252 663 l 1
 251 632 210 568 191 539 c 0
 150 479 131 417 131 248 c 0
232 195 m 9
 232 862 l 2
 232 940 231 991 196 991 c 0
 160 991 151 919 146 765 c 0
 145 722 128 695 95 695 c 2
 94 695 l 2
 60 695 43 722 45 765 c 0
 55 969 89 1067 207 1067 c 0
 308 1067 306 988 306 831 c 2
 306 194 l 17
 232 195 l 9
560 360 m 4
 544 77 543 -18 399 -18 c 4
 285 -18 264 69 264 230 c 6
 264 821 l 6
 264 977 288 1067 411 1067 c 4
 534 1067 558 969 561 843 c 4
 564 716 564 640 564 565 c 4
 564 503 554 491 490 491 c 6
 299 491 l 5
 299 554 l 5
 454 554 l 5
 452 933 452 994 395 994 c 4
 350 994 341 940 341 841 c 6
 341 209 l 6
 341 103 350 57 394 57 c 4
 443 57 448 112 456 362 c 4
 457 404 473 430 507 430 c 6
 511 430 l 6
 545 430 562 403 560 360 c 4
EndSplineSet
EndChar

StartChar: paragraph
Encoding: 182 182 380
Width: 559
VWidth: 1920
Flags: HMW
LayerCount: 2
Fore
SplineSet
491 1321 m 1
 491 -300 l 2
 491 -347 485 -375 451 -375 c 6
 444 -375 l 6
 410 -375 404 -347 404 -300 c 2
 404 1321 l 1
 342 1321 l 1
 342 -300 l 2
 342 -347 336 -375 302 -375 c 6
 295 -375 l 6
 261 -375 255 -347 255 -300 c 2
 255 575 l 1
 250 575 l 2
 143 575 47 680 47 956 c 2
 47 1020 l 2
 47 1296 143 1400 250 1400 c 2
 500 1400 l 2
 542 1400 559 1389 559 1362 c 2
 559 1359 l 2
 559 1332 544 1321 500 1321 c 2
 491 1321 l 1
EndSplineSet
EndChar

StartChar: guilsinglleft
Encoding: 8249 8249 381
Width: 630
Flags: HMW
LayerCount: 2
Fore
SplineSet
420 280 m 6
 210 459 l 6
 174.870071851 488.79017907 135 518 135 555 c 6
 135 565 l 6
 135 602 170.841420564 632.492554171 210 661 c 6
 420 813 l 6
 452.741801083 836.698827451 485 836 485 799 c 6
 485 794 l 6
 485 757 459.294707267 737.184903941 420 708 c 6
 214 555 l 5
 420 385 l 6
 456.466412471 354.906358641 485 333 485 296 c 6
 485 291 l 6
 485 254 449.196622056 255.113355485 420 280 c 6
EndSplineSet
EndChar

StartChar: guilsinglright
Encoding: 8250 8250 382
Width: 630
Flags: HWO
LayerCount: 2
Fore
SplineSet
210 820 m 2
 420 641 l 2
 455.129882812 611.209960938 495 582 495 545 c 2
 495 535 l 2
 495 498 459.158203125 467.5078125 420 439 c 2
 210 287 l 2
 177.2578125 263.30078125 145 264 145 301 c 2
 145 306 l 2
 145 343 170.705078125 362.815429688 210 392 c 2
 416 545 l 1
 210 715 l 2
 173.533203125 745.09375 145 767 145 804 c 2
 145 809 l 2
 145 846 180.803710938 844.88671875 210 820 c 2
EndSplineSet
EndChar

StartChar: mu
Encoding: 181 181 385
Width: 409
VWidth: 1920
Flags: HW
LayerCount: 2
Fore
SplineSet
106 1065 m 6
 110 1065 l 6
 140 1065 160 1052 160 1005 c 6
 160 -300 l 2
 160 -347 152 -375 105 -375 c 2
 101 -375 l 2
 54 -375 46 -347 46 -300 c 2
 46 1005 l 6
 46 1052 69 1065 106 1065 c 6
307 -15 m 2
 298 -15 l 2
 254 -15 249 11 249 55 c 2
 249 116 l 1
 243 129 l 1
 243 995 l 2
 243 1039 255 1065 299 1065 c 2
 302 1065 l 2
 346 1065 358 1039 358 995 c 2
 358 55 l 2
 358 11 351 -15 307 -15 c 2
261 174 m 1
 261 63 241 -18 197 -18 c 0
 161 -18 98 43 98 150 c 2
 98 1060 l 6
 98 1064 104 1065 108 1065 c 6
 105 1065 l 6
 109 1065 160 1004 160 1000 c 6
 160 153 l 2
 160 94 167 60 199 60 c 0
 235 60 245 118 245 223 c 1
 261 174 l 1
EndSplineSet
EndChar

StartChar: Eth
Encoding: 208 208 387
Width: 506
VWidth: 1920
Flags: HW
LayerCount: 2
Fore
SplineSet
-13 711 m 10
 -13 714 l 18
 -13 748 12 757 56 757 c 10
 232 757 l 18
 276 757 301 748 301 714 c 10
 301 711 l 18
 301 677 276 668 232 668 c 10
 56 668 l 18
 12 668 -13 677 -13 711 c 10
EndSplineSet
Refer: 15 68 N 1 0 0 1 0 0 2
EndChar

StartChar: Dcroat
Encoding: 272 272 388
Width: 506
VWidth: 1920
Flags: HW
LayerCount: 2
Fore
SplineSet
-13 711 m 14
 -13 714 l 22
 -13 748 12 757 56 757 c 14
 232 757 l 22
 276 757 301 748 301 714 c 14
 301 711 l 22
 301 677 276 668 232 668 c 14
 56 668 l 22
 12 668 -13 677 -13 711 c 14
EndSplineSet
Refer: 15 68 N 1 0 0 1 0 0 2
EndChar

StartChar: thorn
Encoding: 254 254 389
Width: 441
VWidth: 960
Flags: HW
LayerCount: 2
Fore
SplineSet
107 1465 m 2
 111 1465 l 2
 155 1465 166 1439 166 1395 c 2
 166 -305 l 2
 166 -349 154 -375 110 -375 c 2
 107 -375 l 2
 63 -375 51 -349 51 -305 c 2
 51 1395 l 2
 51 1439 63 1465 107 1465 c 2
139 846 m 1
 139 991 180 1068 261 1068 c 0
 348 1068 399 996 399 826 c 2
 399 223 l 2
 399 53 348 -17 261 -17 c 0
 180 -17 139 60 139 205 c 1
 166 205 l 1
 166 106 170 65 224 65 c 0
 274 65 286 113 286 212 c 2
 286 839 l 2
 286 938 274 985 224 985 c 0
 170 985 166 945 166 846 c 1
 139 846 l 1
EndSplineSet
EndChar

StartChar: Thorn
Encoding: 222 222 390
Width: 456
VWidth: 1800
Flags: HW
LayerCount: 2
Fore
SplineSet
211 1136 m 2
 335 1136 408 1093 408 878 c 2
 408 612 l 2
 408 396 335 354 215 354 c 2
 192 354 l 1
 192 59 l 2
 192 12 185 -15 138 -15 c 2
 133 -15 l 2
 86 -15 79 12 79 59 c 2
 79 1341 l 6
 79 1388 86 1415 133 1415 c 6
 138 1415 l 6
 185 1415 192 1388 192 1341 c 6
 192 1136 l 1
 211 1136 l 2
192 435 m 1
 211 435 l 2
 274 435 294 484 294 595 c 2
 294 889 l 2
 294 1000 274 1049 211 1049 c 2
 192 1049 l 1
 192 435 l 1
EndSplineSet
EndChar

StartChar: divide
Encoding: 247 247 391
Width: 581
VWidth: 2048
Flags: HW
LayerCount: 2
Fore
SplineSet
-3 691 m 10
 -3 694 l 18
 -3 728 23 734 67 734 c 10
 514 734 l 18
 558 734 584 728 584 694 c 10
 584 691 l 18
 584 657 558 651 514 651 c 10
 67 651 l 18
 23 651 -3 657 -3 691 c 10
EndSplineSet
Refer: 1 46 N 1 0 0 1 146 927 2
Refer: 1 46 N 1 0 0 1 146 225 2
EndChar

StartChar: multiply
Encoding: 215 215 392
Width: 588
VWidth: 1920
Flags: HW
LayerCount: 2
Fore
SplineSet
476 537 m 10
 470 531 l 18
 447 508 426 526 396 556 c 10
 138 814 l 18
 108 844 90 865 113 888 c 10
 119 894 l 18
 142 917 163 899 193 869 c 10
 451 611 l 18
 481 581 499 560 476 537 c 10
119 531 m 10
 113 537 l 18
 90 560 108 581 138 611 c 10
 396 869 l 18
 426 899 447 917 470 894 c 10
 476 888 l 18
 499 865 481 844 451 814 c 10
 193 556 l 18
 163 526 142 508 119 531 c 10
EndSplineSet
EndChar

StartChar: Oslash
Encoding: 216 216 393
Width: 502
VWidth: 1920
Flags: HW
LayerCount: 2
Fore
SplineSet
351 1490 m 6
 354 1489 l 6
 365 1485 366 1476 361 1444 c 6
 147 -54 l 6
 142 -86 134 -92 121 -88 c 6
 118 -87 l 6
 107 -83 106 -74 111 -42 c 6
 325 1456 l 6
 330 1488 338 1494 351 1490 c 6
EndSplineSet
Refer: 26 79 N 1 0 0 1 0 0 2
EndChar

StartChar: oslash
Encoding: 248 248 394
Width: 418
VWidth: 1920
Flags: HW
LayerCount: 2
Fore
SplineSet
322 1209 m 2
 325 1208 l 2
 336 1204 338 1195 332 1163 c 2
 120 -54 l 2
 114 -86 107 -92 94 -88 c 2
 91 -87 l 2
 80 -83 78 -74 84 -42 c 2
 296 1175 l 2
 302 1207 309 1213 322 1209 c 2
EndSplineSet
Refer: 52 111 N 1 0 0 1 0 0 2
EndChar

StartChar: germandbls
Encoding: 223 223 396
Width: 482
VWidth: 1920
Flags: HW
LayerCount: 2
Fore
SplineSet
61 1192 m 2
 61 1366 88 1484 201 1484 c 0
 331 1484 365 1370 365 1212 c 0
 365 1020 335 951 335 830 c 0
 335 618 444 573 444 313 c 0
 444 91 384 -28 274 -28 c 0
 233 -28 220 -9 220 16 c 2
 220 19 l 2
 220 47 246 66 270 81 c 0
 290 94 334 135 334 311 c 0
 334 549 226 574 226 834 c 0
 226 978 256 1082 256 1208 c 0
 256 1314 241 1388 207 1388 c 0
 174 1388 173 1298 173 1171 c 2
 173 59 l 2
 173 12 162 -15 118 -15 c 2
 116 -15 l 2
 72 -15 61 12 61 59 c 2
 61 1192 l 2
EndSplineSet
EndChar

StartChar: eth
Encoding: 240 240 397
Width: 425
VWidth: 1920
Flags: HW
LayerCount: 2
Fore
SplineSet
158 1233 m 10
 155 1238 l 18
 144 1256 162 1270 193 1290 c 10
 332 1381 l 18
 363 1401 382 1399 389 1389 c 10
 391 1386 l 18
 400 1372 391 1356 360 1336 c 10
 220 1243 l 18
 189 1223 169 1215 158 1233 c 10
203 982 m 0
 152 982 147 897 147 793 c 2
 147 249 l 2
 147 147 160 68 216 68 c 0
 271 68 280 155 280 237 c 2
 280 873 l 2
 280 1232 233 1338 131 1397 c 0
 92 1419 73 1446 89 1470 c 2
 91 1473 l 2
 107 1497 130 1500 170 1478 c 0
 334 1389 392 1212 392 956 c 2
 392 269 l 2
 392 117 367 -17 211 -17 c 0
 74 -17 33 90 33 229 c 2
 33 807 l 2
 33 944 51 1067 164 1067 c 0
 254 1067 309 952 309 855 c 1
 280 766 l 1
 280 825 l 2
 280 915 245 982 203 982 c 0
EndSplineSet
EndChar

StartChar: dcroat
Encoding: 273 273 398
Width: 441
VWidth: 1920
Flags: HW
LayerCount: 2
Fore
SplineSet
170 1231 m 10
 170 1234 l 18
 170 1268 195 1276 239 1276 c 10
 425 1276 l 18
 469 1276 494 1268 494 1234 c 10
 494 1231 l 18
 494 1197 469 1189 425 1189 c 10
 239 1189 l 18
 195 1189 170 1197 170 1231 c 10
EndSplineSet
Refer: 41 100 N 1 0 0 1 0 0 2
EndChar

StartChar: Hbar
Encoding: 294 294 399
Width: 505
VWidth: 1920
Flags: HW
LayerCount: 2
Fore
SplineSet
9 1083 m 10
 9 1152 l 18
 9 1156 10 1157 14 1157 c 10
 491 1157 l 18
 495 1157 496 1156 496 1152 c 10
 496 1083 l 18
 496 1079 495 1078 491 1078 c 10
 14 1078 l 18
 10 1078 9 1079 9 1083 c 10
EndSplineSet
Refer: 19 72 N 1 0 0 1 0 0 2
EndChar

StartChar: hbar
Encoding: 295 295 400
Width: 426
VWidth: 1920
Flags: HW
LayerCount: 2
Fore
SplineSet
2 1225 m 10
 2 1294 l 18
 2 1298 2 1299 6 1299 c 10
 258 1299 l 18
 262 1299 262 1298 262 1294 c 10
 262 1225 l 18
 262 1221 262 1220 258 1220 c 10
 6 1220 l 18
 2 1220 2 1221 2 1225 c 10
EndSplineSet
Refer: 45 104 N 1 0 0 1 0 0 2
EndChar

StartChar: Lslash
Encoding: 321 321 405
Width: 349
VWidth: 1920
Flags: HW
LayerCount: 2
Fore
SplineSet
276 959 m 6
 277 957 l 6
 283 945 274 934 241 915 c 6
 49 803 l 6
 20 786 1 782 -5 794 c 6
 -6 796 l 6
 -12 807 0 821 29 838 c 6
 221 950 l 6
 254 969 270 971 276 959 c 6
EndSplineSet
Refer: 23 76 N 1 0 0 1 0 0 2
EndChar

StartChar: lslash
Encoding: 322 322 406
Width: 233
VWidth: 1920
Flags: HW
LayerCount: 2
Fore
SplineSet
265 959 m 2
 266 957 l 2
 272 945 263 934 230 915 c 2
 38 803 l 2
 9 786 -10 782 -16 794 c 2
 -17 796 l 2
 -23 807 -11 821 18 838 c 2
 210 950 l 2
 243 969 259 971 265 959 c 2
EndSplineSet
Refer: 49 108 N 1 0 0 1 0 0 2
EndChar

StartChar: eng
Encoding: 331 331 408
Width: 409
VWidth: 960
Flags: HW
LayerCount: 2
Fore
SplineSet
102 1065 m 2
 111 1065 l 2
 155 1065 160 1039 160 995 c 2
 160 934 l 1
 166 921 l 1
 166 55 l 2
 166 11 154 -15 110 -15 c 2
 107 -15 l 2
 63 -15 51 11 51 55 c 2
 51 995 l 2
 51 1039 58 1065 102 1065 c 2
363 -74 m 2
 363 -180 336 -209 239 -204 c 0
 204 -202 168 -190 168 -166 c 2
 168 -165 l 2
 168 -132 185 -121 211 -125 c 0
 233 -129 250 -118 250 -58 c 2
 250 898 l 2
 250 957 242 990 210 990 c 0
 174 990 166 933 166 828 c 1
 149 877 l 1
 149 988 170 1067 255 1067 c 0
 333 1067 363 1008 363 901 c 2
 363 -74 l 2
EndSplineSet
EndChar

StartChar: Eng
Encoding: 330 330 409
Width: 502
VWidth: 960
Flags: HW
LayerCount: 2
Back
SplineSet
341 1400 m 2
 429 1400 l 2
 433 1400 434 1399 434 1395 c 1
 434 -65 l 2
 434 -178 418 -221 259 -198 c 0
 255 -197 254 -196 254 -192 c 2
 254 -128 l 2
 254 -125 255 -123 259 -124 c 0
 313 -133 320 -116 320 -52 c 2
 320 217 l 1
 166 1065 l 1
 166 5 l 2
 166 1 165 0 161 0 c 2
 74 0 l 2
 70 0 69 1 69 5 c 2
 69 1395 l 2
 69 1399 70 1400 74 1400 c 2
 184 1400 l 2
 188 1400 190 1399 193 1395 c 2
 336 559 l 1
 336 1395 l 2
 336 1399 337 1400 341 1400 c 2
EndSplineSet
Fore
SplineSet
381 1415 m 2
 389 1415 l 2
 413 1415 434 1389 434 1345 c 2
 434 -74 l 2
 434 -180 407 -209 310 -204 c 0
 275 -202 239 -190 239 -166 c 2
 239 -165 l 2
 239 -132 256 -121 282 -125 c 0
 304 -129 320 -118 320 -58 c 2
 320 224 l 1
 166 1065 l 1
 166 55 l 2
 166 11 155 -15 121 -15 c 2
 114 -15 l 2
 80 -15 69 11 69 55 c 2
 69 1345 l 2
 69 1389 95 1415 129 1415 c 2
 134 1415 l 2
 168 1415 195 1388 202 1345 c 2
 336 560 l 1
 336 1345 l 2
 336 1389 357 1415 381 1415 c 2
EndSplineSet
EndChar

StartChar: oe
Encoding: 339 339 410
Width: 636
VWidth: 960
Flags: HW
LayerCount: 2
Fore
SplineSet
38 230 m 2
 38 821 l 2
 38 972 73 1067 202 1067 c 0
 336 1067 346 972 346 821 c 2
 346 230 l 2
 346 79 336 -18 202 -18 c 0
 73 -18 38 79 38 230 c 2
153 209 m 2
 153 118 159 57 209 57 c 0
 259 57 264 118 264 209 c 2
 264 841 l 2
 264 932 259 994 209 994 c 0
 159 994 153 932 153 841 c 2
 153 209 l 2
600 360 m 0
 584 77 583 -18 439 -18 c 0
 325 -18 304 69 304 230 c 2
 304 821 l 2
 304 977 328 1067 451 1067 c 0
 574 1067 598 969 601 843 c 0
 604 716 604 640 604 565 c 0
 604 503 594 491 530 491 c 2
 339 491 l 1
 339 554 l 1
 494 554 l 1
 492 933 492 994 435 994 c 0
 390 994 381 940 381 841 c 2
 381 209 l 2
 381 103 390 57 434 57 c 0
 483 57 488 112 496 362 c 0
 497 404 513 430 547 430 c 2
 551 430 l 2
 585 430 602 403 600 360 c 0
EndSplineSet
EndChar

StartChar: OE
Encoding: 338 338 411
Width: 675
VWidth: 1920
Flags: HW
LayerCount: 2
Fore
SplineSet
277 1400 m 2
 422 1400 l 2
 426 1400 428 1399 428 1395 c 2
 428 5 l 2
 428 1 426 0 422 0 c 2
 277 0 l 2
 101 0 47 124 47 382 c 2
 47 1026 l 2
 47 1284 81 1400 277 1400 c 2
274 1312 m 2
 190 1312 166 1237 166 1031 c 2
 166 378 l 2
 166 172 190 88 274 88 c 2
 314 88 l 1
 314 1312 l 1
 274 1312 l 2
EndSplineSet
Refer: 16 69 N 1 0 0 1 235 0 2
EndChar

StartChar: Tbar
Encoding: 358 358 413
Width: 405
VWidth: 1920
Flags: HW
LayerCount: 2
Fore
SplineSet
-1 660 m 10
 -1 723 l 18
 -1 727 1 728 5 728 c 10
 386 728 l 18
 390 728 392 727 392 723 c 10
 392 660 l 18
 392 656 390 655 386 655 c 10
 5 655 l 18
 1 655 -1 656 -1 660 c 10
EndSplineSet
Refer: 31 84 N 1 0 0 1 0 0 2
EndChar

StartChar: tbar
Encoding: 359 359 414
Width: 287
VWidth: 1920
Flags: HW
LayerCount: 2
Fore
SplineSet
15 590 m 10
 15 653 l 18
 15 657 16 658 20 658 c 10
 255 658 l 18
 259 658 260 657 260 653 c 10
 260 590 l 18
 260 586 259 585 255 585 c 10
 20 585 l 18
 16 585 15 586 15 590 c 10
EndSplineSet
Refer: 57 116 N 1 0 0 1 0 0 2
EndChar

StartChar: uni0394
Encoding: 916 916 430
Width: 455
VWidth: 960
Flags: HW
LayerCount: 2
Fore
SplineSet
67 0 m 2
 43 0 20 27 24 70 c 2
 145 1345 l 2
 149 1388 162 1415 196 1415 c 2
 250 1415 l 2
 284 1415 297 1388 301 1345 c 2
 431 70 l 2
 435 27 417 0 383 0 c 2
 67 0 l 2
123 81 m 1
 312 81 l 1
 215 1250 l 1
 123 81 l 1
EndSplineSet
EndChar

StartChar: uni03A9
Encoding: 937 937 431
Width: 556
VWidth: 1920
Flags: HW
LayerCount: 2
Fore
SplineSet
293 98 m 4
 359 200 361 310 361 488 c 2
 361 1053 l 2
 361 1238 347 1334 252 1334 c 0
 157 1334 143 1238 143 1053 c 2
 143 488 l 2
 143 310 144 200 212 98 c 0
 216 92 235 74 235 48 c 6
 235 45 l 2
 235 11 220 0 176 0 c 2
 82 0 l 2
 38 0 11 10 11 44 c 2
 11 45 l 2
 11 79 38 90 82 90 c 2
 139 90 l 1
 55 203 24 326 24 512 c 2
 24 1054 l 2
 24 1291 67 1417 252 1417 c 0
 437 1417 480 1291 480 1054 c 2
 480 512 l 2
 480 326 446 203 364 90 c 1
 422 90 l 2
 466 90 491 79 491 45 c 2
 491 44 l 2
 491 10 466 0 422 0 c 2
 329 0 l 2
 285 0 268 1 268 45 c 6
 268 48 l 6
 268 74 288 91 293 98 c 4
EndSplineSet
EndChar

StartChar: pi
Encoding: 960 960 432
Width: 473
VWidth: 1920
Flags: HW
LayerCount: 2
Fore
SplineSet
186 1020 m 2
 186 55 l 2
 186 11 165 -15 131 -15 c 2
 127 -15 l 2
 93 -15 72 11 72 55 c 2
 72 1020 l 2
 72 1024 73 1025 77 1025 c 2
 181 1025 l 2
 185 1025 186 1024 186 1020 c 2
477 42 m 2
 477 40 l 2
 477 6 462 -9 408 -10 c 4
 307 -13 258 22 258 132 c 2
 258 965 l 2
 258 1009 269 1035 313 1035 c 2
 314 1035 l 2
 358 1035 369 1009 369 965 c 2
 369 145 l 2
 369 82 399 74 438 74 c 0
 460 74 477 75 477 42 c 2
-5 1004 m 10
 -5 1006 l 18
 -5 1040 21 1050 65 1050 c 10
 384 1050 l 18
 428 1050 454 1040 454 1006 c 10
 454 1004 l 18
 454 970 428 960 384 960 c 10
 65 960 l 18
 21 960 -5 970 -5 1004 c 10
EndSplineSet
EndChar

StartChar: minute
Encoding: 8242 8242 433
Width: 221
VWidth: 1920
Flags: HW
LayerCount: 2
Fore
SplineSet
47 915 m 2
 45 915 l 2
 31 915 24.144971225 924.099753357 26 940 c 2
 73 1340 l 2
 79.6203806762 1396.34366533 103 1420 137 1420 c 2
 141 1420 l 2
 185 1420 192.997832652 1383.23543298 181 1340 c 2
 70 940 l 2
 65.8232765886 924.877380752 61 915 47 915 c 2
EndSplineSet
EndChar

StartChar: Euro
Encoding: 8364 8364 435
Width: 511
VWidth: 1920
Flags: HW
LayerCount: 2
Fore
SplineSet
-48 601 m 10
 -48 609 l 18
 -48 633 -22 639 22 639 c 10
 215 639 l 18
 259 639 285 633 285 609 c 10
 285 601 l 18
 285 577 259 571 215 571 c 10
 22 571 l 18
 -22 571 -48 577 -48 601 c 10
-48 776 m 10
 -48 784 l 18
 -48 808 -22 814 22 814 c 10
 215 814 l 18
 259 814 285 808 285 784 c 10
 285 776 l 18
 285 752 259 746 215 746 c 10
 22 746 l 18
 -22 746 -48 752 -48 776 c 10
449 326 m 0
 449 220 443 -18 238 -18 c 0
 65 -18 47 127 47 358 c 2
 47 1042 l 2
 47 1290 91 1418 243 1418 c 0
 442 1418 433 1266 443 1164 c 0
 447 1120 432 1095 398 1095 c 2
 391 1095 l 2
 357 1095 350 1120 346 1164 c 0
 336 1264 328 1323 255 1323 c 0
 182 1323 166 1231 166 1046 c 2
 166 349 l 2
 166 183 172 77 246 77 c 0
 322 77 351 201 351 326 c 0
 351 370 362 385 396 385 c 2
 404 385 l 2
 438 385 449 370 449 326 c 0
EndSplineSet
EndChar

StartChar: uni2116
Encoding: 8470 8470 436
Width: 799
VWidth: 1920
Flags: HW
LayerCount: 2
Fore
SplineSet
491 40 m 10
 491 43 l 18
 491 77 516 83 560 83 c 10
 699 83 l 18
 743 83 769 77 769 43 c 10
 769 40 l 18
 769 6 743 0 699 0 c 10
 560 0 l 18
 516 0 491 6 491 40 c 10
EndSplineSet
Refer: 132 8304 N 1 0 0 1 459 -295 2
Refer: 25 78 N 1 0 0 1 0 0 2
EndChar

StartChar: trademark
Encoding: 8482 8482 437
Width: 682
VWidth: 1920
Flags: HW
LayerCount: 2
Fore
SplineSet
79 1400 m 2
 233 1400 l 2
 275 1400 291 1393 291 1369 c 2
 291 1365 l 2
 291 1341 275 1334 233 1334 c 2
 194 1334 l 1
 194 606 l 2
 194 572 189 545 157 545 c 2
 155 545 l 2
 123 545 118 572 118 606 c 2
 118 1334 l 1
 79 1334 l 2
 37 1334 21 1341 21 1365 c 2
 21 1369 l 2
 21 1393 37 1400 79 1400 c 2
388 1275 m 1
 388 606 l 2
 388 572 379 545 357 545 c 2
 355 545 l 2
 333 545 327 572 327 606 c 2
 327 1344 l 2
 327 1388 345 1415 377 1415 c 2
 381 1415 l 2
 416 1415 429 1388 434 1344 c 2
 492 854 l 1
 544 1344 l 2
 549 1388 569 1415 601 1415 c 2
 603 1415 l 2
 635 1415 646 1388 646 1344 c 2
 646 606 l 2
 646 572 645 545 613 545 c 2
 608 545 l 2
 576 545 575 572 575 606 c 2
 575 1221 l 1
 501 566 l 2
 499 552 494 545 485 545 c 2
 483 545 l 2
 474 545 469 552 467 566 c 2
 388 1275 l 1
EndSplineSet
EndChar

StartChar: partialdiff
Encoding: 8706 8706 438
Width: 450
VWidth: 1920
Flags: HW
LayerCount: 2
Fore
SplineSet
215 802 m 0
 161 802 156 749 156 664 c 2
 156 200 l 2
 156 116 165 70 224 70 c 0
 281 70 288 154 288 235 c 2
 288 792 l 2
 288 1184 257 1273 149 1360 c 0
 110 1392 93 1400 107 1427 c 6
 108 1429 l 6
 122 1456 142 1460 190 1434 c 0
 333 1358 399 1195 399 755 c 2
 399 268 l 2
 399 116 383 -18 220 -18 c 0
 81 -18 42 53 42 185 c 2
 42 671 l 2
 42 801 63 886 178 886 c 0
 294 886 318 821 318 724 c 1
 288 635 l 1
 288 693 l 2
 288 778 265 802 215 802 c 0
EndSplineSet
EndChar

StartChar: summation
Encoding: 8721 8721 439
Width: 450
VWidth: 1920
Flags: HW
LayerCount: 2
Fore
SplineSet
358 456 m 2
 180 -259 l 1
 352 -259 l 2
 396 -259 421 -272 421 -309 c 2
 421 -311 l 2
 421 -348 396 -360 352 -360 c 2
 109 -360 l 2
 55 -360 42 -335 56 -281 c 2
 263 520 l 1
 56 1321 l 2
 42 1375 55 1400 109 1400 c 2
 352 1400 l 2
 396 1400 421 1388 421 1351 c 2
 421 1349 l 2
 421 1312 396 1299 352 1299 c 2
 180 1299 l 1
 358 584 l 2
 373 526 373 514 358 456 c 2
EndSplineSet
EndChar

StartChar: minus
Encoding: 8722 8722 440
Width: 584
Flags: HW
LayerCount: 2
Fore
SplineSet
50 279 m 10
 50 288 l 18
 50 309 69 328 107 328 c 10
 478 328 l 18
 516 328 535 309 535 288 c 10
 535 279 l 18
 535 258 516 239 478 239 c 10
 107 239 l 18
 69 239 50 258 50 279 c 10
EndSplineSet
EndChar

StartChar: integral
Encoding: 8747 8747 441
Width: 256
VWidth: 960
Flags: HW
LayerCount: 2
Fore
SplineSet
174 -74 m 2
 174 -180 149 -209 52 -204 c 0
 17 -202 -19 -190 -19 -166 c 2
 -19 -165 l 2
 -19 -132 -2 -121 24 -125 c 0
 46 -129 62 -118 62 -58 c 2
 62 1334 l 2
 62 1440 89 1469 186 1464 c 0
 221 1462 237 1450 237 1426 c 2
 237 1425 l 2
 237 1392 220 1386 204 1388 c 0
 182 1391 174 1378 174 1318 c 2
 174 -74 l 2
EndSplineSet
EndChar

StartChar: radical
Encoding: 8730 8730 443
Width: 468
VWidth: 1920
Flags: HMW
LayerCount: 2
Fore
SplineSet
157 1050 m 2
 211 1050 225 1026 230 970 c 2
 285 339 l 1
 334 1541 l 2
 336 1588 352 1600 386 1600 c 2
 389 1600 l 2
 423 1600 439 1587 435 1541 c 2
 303 -64 l 2
 301 -91 287 -92 283 -64 c 2
 151 949 l 1
 130 949 l 2
 86 949 60 962 60 999 c 2
 60 1000 l 2
 60 1037 86 1050 130 1050 c 2
 157 1050 l 2
EndSplineSet
EndChar

StartChar: infinity
Encoding: 8734 8734 444
Width: 698
VWidth: 1414
Flags: HMW
LayerCount: 2
Fore
SplineSet
190 483 m 0
 89 483 29 568 29 665 c 0
 29 762 89 845 190 845 c 0
 271 845 319 791 350 715 c 1
 381 791 428 845 509 845 c 0
 610 845 669 762 669 665 c 0
 669 568 610 483 509 483 c 0
 428 483 371 537 350 614 c 1
 318 537 271 483 190 483 c 0
203 568 m 0
 246 568 285 606 312 665 c 1
 287 723 246 762 203 762 c 0
 154 762 120 726 120 665 c 0
 120 605 154 568 203 568 c 0
496 568 m 0
 545 568 578 605 578 665 c 0
 578 726 545 762 496 762 c 0
 454 762 413 723 388 665 c 1
 403 607 454 568 496 568 c 0
EndSplineSet
EndChar

StartChar: product
Encoding: 8719 8719 445
Width: 591
VWidth: 1920
Flags: HW
LayerCount: 2
Fore
SplineSet
446 1400 m 2
 500 1400 521 1378 521 1321 c 2
 521 59 l 2
 521 12 500 -15 466 -15 c 2
 462 -15 l 2
 428 -15 408 12 408 59 c 2
 408 1299 l 1
 184 1299 l 1
 184 59 l 2
 184 12 163 -15 129 -15 c 2
 125 -15 l 2
 91 -15 70 12 70 59 c 2
 70 1311 l 18
 70 1368 91 1400 145 1400 c 10
 446 1400 l 2
EndSplineSet
EndChar

StartChar: uni2219
Encoding: 8729 8729 446
Width: 270
Flags: HW
LayerCount: 2
Fore
SplineSet
56 675 m 0
 56 722 88 755 135 755 c 0
 182 755 215 722 215 675 c 0
 215 628 185 595 138 595 c 0
 91 595 56 628 56 675 c 0
EndSplineSet
EndChar

StartChar: approxequal
Encoding: 8776 8776 447
Width: 583
VWidth: 1298
Flags: HW
LayerCount: 2
Fore
SplineSet
206 575 m 256
 171 575 156 559 148 542 c 0
 136 516 123 503 102 503 c 2
 96 503 l 2
 69 503 52 516 62 559 c 0
 73 609 120 669 200 669 c 256
 292 669 304 609 369 609 c 256
 404 609 418 623 427 641 c 0
 439 666 449 681 476 681 c 2
 481 681 l 2
 508 681 528 672 518 635 c 0
 501 568 455 515 375 515 c 256
 283 515 283 575 206 575 c 256
206 388 m 256
 171 388 156 372 148 355 c 0
 136 329 123 316 102 316 c 2
 96 316 l 2
 69 316 52 329 62 372 c 0
 73 422 120 482 200 482 c 256
 292 482 304 422 369 422 c 256
 404 422 418 436 427 454 c 0
 439 479 449 494 476 494 c 2
 481 494 l 2
 508 494 528 486 518 449 c 0
 501 382 455 328 375 328 c 256
 283 328 283 388 206 388 c 256
EndSplineSet
EndChar

StartChar: notequal
Encoding: 8800 8800 448
Width: 537
VWidth: 1920
Flags: HW
LayerCount: 2
Fore
SplineSet
500 733 m 2
 501 732 l 2
 513 720 506 710 485 688 c 2
 101 284 l 2
 80 262 69 253 57 265 c 2
 55 267 l 2
 43 279 52 290 73 312 c 2
 457 716 l 2
 478 738 488 745 500 733 c 2
EndSplineSet
Refer: 83 61 N 1 0 0 1 0 0 2
EndChar

StartChar: lessequal
Encoding: 8804 8804 449
Width: 517
VWidth: 1920
Flags: HW
LayerCount: 2
Fore
SplineSet
42 385 m 14
 42 392 l 22
 42 426 68 432 112 432 c 14
 400 432 l 22
 444 432 470 426 470 392 c 14
 470 385 l 22
 470 351 444 345 400 345 c 14
 112 345 l 22
 68 345 42 351 42 385 c 14
EndSplineSet
Refer: 84 60 N 1 0 0 1 5 160 2
EndChar

StartChar: greaterequal
Encoding: 8805 8805 450
Width: 517
VWidth: 1920
Flags: HW
LayerCount: 2
Fore
SplineSet
42 385 m 10
 42 392 l 18
 42 426 68 432 112 432 c 10
 400 432 l 18
 444 432 470 426 470 392 c 10
 470 385 l 18
 470 351 444 345 400 345 c 10
 112 345 l 18
 68 345 42 351 42 385 c 10
EndSplineSet
Refer: 85 62 N 1 0 0 1 -5 160 2
EndChar

StartChar: lozenge
Encoding: 9674 9674 451
Width: 641
Flags: HW
LayerCount: 2
Fore
SplineSet
307 90 m 2
 113 598 l 2
 82 680 82 745 113 827 c 2
 307 1332 l 2
 324 1376 339 1378 355 1332 c 2
 528 835 l 2
 558 749 558 673 528 587 c 2
 355 90 l 2
 339 44 324 46 307 90 c 2
326 323 m 1
 450 712 l 1
 326 1101 l 1
 191 712 l 1
 326 323 l 1
EndSplineSet
EndChar

StartChar: uniF8EA
Encoding: 63722 63722 452
Width: 553
VWidth: 1582
Flags: HW
LayerCount: 2
Fore
SplineSet
56 1400 m 6
 218 1400 l 6
 236 1400 246 1395 246 1384 c 6
 246 1379 l 6
 246 1368 236 1363 218 1363 c 6
 160 1363 l 5
 160 1173 l 6
 160 1150 152 1139 137 1139 c 6
 137 1139 l 6
 122 1139 114 1150 114 1173 c 6
 114 1363 l 5
 56 1363 l 6
 38 1363 28 1368 28 1379 c 6
 28 1384 l 6
 28 1395 38 1400 56 1400 c 6
305 1345 m 5
 305 1172 l 6
 305 1149 301 1139 287 1139 c 6
 285 1139 l 6
 271 1139 268 1149 268 1172 c 6
 268 1366 l 6
 268 1389 278 1404 297 1404 c 6
 301 1404 l 6
 325 1404 332 1390 340 1369 c 6
 395 1229 l 5
 453 1371 l 6
 461 1390 472 1404 487 1404 c 6
 493 1404 l 6
 506 1404 517 1397 517 1366 c 6
 517 1173 l 6
 517 1150 511 1139 496 1139 c 6
 494 1139 l 6
 479 1139 473 1150 473 1173 c 6
 473 1329 l 5
 408 1167 l 6
 402 1152 400 1148 391 1148 c 6
 390 1148 l 6
 381 1148 380 1151 374 1167 c 6
 305 1345 l 5
EndSplineSet
EndChar

StartChar: uniF8E8
Encoding: 63720 63720 453
Width: 492
Flags: HW
LayerCount: 2
Fore
SplineSet
190 1311 m 1
 190 1232 l 1
 255 1232 l 2
 284 1232 298 1244 298 1265 c 2
 298 1278 l 2
 298 1299 284 1311 255 1311 c 2
 190 1311 l 1
257 1343 m 2
 306 1343 341 1320 341 1277 c 2
 341 1272 l 2
 341 1229 305 1211 257 1211 c 1
 257 1221 l 1
 305 1221 340 1208 340 1165 c 2
 340 1150 l 2
 340 1131 344 1120 349 1110 c 0
 351 1105 353 1101 353 1098 c 2
 353 1097 l 2
 353 1089 346 1085 335 1085 c 2
 333 1085 l 2
 321 1085 312 1090 308 1099 c 0
 300 1114 298 1134 298 1150 c 2
 298 1170 l 2
 298 1191 284 1202 255 1202 c 2
 190 1202 l 1
 190 1110 l 2
 190 1094 182 1085 170 1085 c 2
 168 1085 l 2
 156 1085 148 1094 148 1110 c 2
 148 1310 l 2
 148 1331 160 1343 181 1343 c 2
 257 1343 l 2
455 1207 m 0
 455 1092 360 999 245 999 c 0
 130 999 37 1092 37 1207 c 0
 37 1322 130 1417 245 1417 c 0
 360 1417 455 1322 455 1207 c 0
429 1207 m 0
 429 1309 347 1391 245 1391 c 0
 143 1391 62 1309 62 1207 c 0
 62 1105 143 1025 245 1025 c 0
 347 1025 429 1105 429 1207 c 0
EndSplineSet
EndChar

StartChar: uniF8E9
Encoding: 63721 63721 454
Width: 492
VWidth: 1569
Flags: HW
LayerCount: 2
Fore
SplineSet
348 1158 m 4
 339 1113 306 1076 244 1076 c 4
 172 1076 135 1126 135 1194 c 6
 135 1223 l 6
 135 1291 172 1341 244 1341 c 4
 305 1341 333 1310 342 1274 c 4
 346 1260 338 1250 328 1250 c 6
 325 1250 l 6
 314 1250 311 1259 307 1271 c 4
 300 1294 277 1311 247 1311 c 4
 203 1311 178 1272 178 1225 c 6
 178 1192 l 6
 178 1145 199 1106 247 1106 c 4
 284 1106 305 1127 312 1158 c 4
 314 1169 319 1180 331 1180 c 6
 333 1180 l 6
 345 1180 350 1170 348 1158 c 4
455 1208 m 4
 455 1093 360 999 245 999 c 4
 130 999 37 1093 37 1208 c 4
 37 1323 130 1417 245 1417 c 4
 360 1417 455 1323 455 1208 c 4
429 1208 m 4
 429 1309 346 1391 245 1391 c 4
 144 1391 62 1309 62 1208 c 4
 62 1107 144 1025 245 1025 c 4
 346 1025 429 1107 429 1208 c 4
EndSplineSet
EndChar

StartChar: uni1E9E
Encoding: 7838 7838 457
Width: 555
VWidth: 1920
Flags: HW
LayerCount: 2
Fore
SplineSet
79 1097 m 2
 79 1303 121 1417 275 1417 c 0
 385 1417 431 1323 460 1214 c 0
 474 1163 475 1134 466 1086 c 2
 395 715 l 1
 451 643 518 570 518 343 c 0
 518 119 461 -18 350 -18 c 0
 301 -18 264 27 238 78 c 0
 232 89 215 126 215 172 c 2
 215 182 l 2
 215 226 250 228 260 199 c 0
 276 153 300 104 327 104 c 0
 379 104 404 171 404 346 c 0
 404 519 378 570 323 627 c 0
 296 655 280 682 291 740 c 2
 371 1145 l 1
 359 1240 329 1334 275 1334 c 0
 200 1334 190 1261 190 1101 c 2
 190 55 l 2
 190 11 179 -15 135 -15 c 2
 134 -15 l 2
 90 -15 79 11 79 55 c 2
 79 1097 l 2
EndSplineSet
EndChar
